<svg width="496" height="320" viewBox="0 0 496 320" fill="none" xmlns="http://www.w3.org/2000/svg">
<g clip-path="url(#clip0)">
<path d="M25.4144 178.295H22.063V181.092H25.4144V178.295Z" fill="#E6E6E6"/>
<path d="M342.413 181.092H335.809V178.295H342.413V181.092ZM329.205 181.092H322.6V178.295H329.205V181.092ZM315.996 181.092H309.392V178.295H315.996V181.092ZM302.788 181.092H296.184V178.295H302.788V181.092ZM289.58 181.092H282.976V178.295H289.58V181.092ZM276.371 181.092H269.767V178.295H276.371L276.371 181.092ZM263.163 181.092H256.56V178.295H263.163V181.092ZM249.955 181.092H243.351V178.295H249.955V181.092ZM236.747 181.092H230.143V178.295H236.747V181.092ZM223.539 181.092H216.934V178.295H223.539L223.539 181.092ZM210.33 181.092H203.726V178.295H210.33L210.33 181.092ZM197.122 181.092H190.518V178.295H197.122L197.122 181.092ZM183.914 181.092H177.31V178.295H183.914L183.914 181.092ZM170.705 181.092H164.101V178.295H170.705L170.705 181.092ZM157.497 181.092H150.893V178.295H157.497L157.497 181.092ZM144.289 181.092H137.685V178.295H144.289L144.289 181.092ZM131.081 181.092H124.476V178.295H131.081L131.081 181.092ZM117.872 181.092H111.268V178.295H117.873L117.872 181.092ZM104.664 181.092H98.0601V178.295H104.664L104.664 181.092ZM91.4557 181.092H84.8518V178.295H91.4558L91.4557 181.092ZM78.2474 181.092H71.6436V178.295H78.2476L78.2474 181.092ZM65.0392 181.092H58.4351V178.295H65.0394L65.0392 181.092ZM51.8309 181.092H45.2269V178.295H51.8311L51.8309 181.092ZM38.6227 181.092H32.0187V178.295H38.6229L38.6227 181.092Z" fill="#E6E6E6"/>
<path d="M25.4144 107.248H22.063V110.045H25.4144V107.248Z" fill="#E6E6E6"/>
<path d="M342.413 110.045H335.809V107.248H342.413V110.045ZM329.205 110.045H322.6V107.248H329.205V110.045ZM315.996 110.045H309.392V107.248H315.996V110.045ZM302.788 110.045H296.184V107.248H302.788V110.045ZM289.58 110.045H282.976V107.248H289.58V110.045ZM276.371 110.045H269.767V107.248H276.371L276.371 110.045ZM263.163 110.045H256.56V107.248H263.163V110.045ZM249.955 110.045H243.351V107.248H249.955V110.045ZM236.747 110.045H230.143V107.248H236.747V110.045ZM223.539 110.045H216.934V107.248H223.539L223.539 110.045ZM210.33 110.045H203.726V107.248H210.33L210.33 110.045ZM197.122 110.045H190.518V107.248H197.122L197.122 110.045ZM183.914 110.045H177.31V107.248H183.914L183.914 110.045ZM170.705 110.045H164.101V107.248H170.705L170.705 110.045ZM157.497 110.045H150.893V107.248H157.497L157.497 110.045ZM144.289 110.045H137.685V107.248H144.289L144.289 110.045ZM131.081 110.045H124.476V107.248H131.081L131.081 110.045ZM117.872 110.045H111.268V107.248H117.873L117.872 110.045ZM104.664 110.045H98.0601V107.248H104.664L104.664 110.045ZM91.4557 110.045H84.8518V107.248H91.4558L91.4557 110.045ZM78.2474 110.045H71.6436V107.248H78.2476L78.2474 110.045ZM65.0392 110.045H58.4351V107.248H65.0394L65.0392 110.045ZM51.8309 110.045H45.2269V107.248H51.8311L51.8309 110.045ZM38.6227 110.045H32.0187V107.248H38.6229L38.6227 110.045Z" fill="#E6E6E6"/>
<path d="M25.4144 36.2001H22.063V38.9972H25.4144V36.2001Z" fill="#E6E6E6"/>
<path d="M342.413 38.9972H335.809V36.2001H342.413V38.9972ZM329.205 38.9972H322.6V36.2001H329.205V38.9972ZM315.996 38.9972H309.392V36.2001H315.996V38.9972ZM302.788 38.9972H296.184V36.2001H302.788V38.9972ZM289.58 38.9972H282.976V36.2001H289.58V38.9972ZM276.371 38.9972H269.767V36.2001H276.371L276.371 38.9972ZM263.163 38.9972H256.56V36.2001H263.163V38.9972ZM249.955 38.9972H243.351V36.2001H249.955V38.9972ZM236.747 38.9972H230.143V36.2001H236.747V38.9972ZM223.539 38.9972H216.934V36.2001H223.539L223.539 38.9972ZM210.33 38.9972H203.726V36.2001H210.33L210.33 38.9972ZM197.122 38.9972H190.518V36.2001H197.122L197.122 38.9972ZM183.914 38.9972H177.31V36.2001H183.914L183.914 38.9972ZM170.705 38.9972H164.101V36.2001H170.705L170.705 38.9972ZM157.497 38.9972H150.893V36.2001H157.497L157.497 38.9972ZM144.289 38.9972H137.685V36.2001H144.289L144.289 38.9972ZM131.081 38.9972H124.476V36.2001H131.081L131.081 38.9972ZM117.872 38.9972H111.268V36.2001H117.873L117.872 38.9972ZM104.664 38.9972H98.0601V36.2001H104.664L104.664 38.9972ZM91.4557 38.9972H84.8518V36.2001H91.4558L91.4557 38.9972ZM78.2474 38.9972H71.6436V36.2001H78.2476L78.2474 38.9972ZM65.0392 38.9972H58.4351V36.2001H65.0394L65.0392 38.9972ZM51.8309 38.9972H45.2269V36.2001H51.8311L51.8309 38.9972ZM38.6227 38.9972H32.0187V36.2001H38.6229L38.6227 38.9972Z" fill="#E6E6E6"/>
<path d="M131.261 179.134H103.892V279.832H131.261V179.134Z" fill="#3F3D56"/>
<path d="M136.288 179.134H108.919V279.832H136.288V179.134Z" fill="#47B2E4"/>
<path d="M196.054 108.087H168.685V279.832H196.054V108.087Z" fill="#3F3D56"/>
<path d="M201.081 108.087H173.712V279.832H201.081V108.087Z" fill="#47B2E4"/>
<path d="M260.847 37.0392H233.477V279.832H260.847V37.0392Z" fill="#3F3D56"/>
<path d="M265.874 37.0392H238.505V279.832H265.874V37.0392Z" fill="#47B2E4"/>
<path d="M22.3424 44.3118C26.0442 44.3118 29.0451 41.3062 29.0451 37.5986C29.0451 33.8911 26.0442 30.8855 22.3424 30.8855C18.6406 30.8855 15.6396 33.8911 15.6396 37.5986C15.6396 41.3062 18.6406 44.3118 22.3424 44.3118Z" fill="#E6E6E6"/>
<path d="M22.3424 115.359C26.0442 115.359 29.0451 112.354 29.0451 108.646C29.0451 104.939 26.0442 101.933 22.3424 101.933C18.6406 101.933 15.6396 104.939 15.6396 108.646C15.6396 112.354 18.6406 115.359 22.3424 115.359Z" fill="#E6E6E6"/>
<path d="M22.3424 186.407C26.0442 186.407 29.0451 183.401 29.0451 179.694C29.0451 175.986 26.0442 172.981 22.3424 172.981C18.6406 172.981 15.6396 175.986 15.6396 179.694C15.6396 183.401 18.6406 186.407 22.3424 186.407Z" fill="#E6E6E6"/>
<path d="M496 279.205H0V280.458H496V279.205Z" fill="#3F3D56"/>
<path d="M422.463 52.4925C432.962 52.4925 441.474 43.9674 441.474 33.4511C441.474 22.9348 432.962 14.4097 422.463 14.4097C411.963 14.4097 403.451 22.9348 403.451 33.4511C403.451 43.9674 411.963 52.4925 422.463 52.4925Z" fill="#2F2E41"/>
<path d="M376.475 158.764L375.447 164.94C375.447 164.94 369.795 186.04 376.988 185.01C384.182 183.981 381.613 165.969 381.613 165.969L382.64 160.308L376.475 158.764Z" fill="#FFB9B9"/>
<path d="M439.933 129.688H398.312C398.312 129.688 386.494 148.214 391.119 180.636C395.743 213.058 393.688 285.621 393.688 285.621H409.617L420.407 171.887L443.016 285.621L457.917 284.077L449.696 152.846L439.933 129.688Z" fill="#2F2E41"/>
<path d="M398.055 283.82L397.542 302.862C397.542 302.862 390.862 321.903 400.625 319.844C410.387 317.786 411.415 313.669 411.415 312.125C411.415 310.581 408.846 283.82 408.846 283.82H398.055Z" fill="#2F2E41"/>
<path d="M455.306 282.373L458.247 302.736C458.247 302.736 467.304 320.765 457.359 319.975C447.413 319.184 445.868 315.232 445.671 313.701C445.474 312.17 444.604 283.756 444.604 283.756L455.306 282.373Z" fill="#2F2E41"/>
<path d="M422.719 52.2353C430.382 52.2353 436.593 46.0142 436.593 38.3402C436.593 30.6661 430.382 24.4451 422.719 24.4451C415.057 24.4451 408.846 30.6661 408.846 38.3402C408.846 46.0142 415.057 52.2353 422.719 52.2353Z" fill="#FFB9B9"/>
<path d="M433.253 44.2587L438.905 63.8146L427.601 75.1364L421.435 64.3293L419.38 48.8902L433.253 44.2587Z" fill="#FFB9B9"/>
<path d="M438.134 57.3816C438.134 57.3816 437.378 52.1908 435.701 52.7277C434.024 53.2645 419.123 56.8669 419.123 58.4108V65.101L406.791 112.962L403.708 132.518L436.079 132.003L441.217 64.0718L438.134 57.3816Z" fill="#E6E6E6"/>
<path d="M435.308 51.9779L438.905 53.0072L444.814 58.9254C444.814 58.9254 459.201 56.3523 461.257 63.0425C463.312 69.7327 449.953 153.103 449.953 153.103C449.953 153.103 427.344 160.823 423.747 141.267C420.15 121.711 420.407 104.985 427.601 92.6339C434.794 80.2827 435.308 51.9779 435.308 51.9779Z" fill="#2F2E41"/>
<path d="M420.402 56.5703L418.352 57.6389L416.553 65.6157C416.553 65.6157 401.652 69.7327 400.625 75.3937C399.597 81.0546 401.138 111.933 401.138 111.933C401.138 111.933 386.751 141.267 389.32 153.618C389.32 153.618 395.486 158.764 400.111 152.074C404.735 145.384 416.04 105.242 416.553 102.669C417.067 100.096 422.709 57.303 420.402 56.5703Z" fill="#2F2E41"/>
<path d="M406.277 73.3351L400.775 74.8293L397.028 85.6862L389.32 113.476L374.419 159.279L384.696 163.911L401.138 130.46L406.277 73.3351Z" fill="#2F2E41"/>
<path d="M433.253 36.5389C424.419 33.3476 421.43 31.387 411.672 36.5389L408.075 22.1292H436.85L433.253 36.5389Z" fill="#2F2E41"/>
<path d="M420.921 24.1877C426.88 24.1877 431.712 19.3491 431.712 13.3804C431.712 7.41171 426.88 2.57312 420.921 2.57312C414.962 2.57312 410.131 7.41171 410.131 13.3804C410.131 19.3491 414.962 24.1877 420.921 24.1877Z" fill="#2F2E41"/>
<path d="M408.075 10.8073C408.077 8.03184 409.145 5.36345 411.058 3.35594C412.972 1.34842 415.584 0.155935 418.352 0.0259757C418.18 0.0178696 418.012 0 417.838 0C414.976 0 412.232 1.13862 410.208 3.16538C408.184 5.19214 407.048 7.94101 407.048 10.8073C407.048 13.6736 408.184 16.4224 410.208 18.4492C412.232 20.476 414.976 21.6146 417.838 21.6146C418.012 21.6146 418.18 21.5967 418.352 21.5886C415.584 21.4586 412.972 20.2662 411.058 18.2587C409.145 16.2511 408.077 13.5828 408.075 10.8073Z" fill="#2F2E41"/>
<path d="M439.797 160.616H399.719V177.698H439.797V160.616Z" fill="#47B2E4"/>
<path opacity="0.1" d="M440.079 161H400V178.081H440.079V161Z" fill="black"/>
<path opacity="0.2" d="M419.758 173.854C422.348 173.854 424.448 171.751 424.448 169.157C424.448 166.563 422.348 164.459 419.758 164.459C417.168 164.459 415.068 166.563 415.068 169.157C415.068 171.751 417.168 173.854 419.758 173.854Z" fill="black"/>
<path opacity="0.2" d="M409.099 176.417H401.424V161.897H409.525V162.751H402.277V175.562H409.099V176.417Z" fill="black"/>
<path opacity="0.2" d="M438.092 176.417H430.417V175.562H437.239V162.751H429.991V161.897H438.092V176.417Z" fill="black"/>
<path d="M434.803 162.227L396.546 174.192L401.63 190.497L439.887 178.532L434.803 162.227Z" fill="#47B2E4"/>
<path opacity="0.2" d="M418.217 181.059C420.807 181.059 422.907 178.956 422.907 176.362C422.907 173.767 420.807 171.664 418.217 171.664C415.626 171.664 413.526 173.767 413.526 176.362C413.526 178.956 415.626 181.059 418.217 181.059Z" fill="black"/>
<path opacity="0.2" d="M410.202 186.473L402.877 188.764L398.556 174.906L406.288 172.487L406.542 173.302L399.624 175.466L403.436 187.695L409.948 185.658L410.202 186.473Z" fill="black"/>
<path opacity="0.2" d="M437.877 177.818L430.552 180.109L430.298 179.294L436.81 177.257L432.997 165.029L426.078 167.193L425.824 166.377L433.556 163.959L437.877 177.818Z" fill="black"/>
<path d="M439.751 150.247L437.399 156.048C437.399 156.048 431.186 176.989 425.595 172.34C420.004 167.692 431.607 153.692 431.607 153.692L433.69 148.33L439.751 150.247Z" fill="#FFB9B9"/>
<path d="M454.063 64.5864L461.257 63.0425C462.279 66.0745 463.107 69.1685 463.736 72.3059C464.764 77.4522 463.178 118.108 462.15 122.225C461.123 126.342 442.489 153.774 442.489 153.774L425.721 150.13L449.952 113.477L454.063 64.5864Z" fill="#2F2E41"/>
<path opacity="0.2" d="M450.198 90.7445L445.73 115.359L428.973 149.485L444.054 113.681L450.198 90.7445Z" fill="black"/>
</g>
<defs>
<clipPath id="clip0">
<rect width="496" height="320" fill="white"/>
</clipPath>
</defs>
</svg>
