<svg width="65" height="65" viewBox="0 0 65 65" fill="none" xmlns="http://www.w3.org/2000/svg">
<path d="M0 56.6188C0 61.248 3.75248 65 8.38119 65H56.6186C61.248 65 65 61.2475 65 56.6188V8.38144C65 3.75197 61.2475 0 56.6188 0H8.38144C3.75197 0 0 3.75248 0 8.38119V56.6188Z" fill="#563D7C"/>
<path d="M26.954 28.7518V19.547H35.0564C35.8283 19.547 36.5722 19.6112 37.2887 19.7399C38.0053 19.8684 38.6393 20.0979 39.1905 20.4288C39.7415 20.7596 40.1825 21.2189 40.5134 21.8067C40.8439 22.3948 41.0095 23.1481 41.0095 24.0665C41.0095 25.7202 40.5133 26.9146 39.5211 27.6494C38.5291 28.3844 37.2613 28.7518 35.7178 28.7518H26.954ZM18.3001 12.8223V52.1777H37.3715C39.1354 52.1777 40.8533 51.9573 42.5253 51.5163C44.1973 51.0753 45.6854 50.3956 46.99 49.4769C48.2943 48.5583 49.3325 47.3731 50.1041 45.9217C50.876 44.4702 51.2617 42.7522 51.2617 40.768C51.2617 38.3058 50.6645 36.2022 49.4704 34.4569C48.276 32.7113 46.4662 31.4895 44.0409 30.7912C45.8048 29.9462 47.137 28.862 48.0374 27.5392C48.9375 26.2163 49.3876 24.5629 49.3876 22.5784C49.3876 20.7411 49.0845 19.1979 48.4781 17.9484C47.8718 16.6992 47.0174 15.6978 45.915 14.9444C44.8127 14.1911 43.4899 13.649 41.9464 13.3184C40.4032 12.9876 38.6944 12.8223 36.8203 12.8223H18.3001ZM26.954 45.453V34.6496H36.3793C38.2533 34.6496 39.76 35.0812 40.8993 35.945C42.0383 36.8085 42.6081 38.2507 42.6081 40.2718C42.6081 41.3009 42.4334 42.1459 42.0843 42.8073C41.7351 43.4688 41.2667 43.9926 40.6786 44.3782C40.0909 44.7642 39.4109 45.0397 38.6393 45.2052C37.8674 45.3703 37.0592 45.453 36.214 45.453H26.954Z" fill="white"/>
</svg>
