<svg width="110" height="17" viewBox="0 0 110 17" fill="none" xmlns="http://www.w3.org/2000/svg">
<path d="M8.84236 7.47825C8.84236 7.47825 7.77348 6.81793 7.11084 6.56152C7.11084 6.56152 5.06346 5.61313 4.65722 5.16056C4.65722 5.16056 3.85912 4.40679 4.32667 3.53531C4.32667 3.53531 4.5213 2.96381 5.36466 2.96381C5.36466 2.96381 6.46365 3.02312 6.46365 3.92672V5.19994H10.4009L10.3901 3.32401C10.3901 3.32401 10.6913 0.253082 5.7539 0.118778C5.7539 0.118778 5.38242 0.0948362 4.8364 0.118778C4.8364 0.118778 1.84579 0.279109 0.776684 1.9198C0.766335 1.93115 0.762165 1.9405 0.755832 1.95193C0.755832 1.95193 0.31971 2.41732 0.31971 4.04434V5.21848C0.31971 5.21848 0.274916 6.57311 0.967213 7.44659C0.967213 7.44659 1.35877 8.01887 2.32261 8.65062C2.32261 8.65062 4.27871 9.70404 5.45278 10.3072C5.45278 10.3072 6.63981 10.9838 6.48381 12.0611C6.48381 12.0611 6.3865 13.1663 5.24271 13.1215C5.24271 13.1215 4.19546 13.0736 4.19546 11.9901V10.7173H0.000206137V12.567C0.000206137 12.567 -0.117493 16.1034 5.27198 16.1034C5.27198 16.1034 10.4194 16.2084 10.6619 12.4743V10.9699C10.6619 10.9699 10.8419 8.67919 8.83927 7.47516L8.84236 7.47825ZM73.3664 11.8449C73.3664 11.8449 73.4181 13.0783 72.2735 13.0783C72.2735 13.0783 71.0757 13.1424 71.0757 11.875L71.0657 0.569497H66.7871V11.7839C66.7871 11.7839 66.3499 16.0292 72.3353 16.0292C72.3353 16.0292 77.5399 16.091 77.5399 11.9785V0.569497H73.3664V11.8449ZM86.7226 6.4449L90.8622 15.589H95.5192V0.559148H91.565L91.843 9.70636H91.6809L87.6726 0.560152H82.8843V15.589H86.7844L86.545 6.4449H86.7226ZM104.926 7.27282V9.47853H105.999V11.8457C105.999 13.0018 105.011 13.0242 105.011 13.0242C103.806 13.0242 103.86 11.9244 103.86 11.9244V3.73519C103.86 2.89198 104.918 2.84626 104.918 2.84626C105.953 2.84626 105.953 3.85281 105.953 3.85281V5.098H109.892C110.031 2.66817 109.544 2.07905 109.544 2.07905C108.564 -0.118552 104.864 0.00115534 104.864 0.00115534C99.1722 0.00115534 99.8055 4.3674 99.8055 4.3674V12.2851C99.9214 16.3791 105.536 15.9636 105.629 15.9582C108.123 15.6825 108.872 14.8901 108.872 14.8901C109.575 14.375 109.745 13.6629 109.745 13.6629C109.946 13.2482 110 11.9237 110 11.9237V7.27127H104.926V7.27282ZM23.6089 0.619388H16.9956L14.4053 15.5689H18.5951L20.1296 3.97777H20.4741L22.0079 15.5689H26.1977L23.6089 0.619388ZM34.3177 4.31812H34.6235L36.6871 15.5836H40.7819L42.82 4.32229H43.0911L43.1861 15.5867H47.0979L46.6769 0.557063H40.1672L38.8488 8.81589H38.5407L37.2826 0.630972H30.7072L30.3782 15.5867H34.2706L34.3177 4.31812ZM60.3174 7.47825C60.3174 7.47825 59.247 6.81638 58.5852 6.56075C58.5852 6.56075 56.5378 5.61081 56.1308 5.15901C56.1308 5.15901 55.333 4.40679 55.7994 3.5333C55.7994 3.5333 55.9948 2.9618 56.8382 2.9618C56.8382 2.9618 57.9364 3.02204 57.9364 3.92463V5.19763H61.8729L61.8621 3.32192C61.8621 3.32192 62.1648 0.250997 57.2259 0.115612C57.2259 0.115612 53.342 -0.139405 52.2275 1.95193C52.2275 1.95193 51.7904 2.4184 51.7904 4.04434V5.21848C51.7904 5.21848 51.7456 6.57388 52.4384 7.44659C52.4384 7.44659 52.8291 8.01887 53.7938 8.65062C53.7938 8.65062 55.7508 9.70404 56.9247 10.308C56.9247 10.308 58.1102 10.9845 57.9542 12.0611C57.9542 12.0611 57.8584 13.1663 56.7139 13.1215C56.7139 13.1215 55.6666 13.0736 55.6666 11.9901V10.7181H51.4722V12.567C51.4722 12.567 51.3548 16.1034 56.7447 16.1034C56.7447 16.1034 61.8937 16.2084 62.1339 12.4743V10.9699C62.1339 10.9699 62.3154 8.68228 60.3144 7.47825H60.3174Z" fill="#111111"/>
</svg>
