<svg width="110" height="21" viewBox="0 0 110 21" fill="none" xmlns="http://www.w3.org/2000/svg">
<path fill-rule="evenodd" clip-rule="evenodd" d="M42.9242 16.2425C38.9034 19.1945 33.0756 20.7696 28.0579 20.7696C21.0224 20.7696 14.6886 18.1775 9.89679 13.8664C9.52031 13.5274 9.85763 13.0654 10.3094 13.3294C15.4807 16.3265 21.8747 18.1295 28.4796 18.1295C32.934 18.1295 37.8343 17.2115 42.3399 15.3064C43.0206 15.0184 43.5898 15.7504 42.9242 16.2425Z" fill="#111111"/>
<path fill-rule="evenodd" clip-rule="evenodd" d="M44.5958 14.3374C44.0837 13.6834 41.1984 14.0284 39.9034 14.1814C39.5088 14.2294 39.4486 13.8874 39.804 13.6414C42.102 12.0303 45.8728 12.4953 46.3125 13.0353C46.7522 13.5784 46.198 17.3435 44.0386 19.1405C43.7073 19.4165 43.391 19.2695 43.5386 18.9035C44.0235 17.6975 45.1108 14.9944 44.5958 14.3374Z" fill="#111111"/>
<path fill-rule="evenodd" clip-rule="evenodd" d="M39.9937 2.26808V0.702041C39.9937 0.465034 40.1744 0.30603 40.3913 0.30603H47.4298C47.6557 0.30603 47.8364 0.468035 47.8364 0.702041V2.04308C47.8334 2.26808 47.6437 2.56209 47.3064 3.0271L43.6591 8.21425C45.0144 8.18125 46.445 8.38225 47.6738 9.07227C47.9509 9.22827 48.0262 9.45628 48.0473 9.68129V11.3523C48.0473 11.5803 47.7943 11.8473 47.5292 11.7093C45.3637 10.5783 42.4875 10.4553 40.0931 11.7213C39.8491 11.8533 39.5931 11.5893 39.5931 11.3613V9.77429C39.5931 9.51928 39.5961 9.08427 39.8522 8.69726L44.0777 2.66109H40.4003C40.1744 2.66109 39.9937 2.50209 39.9937 2.26808Z" fill="#111111"/>
<path fill-rule="evenodd" clip-rule="evenodd" d="M14.3181 12.0393H12.1767C11.9719 12.0243 11.8093 11.8713 11.7942 11.6763V0.728999C11.7942 0.509993 11.9779 0.335987 12.2068 0.335987H14.2037C14.4115 0.344982 14.5771 0.503991 14.5922 0.701997V2.13304H14.6313C15.1524 0.749998 16.1312 0.10498 17.4504 0.10498C18.7906 0.10498 19.6279 0.749998 20.2303 2.13304C20.7483 0.749998 21.9259 0.10498 23.1879 0.10498C24.0854 0.10498 25.0672 0.47399 25.6666 1.30201C26.3442 2.22304 26.2057 3.56107 26.2057 4.73411L26.2027 11.6433C26.2027 11.8623 26.019 12.0393 25.7901 12.0393H23.6517C23.4378 12.0243 23.2662 11.8533 23.2662 11.6433V5.84114C23.2662 5.37913 23.3083 4.22709 23.2059 3.78908C23.0463 3.05406 22.5674 2.84705 21.947 2.84705C21.429 2.84705 20.8868 3.19206 20.667 3.74408C20.4471 4.2961 20.4682 5.22012 20.4682 5.84114V11.6433C20.4682 11.8623 20.2845 12.0393 20.0556 12.0393H17.9172C17.7004 12.0243 17.5317 11.8533 17.5317 11.6433L17.5287 5.84114C17.5287 4.62011 17.7305 2.82305 16.2095 2.82305C14.6705 2.82305 14.7307 4.5751 14.7307 5.84114V11.6433C14.7307 11.8623 14.547 12.0393 14.3181 12.0393Z" fill="#111111"/>
<path fill-rule="evenodd" clip-rule="evenodd" d="M53.8962 0.10498C57.0736 0.10498 58.7933 2.82305 58.7933 6.27915C58.7933 9.61824 56.8929 12.2673 53.8962 12.2673C50.7759 12.2673 49.0773 9.54924 49.0773 6.16215C49.0773 2.75405 50.797 0.10498 53.8962 0.10498ZM53.9142 2.34004C52.336 2.34004 52.2366 4.4821 52.2366 5.81714C52.2366 7.15517 52.2156 10.0113 53.8962 10.0113C55.5557 10.0113 55.634 7.70719 55.634 6.30315C55.634 5.37913 55.5948 4.27509 55.3147 3.39907C55.0738 2.63705 54.5949 2.34004 53.9142 2.34004Z" fill="#111111"/>
<path fill-rule="evenodd" clip-rule="evenodd" d="M62.9135 12.0393H60.7812C60.5673 12.0243 60.3957 11.8533 60.3957 11.6433L60.3926 0.692996C60.4107 0.491991 60.5884 0.335987 60.8053 0.335987H62.79C62.9768 0.344982 63.1304 0.470991 63.1725 0.641996V2.31604H63.2117C63.811 0.819 64.6513 0.10498 66.1301 0.10498C67.0909 0.10498 68.0276 0.44999 68.6299 1.39502C69.1901 2.27104 69.1901 3.74408 69.1901 4.80311V11.6943C69.166 11.8863 68.9883 12.0393 68.7775 12.0393H66.6301C66.4343 12.0243 66.2717 11.8803 66.2506 11.6943V5.74814C66.2506 4.5511 66.3891 2.79905 64.9103 2.79905C64.3893 2.79905 63.9104 3.14706 63.6725 3.67508C63.3713 4.3441 63.3322 5.01012 63.3322 5.74814V11.6433C63.3291 11.8623 63.1424 12.0393 62.9135 12.0393" fill="#111111"/>
<path fill-rule="evenodd" clip-rule="evenodd" d="M70.5303 11.1693C70.5303 10.6173 71.0032 10.1733 71.5845 10.1733C72.1657 10.1733 72.6386 10.6173 72.6386 11.1693C72.6386 11.7183 72.1657 12.1683 71.5845 12.1683C71.0032 12.1683 70.5303 11.7183 70.5303 11.1693Z" fill="#111111"/>
<path fill-rule="evenodd" clip-rule="evenodd" d="M93.2182 12.0423C92.9954 12.0333 92.8207 11.8623 92.8207 11.6463V0.699021C92.8327 0.504014 92.9984 0.35101 93.2032 0.339011H93.9893C94.2061 0.339011 94.3808 0.495014 94.3989 0.699021V2.29506C94.9591 1.02903 96.0011 0.0390015 97.3173 0.0390015H97.3986H97.4769C98.8744 0.0390015 99.8954 1.06503 100.275 2.55607C100.868 1.08303 101.983 0.0390015 103.452 0.0390015H103.528H103.615C104.654 0.0390015 105.654 0.70502 106.172 1.71905C106.672 2.68807 106.654 3.97811 106.654 5.06114L106.651 11.6463C106.654 11.8563 106.482 12.0273 106.268 12.0423H105.329C105.124 12.0333 104.958 11.8893 104.931 11.7003V5.06114C104.931 4.27812 104.97 3.44709 104.651 2.73307C104.326 2.00406 103.702 1.54804 103.034 1.51504C102.287 1.55104 101.6 2.09406 101.154 2.82608C100.576 3.7711 100.597 4.62313 100.597 5.72716V11.7063C100.57 11.8863 100.41 12.0273 100.215 12.0423H99.281C99.0581 12.0333 98.8804 11.8623 98.8804 11.6463L98.8744 4.62313C98.8744 3.97811 98.8353 3.21909 98.5371 2.64007C98.1907 1.98006 97.5703 1.54804 96.9197 1.51504C96.2451 1.55404 95.5644 2.06706 95.1609 2.66407C94.6398 3.42609 94.5404 4.36812 94.5404 5.33715V11.6463C94.5404 11.8563 94.3688 12.0273 94.1549 12.0423H93.2182" fill="#111111"/>
<path fill-rule="evenodd" clip-rule="evenodd" d="M86.767 12.2703C83.7281 12.2703 82.3667 9.18325 82.3667 6.09617C82.3667 2.85008 83.966 0.0390015 87.026 0.0390015H87.1043H87.1886C90.1643 0.0390015 91.6461 3.03308 91.6461 6.12017C91.6461 9.39026 90.0047 12.2703 86.9266 12.2703H86.8483H86.767ZM86.9898 10.7733C87.9898 10.7403 88.7788 10.1223 89.2457 9.09325C89.6643 8.16922 89.7456 7.11019 89.7456 6.09617C89.7456 4.99214 89.6252 3.84011 89.1041 2.89508C88.6373 2.07006 87.8362 1.54504 86.9868 1.51504C86.0411 1.54804 85.1948 2.18706 84.7701 3.17109C84.3876 4.02311 84.2702 5.15414 84.2702 6.09617C84.2702 7.1552 84.4087 8.37923 84.8484 9.30026C85.2761 10.1733 86.0984 10.7403 86.9898 10.7733Z" fill="#111111"/>
<path fill-rule="evenodd" clip-rule="evenodd" d="M77.2708 10.7253C78.6351 10.6833 79.3519 9.59426 79.6471 8.18422C79.7073 8.00722 79.8428 7.87221 80.0416 7.87221L80.9421 7.86922C81.156 7.87821 81.3517 8.04022 81.3337 8.23823C80.918 10.6413 79.4633 12.2703 77.3912 12.2703H77.3069H77.2286C74.2108 12.2703 72.9097 9.25225 72.9097 6.18917C72.9097 3.15009 74.2288 0.0390015 77.2467 0.0390015H77.328H77.4093C79.5055 0.0390015 80.9994 1.64705 81.3246 4.05011C81.3246 4.23012 81.156 4.38612 80.9572 4.40712L80.0145 4.39512C79.8157 4.36812 79.6862 4.20012 79.6561 4.01111C79.4302 2.67007 78.6562 1.60205 77.3671 1.56004C75.3161 1.62604 74.7318 4.14011 74.7318 6.07517C74.7318 7.93822 75.2197 10.6593 77.2708 10.7253" fill="#111111"/>
<path fill-rule="evenodd" clip-rule="evenodd" d="M34.3827 6.81019C34.3827 7.64121 34.4038 8.33423 33.9822 9.07225C33.6418 9.67226 33.0997 10.0413 32.5003 10.0413C31.6781 10.0413 31.1962 9.41726 31.1962 8.49623C31.1962 6.67818 32.8316 6.34817 34.3827 6.34817V6.81019ZM36.5422 12.0093C36.4006 12.1353 36.1958 12.1443 36.0362 12.0603C35.3254 11.4723 35.1959 11.1993 34.8074 10.6383C33.6328 11.8323 32.7985 12.1893 31.2776 12.1893C29.4735 12.1893 28.073 11.0823 28.073 8.86524C28.073 7.13419 29.0127 5.95516 30.3559 5.37915C31.5185 4.86913 33.1419 4.77913 34.3827 4.63813V4.36212C34.3827 3.8551 34.4219 3.25509 34.1207 2.81708C33.8617 2.42407 33.3617 2.26206 32.919 2.26206C32.1028 2.26206 31.3769 2.67907 31.1992 3.5431C31.1631 3.7351 31.0216 3.92411 30.8258 3.93311L28.7507 3.7111C28.576 3.6721 28.3802 3.5311 28.4314 3.26409C28.9073 0.756022 31.1842 0 33.2202 0C34.2623 0 35.6236 0.276008 36.4458 1.06203C37.4879 2.03105 37.3885 3.32409 37.3885 4.73113V8.05522C37.3885 9.05425 37.8041 9.49226 38.1957 10.0323C38.3312 10.2243 38.3613 10.4553 38.1866 10.5993C37.7499 10.9623 36.9729 11.6373 36.5452 12.0153L36.5422 12.0093" fill="#111111"/>
<path fill-rule="evenodd" clip-rule="evenodd" d="M6.30972 6.81019C6.30972 7.64121 6.3308 8.33423 5.90915 9.07225C5.56882 9.67226 5.02971 10.0413 4.42735 10.0413C3.60512 10.0413 3.12625 9.41726 3.12625 8.49623C3.12625 6.67818 4.76166 6.34817 6.30972 6.34817V6.81019ZM8.46918 12.0093C8.32763 12.1353 8.12282 12.1443 7.9632 12.0603C7.25242 11.4723 7.12592 11.1993 6.73439 10.6383C5.55978 11.8323 4.72853 12.1893 3.20455 12.1893C1.4035 12.1893 0 11.0823 0 8.86524C0 7.13419 0.942693 5.95516 2.28294 5.37915C3.4455 4.86913 5.06886 4.77913 6.30972 4.63813V4.36212C6.30972 3.8551 6.34888 3.25509 6.05071 2.81708C5.78868 2.42407 5.28872 2.26206 4.849 2.26206C4.0328 2.26206 3.30394 2.67907 3.12625 3.5431C3.09011 3.7351 2.94855 3.92411 2.7558 3.93311L0.677655 3.7111C0.50297 3.6721 0.310215 3.5311 0.358404 3.26409C0.83728 0.756022 3.11119 0 5.14717 0C6.18925 0 7.55058 0.276008 8.3728 1.06203C9.41489 2.03105 9.3155 3.32409 9.3155 4.73113V8.05522C9.3155 9.05425 9.73113 9.49226 10.1227 10.0323C10.2612 10.2243 10.2913 10.4553 10.1166 10.5993C9.67993 10.9623 8.90288 11.6373 8.47521 12.0153L8.46918 12.0093" fill="#111111"/>
<path fill-rule="evenodd" clip-rule="evenodd" d="M108.877 0.456006C109.392 0.456006 109.819 0.870019 109.819 1.39203C109.819 1.90205 109.398 2.33106 108.877 2.33106C108.359 2.33106 107.937 1.91105 107.937 1.39203C107.937 0.864017 108.365 0.456006 108.877 0.456006ZM108.88 0.276001C108.277 0.276001 107.756 0.762014 107.756 1.39503C107.756 2.01605 108.268 2.51106 108.88 2.51106C109.494 2.51106 110 2.01005 110 1.39503C110 0.762014 109.485 0.276001 108.88 0.276001ZM108.458 2.02205H108.699V1.51803H108.922C109.009 1.51803 109.033 1.55404 109.051 1.62604C109.051 1.64404 109.093 1.96205 109.096 2.02205H109.365C109.331 1.96205 109.313 1.79104 109.301 1.68904C109.277 1.53004 109.265 1.41903 109.093 1.40703C109.181 1.37703 109.331 1.32903 109.331 1.09803C109.331 0.768014 109.039 0.768014 108.889 0.768014H108.458V2.02205ZM108.693 0.96902H108.895C108.961 0.96902 109.081 0.96902 109.081 1.14002C109.081 1.20603 109.051 1.31703 108.889 1.31703H108.693V0.96902Z" fill="#111111"/>
</svg>
