<svg width="110" height="22" viewBox="0 0 110 22" fill="none" xmlns="http://www.w3.org/2000/svg">
<path d="M90.9139 7.39735C89.3909 6.99222 87.853 6.99222 86.3375 7.39735C84.0642 8.00505 82.5413 9.438 82.0536 11.7262C81.7835 12.9716 81.731 14.2995 81.806 15.5825C81.9636 18.5084 83.7792 20.5941 86.5851 21.2468H86.7051C86.8101 21.2468 86.9227 21.3218 87.0277 21.3218H87.1402C87.2753 21.3218 87.4403 21.3968 87.6129 21.3968C88.1606 21.4718 88.8658 21.4943 89.451 21.3968H89.541C92.4444 21.2468 94.6426 19.4162 95.2878 16.6103C95.6404 15.0723 95.6404 13.5268 95.2878 11.9813C94.7476 9.55804 93.2772 8.00505 90.8689 7.35984L90.9139 7.39735ZM91.1015 15.86C91.1015 15.9501 91.1015 16.0401 91.0265 16.1301C90.7339 17.4205 89.7961 18.1183 88.5432 18.0657C87.2002 17.9907 86.2774 17.218 86.1424 15.875C86.0524 14.8922 86.0374 13.8944 86.1424 12.9116C86.2699 11.3586 87.2378 10.5108 88.6932 10.5409C89.8861 10.5409 90.7414 11.2386 91.0415 12.3939C91.3266 13.5418 91.124 15.5975 91.1165 15.86H91.1015ZM96.9383 0.547674V21.1942H101.32V14.8772L105.356 21.2017H110L105.619 14.3296L110 7.48738H105.356L101.32 13.7969V0.0150037L96.9383 0.547674ZM50.296 14.7797C50.296 13.8194 50.296 12.8591 50.1535 11.9138C49.7783 9.33297 48.2103 7.69745 45.667 7.26981C44.6992 7.10476 43.6714 7.12727 42.6811 7.19479C39.9802 7.44987 37.9321 9.13041 37.5119 11.6662C37.2569 13.2042 37.2268 14.8322 37.4294 16.3702C37.737 18.6884 38.8699 20.1664 40.8205 20.8791C41.7133 21.1492 46.0797 22.2896 49.9209 20.354L49.7633 19.7913C49.5833 19.0336 49.3732 18.2908 49.1706 17.5406V17.4656C49.1706 17.4656 49.0881 17.4656 48.9456 17.5406C48.7805 17.6156 48.608 17.6381 48.4429 17.6906H48.3529C47.7677 17.8557 46.9349 18.0582 46.0572 18.1708C45.3219 18.2458 44.5717 18.2458 43.8214 18.1708C42.5986 17.9682 41.6683 17.3155 41.7133 15.77H50.3035V15.62L50.296 14.7797ZM46.3573 12.8966H41.6232C41.6232 11.9588 41.7658 11.081 42.5986 10.5484C43.4838 9.98568 44.4666 9.96317 45.3819 10.4658C46.3122 10.976 46.3798 11.8988 46.3573 12.8966ZM36.8142 20.1964C36.6267 19.5062 36.4091 18.816 36.199 18.1558L36.004 17.4205C36.004 17.4205 30.8798 19.8813 30.0846 15.2073C30.0095 14.4346 30.0096 13.6393 30.1596 12.8816C30.3622 11.4486 31.2324 10.6759 32.6279 10.5484C33.1005 10.4733 33.5882 10.5484 34.0533 10.6234C34.691 10.7284 35.3062 10.9235 36.004 11.096C36.244 10.3608 36.4916 9.62556 36.7242 8.89033C36.7992 8.77779 36.7992 8.67276 36.8142 8.59023L36.9268 8.14759C36.9268 8.07257 36.8292 8.02755 36.7317 7.96753C36.6116 7.87 36.4166 7.78748 36.1015 7.67494C35.9739 7.59992 35.8539 7.58491 35.7264 7.5474C35.6138 7.47238 35.5388 7.47238 35.5388 7.47238C34.1959 7.08976 32.8154 7.05975 31.4125 7.20229C28.4566 7.51739 26.4459 9.25795 25.8907 12.1389C25.5981 13.6543 25.6131 15.1923 25.9658 16.7078C26.4684 18.981 27.8489 20.459 30.0921 21.1117C31.555 21.5394 33.0555 21.5619 34.5485 21.3293C35.1787 21.2318 36.079 20.9092 36.7242 20.6766L36.9718 20.5866L36.8517 20.1964H36.8142ZM20.2489 9.09289C20.1739 9.01787 20.1439 8.98036 20.1064 8.93534L20.0014 8.83031C19.0186 7.82499 18.6434 7.57741 17.8707 7.35234C14.8997 6.47456 12.0038 8.03506 11.0885 11.021C10.5258 12.8591 10.5183 14.7497 10.8485 16.6103C11.5612 20.6391 14.5546 21.9895 17.7506 21.3218C18.7335 21.1192 19.4612 20.504 20.1364 19.6563C20.1364 19.6563 20.2114 19.5812 20.2715 19.4387V21.2092H24.3603V7.33733H20.2715V9.09289H20.2489ZM19.8888 16.0626C19.7538 17.3455 18.7185 18.1108 17.4881 18.0657C16.2352 17.9907 15.4024 17.3455 15.1323 16.1376C14.8097 14.4271 15.2073 12.3864 15.2223 12.2214C15.5524 11.0735 16.3852 10.5033 17.6156 10.5334C18.8235 10.5334 19.7463 11.2761 19.8888 12.5215C20.0089 13.6919 20.0089 14.8997 19.8888 16.0626ZM10.2558 7.32983H7.12727V5.25167C7.35234 3.28605 10.6009 3.66116 10.6009 3.66116V0.300095C10.4883 0.300095 4.14882 -1.23039 2.88842 3.59364C2.69336 4.19383 2.70086 6.96221 2.70836 7.30732H0V11.006H2.87341V21.0592H7.05975V11.006H10.2633L10.6234 7.30732H10.2633L10.2558 7.32983ZM75.9842 7.39735C74.4612 6.99222 72.9232 6.99222 71.4077 7.39735C69.1345 8.00505 67.6115 9.438 67.1164 11.7262C66.8463 12.9716 66.7938 14.2995 66.8688 15.5825C67.0338 18.5084 68.8419 20.5941 71.6553 21.2468H71.7753C71.8804 21.2468 71.9929 21.3218 72.0979 21.3218H72.2105C72.3455 21.3218 72.5106 21.3968 72.6831 21.3968C73.2308 21.4718 73.936 21.4943 74.5212 21.3968H74.6112C77.5147 21.2468 79.7129 19.4162 80.3581 16.6103C80.7107 15.0723 80.7107 13.5268 80.3581 11.9813C79.8104 9.56554 78.3474 8.00505 75.9392 7.35984L75.9842 7.39735ZM76.1642 15.86C76.1642 15.9501 76.1642 16.0401 76.0892 16.1301C75.7966 17.4205 74.8588 18.1183 73.6059 18.0657C72.263 17.9907 71.3402 17.218 71.2052 15.875C71.1114 14.8895 71.1114 13.8972 71.2052 12.9116C71.3327 11.3586 72.3005 10.5108 73.756 10.5409C74.9488 10.5409 75.8041 11.2386 76.1042 12.3939C76.3968 13.5418 76.1942 15.5975 76.1792 15.86H76.1642ZM60.4617 7.14227C58.8112 6.96221 57.3783 7.46487 56.1704 8.92034V0L51.789 0.532669V21.1717H56.1704V19.9488C56.7631 20.369 57.3332 20.8791 58.0085 21.1192C60.5593 22.0345 63.9203 21.2918 65.0982 17.8782C65.8559 15.6875 65.8334 13.4443 65.2633 11.2311C64.6406 8.77029 62.9975 7.41236 60.4617 7.14227ZM61.1219 16.0851C60.9269 17.4431 59.8465 18.1558 58.5636 18.0582C58.241 18.0582 57.9484 17.9682 57.6934 17.8632C56.658 17.2705 56.3429 16.2727 56.2529 15.6425C56.1779 14.6747 56.1028 12.649 56.5755 11.6962C56.9731 10.961 57.6784 10.5634 58.6011 10.5334C59.9216 10.4583 60.9194 11.141 61.1144 12.484C61.2795 13.6618 61.287 14.9072 61.1144 16.0851H61.1219Z" fill="#111111"/>
</svg>
