<svg width="111" height="36" viewBox="0 0 111 36" fill="none" xmlns="http://www.w3.org/2000/svg">
<path d="M14.169 27.9281C18.3241 27.9281 21.4553 26.5686 23.9063 24.0142C26.4295 21.4882 27.2129 17.9517 27.2129 15.0908C27.2129 14.2025 27.1448 13.3879 27.0085 12.7039H14.169V16.5184H23.2961C23.0237 18.6641 22.3056 20.2308 21.2202 21.3207C19.8897 22.6462 17.8144 24.1135 14.169 24.1135C8.55014 24.1135 4.15572 19.5837 4.15572 13.964C4.15572 8.34437 8.55014 3.81173 14.169 3.81173C17.1979 3.81173 19.4154 5.00662 21.0474 6.53926L23.7389 3.84863C21.4553 1.67171 18.4263 0 14.169 0C6.47029 0 0 6.26395 0 13.964C0 21.6613 6.47029 27.9281 14.169 27.9281ZM37.6036 27.9281C42.5733 27.9281 46.6263 24.1135 46.6263 18.9338C46.6263 13.7256 42.5733 9.94513 37.6036 9.94513C32.6254 9.94513 28.5724 13.7256 28.5724 18.9338C28.5724 24.1135 32.6254 27.9281 37.6036 27.9281ZM37.6036 24.386C34.8761 24.386 32.5232 22.1381 32.5232 18.9338C32.5232 15.701 34.8761 13.4901 37.6036 13.4901C40.3255 13.4901 42.6755 15.701 42.6755 18.9338C42.6755 22.1381 40.3255 24.386 37.6036 24.386ZM57.2867 27.9281C62.2592 27.9281 66.3122 24.1135 66.3122 18.9338C66.3122 13.7256 62.2592 9.94513 57.2867 9.94513C52.3113 9.94513 48.2583 13.7256 48.2583 18.9338C48.2583 24.1135 52.3113 27.9281 57.2867 27.9281ZM57.2867 24.386C54.562 24.386 52.2091 22.1381 52.2091 18.9338C52.2091 15.701 54.562 13.4901 57.2867 13.4901C60.0114 13.4901 62.3614 15.701 62.3614 18.9338C62.3614 22.1381 60.0114 24.386 57.2867 24.386ZM76.632 36C81.2611 36 85.1835 33.2781 85.1835 26.6339V10.4901H81.4343V11.9546H81.298C80.4097 10.8988 78.7067 9.94513 76.5667 9.94513C72.0681 9.94513 67.9499 13.8959 67.9499 18.9707C67.9499 24.0142 72.0681 27.9281 76.5667 27.9281C78.7067 27.9281 80.4097 26.9745 81.298 25.8846H81.4343V27.1788C81.4343 30.6216 79.5951 32.4579 76.632 32.4579C74.2167 32.4579 72.7152 30.7237 72.0993 29.2535L68.6623 30.6868C69.6528 33.0738 72.2725 36 76.632 36ZM76.9016 24.386C74.1798 24.386 71.895 22.1069 71.895 18.9707C71.895 15.8032 74.1798 13.4901 76.9016 13.4901C79.5951 13.4901 81.7067 15.8032 81.7067 18.9707C81.7067 22.1069 79.5951 24.386 76.9016 24.386ZM91.8562 0.953643H87.9054V27.3832H91.8562V0.953643ZM102.687 27.9281C106.805 27.9281 109.192 25.4106 110.18 23.9432L107.112 21.9026C106.093 23.3955 104.696 24.386 102.687 24.386C100.677 24.386 99.2441 23.4664 98.3273 21.6613L110.35 16.6859L109.941 15.667C109.192 13.6575 106.907 9.94513 102.244 9.94513C97.6121 9.94513 93.7635 13.5922 93.7635 18.9338C93.7635 23.9773 97.578 27.9281 102.687 27.9281ZM97.6802 18.6641C97.5781 15.193 100.371 13.4191 102.38 13.4191C103.947 13.4191 105.275 14.2025 105.721 15.3264L97.6802 18.6641Z" fill="#111111"/>
</svg>
