<svg width="110" height="30" viewBox="0 0 110 30" fill="none" xmlns="http://www.w3.org/2000/svg">
<path d="M93.9064 27.9598C95.4342 28.1081 96.9768 28.2713 98.5046 28.4345L101.872 20.0984L105.076 29.1909C106.722 29.3986 108.368 29.6063 110 29.8436L104.378 13.8835L110 0H105.239L105.194 0.074164L102.153 7.57955L99.4836 0.0148292H94.7816L99.6319 13.7945L93.9064 27.9598Z" fill="#111111"/>
<path d="M90.3465 27.6335V0H85.6445V27.233C87.2168 27.3665 88.7891 27.4852 90.3465 27.6335Z" fill="#111111"/>
<path d="M55.0445 26.076C56.3201 26.076 57.5809 26.0909 58.8417 26.0909V15.9453H64.493V11.6289H58.8417V4.33118H65.3385V0H54.1249V26.076C54.4364 26.0909 54.733 26.076 55.0445 26.076Z" fill="#111111"/>
<path d="M40.449 26.343C42.0213 26.2837 43.5787 26.2392 45.151 26.1947V4.33118H49.5415V0H36.0585V4.33118H40.449V26.343Z" fill="#111111"/>
<path d="M4.50917 29.2651V12.8007L10.0715 28.5976C11.7772 28.4048 13.4978 28.2268 15.2184 28.0488V0H10.7093V17.0429L4.702 0H4.50917H0V29.8436H0.0296674C1.51295 29.6508 3.01106 29.4431 4.50917 29.2651Z" fill="#111111"/>
<path d="M31.5197 4.33118V0H20.2913V23.2578V27.589C24.0143 27.2627 27.7522 26.9957 31.5049 26.7732V25.5272V22.442C29.3393 22.5607 27.1737 22.709 25.0081 22.8722V15.9601H30.6594V11.6289H25.0081V4.33118H31.5197Z" fill="#111111"/>
<path d="M74.6683 22.2344V0H69.9514V22.0267V26.3579C73.7041 26.4914 77.442 26.6842 81.1799 26.9363V25.5421V22.62C78.9994 22.4568 76.8339 22.3382 74.6683 22.2344Z" fill="#111111"/>
</svg>
