<svg width="65" height="74" viewBox="0 0 65 74" fill="none" xmlns="http://www.w3.org/2000/svg">
<path d="M5.9134 66.3507L0 0H65L59.0787 66.3401L32.4605 73.72L5.9134 66.3507Z" fill="#1572B6"/>
<path d="M32.5 68.0806L54.0105 62.1172L59.0708 5.42651H32.5V68.0806Z" fill="#33A9DC"/>
<path d="M32.5 29.4646H43.2684L44.0109 21.1316H32.5V12.9934H52.9046L52.7098 15.176L50.7115 37.6027H32.5V29.4646Z" fill="white"/>
<path d="M32.55 50.5987L32.5131 50.6092L23.4508 48.1606L22.8716 41.6707H14.7018L15.8419 54.4479L32.5105 59.0765L32.55 59.0659V50.5987Z" fill="#EBEBEB"/>
<path d="M42.5761 37.2573L41.5967 48.1547L32.5212 50.6033V59.0706L49.203 54.4473L49.3267 53.0729L50.7406 37.2573H42.5761Z" fill="white"/>
<path d="M32.5291 12.9934V21.1316H12.8722L12.709 19.3017L12.3377 15.176L12.1429 12.9934H32.5291Z" fill="#EBEBEB"/>
<path d="M32.4999 29.4641V37.6023H23.5508L23.3875 35.7724L23.0189 31.6468L22.8241 29.4641H32.4999Z" fill="#EBEBEB"/>
</svg>
