<svg width="65" height="84" viewBox="0 0 65 84" fill="none" xmlns="http://www.w3.org/2000/svg">
<path d="M29.515 0H43.2138V63.3878C36.1943 64.7226 31.0278 65.2565 25.4242 65.2565C8.7129 65.2565 0 57.7057 0 43.2007C0 29.2428 9.2416 20.1766 23.5555 20.1766C25.7775 20.1766 27.4683 20.3545 29.5124 20.8858L29.515 0ZM29.515 31.9124C28.0272 31.4079 26.4637 31.1636 24.8929 31.1901C17.9545 31.1901 13.9605 35.4562 13.9605 42.9416C13.9605 50.2333 17.7765 54.2299 24.8118 54.2299C26.3245 54.2299 27.5651 54.1488 29.515 53.8766V31.902V31.9124ZM65 21.1423V52.8899C65 63.8222 64.2096 69.0856 61.8095 73.6108C59.5875 77.9738 56.643 80.7272 50.605 83.7528L37.8877 77.699C43.9257 74.8488 46.8701 72.3702 48.7389 68.5386C50.6887 64.6257 51.3143 60.0874 51.3143 48.1735V21.1423H65ZM51.3143 0.0680491H65V14.1228H51.3143V0.0680491Z" fill="black"/>
</svg>
