<svg width="65" height="89" viewBox="0 0 65 89" fill="none" xmlns="http://www.w3.org/2000/svg">
<path d="M0 71.7495L0.540317 70.9961L26.0938 22.6943L26.1478 22.1829L14.8835 1.10486C13.9393 -0.660747 11.2823 -0.214274 10.9728 1.76228L0 71.7495Z" fill="#FFC24A"/>
<path d="M0.318909 71.175L0.727392 70.3811L26.0134 22.5854L14.7769 1.42169C13.8431 -0.325415 11.4716 0.120044 11.1652 2.0758L0.318909 71.175Z" fill="#FFA712"/>
<g filter="url(#filter0_i)">
<path d="M0.318909 71.175L0.727392 70.3811L26.0134 22.5854L14.7769 1.42169C13.8431 -0.325415 11.4716 0.120044 11.1652 2.0758L0.318909 71.175Z" fill="black"/>
</g>
<path d="M34.3597 38.1263L42.7469 29.5696L34.3571 13.6147C33.5608 12.1044 31.3371 12.0998 30.5492 13.6147L26.0666 22.1301V22.8552L34.3594 38.1263H34.3597Z" fill="#F4BD62"/>
<path d="M34.21 37.7698L42.3641 29.4508L34.21 13.9835C33.4358 12.5153 31.5547 12.3614 30.7887 13.8339L26.2826 22.4817L26.1477 22.9238L34.21 37.7698Z" fill="#FFA50E"/>
<g filter="url(#filter1_i)">
<path d="M34.21 37.7698L42.3641 29.4508L34.21 13.9835C33.4358 12.5153 31.5547 12.3614 30.7887 13.8339L26.2826 22.4817L26.1477 22.9238L34.21 37.7698Z" fill="black"/>
</g>
<path d="M0 71.7495L0.244835 71.5041L1.13459 71.1441L33.8328 38.6917L34.2472 37.5683L26.0902 22.084L0 71.7495Z" fill="#F6820C"/>
<path d="M35.4072 88.1158L65 71.6749L56.5493 19.8285C56.2849 18.2064 54.2873 17.5652 53.1216 18.7281L0 71.7494L29.423 88.1145C30.3375 88.6232 31.3675 88.8903 32.4149 88.8906C33.4624 88.8908 34.4925 88.6241 35.4072 88.1158Z" fill="#FDE068"/>
<path d="M64.7348 71.5369L56.3483 20.0842C56.0861 18.4743 54.4247 17.8082 53.268 18.9626L0.328308 71.6484L29.4283 87.8513C30.3359 88.3561 31.358 88.6212 32.3975 88.6215C33.4369 88.6217 34.4592 88.3571 35.367 87.8528L64.735 71.5366L64.7348 71.5369Z" fill="#FCCA3F"/>
<path d="M35.407 87.6313C34.4923 88.1395 33.4622 88.4062 32.4149 88.406C31.3675 88.4058 30.3376 88.1387 29.423 87.63L0.236996 71.5002L0.000305176 71.7494L29.423 88.1145C30.3376 88.6232 31.3676 88.8903 32.415 88.8906C33.4624 88.8908 34.4925 88.6241 35.4073 88.1158L65 71.6749L64.9275 71.2307L35.4073 87.6316L35.407 87.6313Z" fill="#EEAB37"/>
<defs>
<filter id="filter0_i" x="0.318909" y="0.329834" width="25.6945" height="70.8451" filterUnits="userSpaceOnUse" color-interpolation-filters="sRGB">
<feFlood flood-opacity="0" result="BackgroundImageFix"/>
<feBlend mode="normal" in="SourceGraphic" in2="BackgroundImageFix" result="shape"/>
<feColorMatrix in="SourceAlpha" type="matrix" values="0 0 0 0 0 0 0 0 0 0 0 0 0 0 0 0 0 0 127 0" result="hardAlpha"/>
<feOffset/>
<feGaussianBlur stdDeviation="17.5"/>
<feComposite in2="hardAlpha" operator="arithmetic" k2="-1" k3="1"/>
<feColorMatrix type="matrix" values="0 0 0 0 0 0 0 0 0 0 0 0 0 0 0 0 0 0 0.06 0"/>
<feBlend mode="normal" in2="shape" result="effect1_innerShadow"/>
</filter>
<filter id="filter1_i" x="26.1477" y="5.80298" width="17.2164" height="31.9668" filterUnits="userSpaceOnUse" color-interpolation-filters="sRGB">
<feFlood flood-opacity="0" result="BackgroundImageFix"/>
<feBlend mode="normal" in="SourceGraphic" in2="BackgroundImageFix" result="shape"/>
<feColorMatrix in="SourceAlpha" type="matrix" values="0 0 0 0 0 0 0 0 0 0 0 0 0 0 0 0 0 0 127 0" result="hardAlpha"/>
<feOffset dx="1" dy="-9"/>
<feGaussianBlur stdDeviation="3.5"/>
<feComposite in2="hardAlpha" operator="arithmetic" k2="-1" k3="1"/>
<feColorMatrix type="matrix" values="0 0 0 0 0 0 0 0 0 0 0 0 0 0 0 0 0 0 0.09 0"/>
<feBlend mode="normal" in2="shape" result="effect1_innerShadow"/>
</filter>
</defs>
</svg>
