<svg width="394" height="248" viewBox="0 0 394 248" fill="none" xmlns="http://www.w3.org/2000/svg">
<g clip-path="url(#clip0)">
<path d="M375.715 248H42.7027C39.7413 248 36.9012 246.822 34.8071 244.725C32.7131 242.627 31.5367 239.783 31.5367 236.817C152.253 222.766 270.701 222.766 386.881 236.817C386.881 239.783 385.704 242.627 383.61 244.725C381.516 246.822 378.676 248 375.715 248Z" fill="#CCCCCC"/>
<path d="M386.881 237.475L31.5367 236.817L72.7198 167.416L72.9169 167.088V14.1366C72.9167 12.2802 73.2817 10.4418 73.991 8.7266C74.7003 7.01139 75.74 5.45292 77.0508 4.14018C78.3615 2.82744 79.9176 1.78615 81.6302 1.07577C83.3428 0.36539 85.1784 -0.000162712 87.0321 -7.58004e-06H329.415C331.268 -0.000162712 333.104 0.36539 334.817 1.07577C336.529 1.78615 338.085 2.82744 339.396 4.14018C340.707 5.45292 341.747 7.01139 342.456 8.7266C343.165 10.4418 343.53 12.2802 343.53 14.1366V168.14L386.881 237.475Z" fill="#E6E6E6"/>
<path d="M86.7102 9.86736C85.4912 9.86873 84.3225 10.3543 83.4606 11.2176C82.5986 12.0808 82.1138 13.2513 82.1124 14.4721V153.931C82.1138 155.152 82.5987 156.322 83.4607 157.186C84.3226 158.049 85.4912 158.534 86.7102 158.536H331.707C332.926 158.534 334.095 158.049 334.957 157.185C335.818 156.322 336.303 155.152 336.305 153.931V14.4721C336.303 13.2513 335.819 12.0809 334.957 11.2176C334.095 10.3544 332.926 9.86879 331.707 9.86736H86.7102Z" fill="white"/>
<path d="M88.3204 176.955C87.9437 176.956 87.5751 177.064 87.2579 177.268C86.9407 177.471 86.6882 177.761 86.5301 178.104L73.8404 205.732C73.7022 206.033 73.6418 206.363 73.6646 206.694C73.6875 207.024 73.7929 207.343 73.9712 207.622C74.1494 207.9 74.3948 208.13 74.6847 208.288C74.9747 208.447 75.2998 208.531 75.6303 208.531H342.49C342.826 208.531 343.156 208.445 343.45 208.281C343.743 208.117 343.99 207.881 344.166 207.594C344.343 207.308 344.443 206.982 344.458 206.646C344.473 206.31 344.402 205.975 344.252 205.674L330.459 178.046C330.296 177.717 330.045 177.441 329.733 177.248C329.422 177.055 329.063 176.954 328.697 176.955L88.3204 176.955Z" fill="#CCCCCC"/>
<path d="M208.223 7.56501C209.856 7.56501 211.179 6.23968 211.179 4.6048C211.179 2.96992 209.856 1.64458 208.223 1.64458C206.591 1.64458 205.268 2.96992 205.268 4.6048C205.268 6.23968 206.591 7.56501 208.223 7.56501Z" fill="white"/>
<path d="M181.993 213.793C181.56 213.794 181.139 213.937 180.795 214.201C180.452 214.465 180.204 214.835 180.091 215.253L176.908 227.094C176.829 227.387 176.819 227.693 176.877 227.991C176.936 228.288 177.062 228.567 177.246 228.808C177.43 229.048 177.667 229.243 177.938 229.377C178.209 229.511 178.508 229.581 178.81 229.581H239.346C239.66 229.581 239.969 229.506 240.249 229.362C240.528 229.217 240.769 229.008 240.951 228.752C241.133 228.496 241.251 228.2 241.296 227.888C241.34 227.577 241.31 227.259 241.207 226.962L237.115 215.121C236.981 214.733 236.729 214.397 236.396 214.159C236.062 213.921 235.662 213.793 235.253 213.793H181.993Z" fill="#CCCCCC"/>
<path d="M343.53 164.785V167.417H72.7198L72.9234 167.087V164.785H343.53Z" fill="#CCCCCC"/>
<path d="M310.104 170.813C309.998 170.813 309.896 170.848 309.812 170.912C309.728 170.976 309.668 171.066 309.64 171.168L308.865 174.052C308.846 174.123 308.844 174.198 308.858 174.27C308.872 174.342 308.903 174.41 308.948 174.469C308.993 174.528 309.05 174.575 309.116 174.608C309.182 174.64 309.255 174.657 309.329 174.657H324.07C324.146 174.657 324.222 174.639 324.29 174.604C324.358 174.569 324.416 174.518 324.461 174.455C324.505 174.393 324.534 174.321 324.545 174.245C324.556 174.169 324.548 174.092 324.523 174.02L323.527 171.136C323.494 171.042 323.433 170.96 323.352 170.902C323.27 170.844 323.173 170.813 323.073 170.813H310.104Z" fill="#CCCCCC"/>
<path d="M288.58 170.813C288.474 170.813 288.372 170.848 288.288 170.912C288.204 170.976 288.144 171.066 288.116 171.168L287.341 174.052C287.322 174.123 287.319 174.198 287.334 174.27C287.348 174.342 287.379 174.41 287.424 174.469C287.468 174.528 287.526 174.575 287.592 174.608C287.658 174.64 287.731 174.657 287.804 174.657H302.546C302.622 174.657 302.698 174.639 302.766 174.604C302.834 174.569 302.892 174.518 302.937 174.455C302.981 174.393 303.01 174.321 303.021 174.245C303.032 174.169 303.024 174.092 302.999 174.02L302.003 171.136C301.97 171.042 301.909 170.96 301.827 170.902C301.746 170.844 301.649 170.813 301.549 170.813H288.58Z" fill="#CCCCCC"/>
<path d="M226.22 189.134H227.375L225.064 34.4691H223.909L223.955 37.5547H198.06L198.106 34.4691H196.951L194.64 189.134H195.796L195.945 179.106H226.07L226.22 189.134ZM224.554 77.6673H197.461L197.743 58.7681H224.272L224.554 77.6673ZM224.572 78.8244L224.854 97.7236H197.161L197.444 78.8244H224.572ZM224.871 98.8807L225.154 117.78H196.862L197.144 98.8807H224.871ZM225.171 118.937L225.453 137.836H196.562L196.844 118.937H225.171ZM225.471 138.993L225.753 157.893H196.262L196.545 138.993H225.471ZM223.972 38.7118L224.255 57.611H197.761L198.043 38.7118H223.972ZM195.963 177.949L196.245 159.05H225.77L226.052 177.949H195.963Z" fill="#3F3D56"/>
<path d="M205.284 87.7407C215.689 87.7407 224.123 79.2934 224.123 68.873C224.123 58.4526 215.689 50.0052 205.284 50.0052C194.88 50.0052 186.445 58.4526 186.445 68.873C186.445 79.2934 194.88 87.7407 205.284 87.7407Z" fill="#2F2E41"/>
<path d="M216.366 81.9122L210.734 82.9333L212.56 93.0388L218.192 92.0178L216.366 81.9122Z" fill="#2F2E41"/>
<path d="M205.102 83.9543L199.47 84.9754L201.297 95.0809L206.929 94.0599L205.102 83.9543Z" fill="#2F2E41"/>
<path d="M204.287 97.2077C206.297 95.5028 207.409 93.5087 206.77 92.7537C206.132 91.9988 203.985 92.7689 201.975 94.4738C199.965 96.1787 198.853 98.1728 199.491 98.9277C200.129 99.6827 202.276 98.9126 204.287 97.2077Z" fill="#2F2E41"/>
<path d="M215.315 95.2081C217.326 93.5032 218.438 91.5091 217.799 90.7541C217.161 89.9992 215.014 90.7693 213.004 92.4742C210.994 94.1791 209.882 96.1732 210.52 96.9282C211.158 97.6831 213.305 96.913 215.315 95.2081Z" fill="#2F2E41"/>
<path d="M203.965 70.7063C207.521 70.7063 210.404 67.8192 210.404 64.2578C210.404 60.6964 207.521 57.8094 203.965 57.8094C200.409 57.8094 197.527 60.6964 197.527 64.2578C197.527 67.8192 200.409 70.7063 203.965 70.7063Z" fill="white"/>
<path d="M201.319 64.0959C202.504 64.0959 203.465 63.1335 203.465 61.9464C203.465 60.7593 202.504 59.7969 201.319 59.7969C200.134 59.7969 199.173 60.7593 199.173 61.9464C199.173 63.1335 200.134 64.0959 201.319 64.0959Z" fill="#3F3D56"/>
<path d="M220.146 48.3469C220.429 41.3617 214.418 35.4453 206.72 35.1321C199.021 34.8189 192.551 40.2276 192.268 47.2127C191.984 54.1979 197.336 55.7849 205.034 56.0981C212.732 56.4113 219.862 55.332 220.146 48.3469Z" fill="#47B2E4"/>
<path d="M197.07 67.5433C197.435 65.949 193.62 63.7129 188.55 62.5489C183.479 61.3848 179.072 61.7336 178.707 63.3279C178.342 64.9222 182.157 67.1582 187.228 68.3223C192.299 69.4864 196.705 69.1376 197.07 67.5433Z" fill="#2F2E41"/>
<path d="M234.051 73.7025C234.416 72.1082 230.601 69.8721 225.53 68.7081C220.459 67.544 216.053 67.8927 215.688 69.487C215.323 71.0813 219.138 73.3174 224.209 74.4815C229.28 75.6456 233.686 75.2968 234.051 73.7025Z" fill="#2F2E41"/>
<path d="M210.458 76.3086C210.56 76.8642 210.551 77.4344 210.432 77.9866C210.314 78.5389 210.087 79.0622 209.767 79.5269C209.446 79.9915 209.037 80.3882 208.563 80.6945C208.089 81.0007 207.56 81.2104 207.005 81.3116C206.45 81.4127 205.881 81.4034 205.329 81.2841C204.778 81.1648 204.256 80.9378 203.792 80.6162C203.328 80.2946 202.932 79.8846 202.627 79.4097C202.322 78.9348 202.113 78.4043 202.012 77.8485L202.011 77.8402C201.588 75.5039 203.392 74.6771 205.725 74.2542C208.058 73.8313 210.036 73.9723 210.458 76.3086Z" fill="white"/>
<path d="M141.477 132.955C143.381 127.966 143.657 123.436 142.093 122.838C140.529 122.239 137.718 125.798 135.814 130.787C133.91 135.776 133.634 140.306 135.198 140.905C136.761 141.503 139.573 137.944 141.477 132.955Z" fill="#2F2E41"/>
<path d="M139.858 149.575C141.566 139.031 134.417 129.096 123.888 127.385C113.36 125.674 103.44 132.834 101.732 143.379C100.023 153.923 107.173 163.858 117.701 165.569C128.23 167.28 138.149 160.119 139.858 149.575Z" fill="#2F2E41"/>
<path d="M117.861 161.656H111.994V172.184H117.861V161.656Z" fill="#2F2E41"/>
<path d="M129.595 161.656H123.728V172.184H129.595V161.656Z" fill="#2F2E41"/>
<path d="M116.884 174.143C119.584 174.143 121.773 173.32 121.773 172.306C121.773 171.292 119.584 170.47 116.884 170.47C114.183 170.47 111.994 171.292 111.994 172.306C111.994 173.32 114.183 174.143 116.884 174.143Z" fill="#2F2E41"/>
<path d="M128.618 173.898C131.318 173.898 133.507 173.076 133.507 172.061C133.507 171.047 131.318 170.225 128.618 170.225C125.917 170.225 123.728 171.047 123.728 172.061C123.728 173.076 125.917 173.898 128.618 173.898Z" fill="#2F2E41"/>
<path d="M102.061 128.49C100.502 121.495 105.487 114.428 113.195 112.704C120.903 110.98 128.416 115.253 129.976 122.247C131.535 129.241 126.426 131.821 118.718 133.545C111.01 135.269 103.621 135.484 102.061 128.49Z" fill="#47B2E4"/>
<path d="M107.767 141.646C108.485 140.131 105.16 137.048 100.342 134.759C95.5234 132.47 91.0357 131.843 90.3182 133.358C89.6008 134.873 92.9254 137.956 97.7438 140.245C102.562 142.534 107.05 143.161 107.767 141.646Z" fill="#2F2E41"/>
<path d="M37.1744 185.403C47.8402 185.403 56.4866 176.743 56.4866 166.061C56.4866 155.379 47.8402 146.719 37.1744 146.719C26.5085 146.719 17.8621 155.379 17.8621 166.061C17.8621 176.743 26.5085 185.403 37.1744 185.403Z" fill="#2F2E41"/>
<path d="M34.2409 181.24H28.3738V191.768H34.2409V181.24Z" fill="#2F2E41"/>
<path d="M45.9749 181.24H40.1079V191.768H45.9749V181.24Z" fill="#2F2E41"/>
<path d="M33.263 193.727C35.9632 193.727 38.1522 192.905 38.1522 191.89C38.1522 190.876 35.9632 190.054 33.263 190.054C30.5628 190.054 28.3738 190.876 28.3738 191.89C28.3738 192.905 30.5628 193.727 33.263 193.727Z" fill="#2F2E41"/>
<path d="M44.9971 193.482C47.6973 193.482 49.8863 192.66 49.8863 191.646C49.8863 190.632 47.6973 189.809 44.9971 189.809C42.2969 189.809 40.1079 190.632 40.1079 191.646C40.1079 192.66 42.2969 193.482 44.9971 193.482Z" fill="#2F2E41"/>
<path d="M37.6633 167.775C41.3086 167.775 44.2637 164.815 44.2637 161.164C44.2637 157.513 41.3086 154.554 37.6633 154.554C34.018 154.554 31.0629 157.513 31.0629 161.164C31.0629 164.815 34.018 167.775 37.6633 167.775Z" fill="white"/>
<path d="M37.6633 163.368C38.8784 163.368 39.8635 162.381 39.8635 161.164C39.8635 159.947 38.8784 158.961 37.6633 158.961C36.4482 158.961 35.4632 159.947 35.4632 161.164C35.4632 162.381 36.4482 163.368 37.6633 163.368Z" fill="#3F3D56"/>
<path d="M18.4408 148.074C16.8815 141.08 21.8662 134.012 29.5745 132.288C37.2828 130.565 44.7958 134.837 46.3551 141.831C47.9145 148.826 42.8059 151.405 35.0976 153.129C27.3893 154.853 20.0002 155.068 18.4408 148.074Z" fill="#E6E6E6"/>
<path d="M51.2559 96.9628C53.1599 91.9738 53.4357 87.4441 51.8719 86.8454C50.308 86.2468 47.4968 89.8059 45.5928 94.7949C43.6888 99.784 43.413 104.314 44.9768 104.912C46.5407 105.511 49.3519 101.952 51.2559 96.9628Z" fill="#2F2E41"/>
<path d="M49.6369 113.583C51.3454 103.039 44.1956 93.1038 33.6675 91.3927C23.1393 89.6816 13.2196 96.8422 11.5111 107.386C9.8026 117.93 16.9524 127.865 27.4805 129.576C38.0086 131.287 47.9284 124.127 49.6369 113.583Z" fill="#2F2E41"/>
<path d="M27.6404 125.664H21.7734V136.192H27.6404V125.664Z" fill="#2F2E41"/>
<path d="M39.3745 125.664H33.5074V136.192H39.3745V125.664Z" fill="#2F2E41"/>
<path d="M26.6626 138.15C29.3629 138.15 31.5518 137.328 31.5518 136.314C31.5518 135.3 29.3629 134.478 26.6626 134.478C23.9624 134.478 21.7734 135.3 21.7734 136.314C21.7734 137.328 23.9624 138.15 26.6626 138.15Z" fill="#2F2E41"/>
<path d="M38.3966 137.905C41.0969 137.905 43.2858 137.083 43.2858 136.069C43.2858 135.055 41.0969 134.233 38.3966 134.233C35.6964 134.233 33.5074 135.055 33.5074 136.069C33.5074 137.083 35.6964 137.905 38.3966 137.905Z" fill="#2F2E41"/>
<path d="M31.0629 112.198C34.7082 112.198 37.6633 109.239 37.6633 105.588C37.6633 101.937 34.7082 98.9775 31.0629 98.9775C27.4176 98.9775 24.4625 101.937 24.4625 105.588C24.4625 109.239 27.4176 112.198 31.0629 112.198Z" fill="white"/>
<path d="M31.0629 107.791C32.278 107.791 33.2631 106.805 33.2631 105.588C33.2631 104.371 32.278 103.384 31.0629 103.384C29.8478 103.384 28.8628 104.371 28.8628 105.588C28.8628 106.805 29.8478 107.791 31.0629 107.791Z" fill="#3F3D56"/>
<path d="M11.8404 92.4974C10.2811 85.5032 15.2658 78.4358 22.9741 76.712C30.6824 74.9882 38.1954 79.2607 39.7547 86.2549C41.3141 93.2491 36.2055 95.8286 28.4972 97.5525C20.7889 99.2763 13.3998 99.4916 11.8404 92.4974Z" fill="#47B2E4"/>
<path d="M17.5465 105.654C18.2639 104.139 14.9394 101.056 10.1209 98.7669C5.30249 96.4781 0.814763 95.8508 0.0973322 97.3658C-0.620098 98.8807 2.70445 101.964 7.5229 104.253C12.3414 106.542 16.8291 107.169 17.5465 105.654Z" fill="#2F2E41"/>
<path d="M21.0878 117.462C21.0878 119.355 25.9547 123.093 31.3551 123.093C36.7556 123.093 41.8191 117.764 41.8191 115.871C41.8191 113.978 36.7555 116.238 31.3551 116.238C25.9547 116.238 21.0878 115.569 21.0878 117.462Z" fill="white"/>
<path d="M49.5611 36.6325C49.2044 36.6329 48.8625 36.775 48.6103 37.0276C48.3581 37.2802 48.2162 37.6226 48.2158 37.9798V93.6683C48.2162 94.0255 48.3581 94.368 48.6103 94.6206C48.8625 94.8732 49.2044 95.0152 49.5611 95.0156H178.258C178.614 95.0152 178.956 94.8732 179.208 94.6206C179.461 94.368 179.603 94.0255 179.603 93.6683V37.9798C179.603 37.6226 179.461 37.2802 179.208 37.0276C178.956 36.775 178.614 36.6329 178.258 36.6325H49.5611Z" fill="#47B2E4"/>
<path d="M84.3111 78.9024C91.5231 78.9024 97.3696 73.047 97.3696 65.8241C97.3696 58.6011 91.5231 52.7458 84.3111 52.7458C77.0991 52.7458 71.2526 58.6011 71.2526 65.8241C71.2526 73.047 77.0991 78.9024 84.3111 78.9024Z" fill="white"/>
<path d="M113.784 64.084C113.383 64.0906 113.001 64.2546 112.72 64.5407C112.439 64.8267 112.282 65.2119 112.282 65.6131C112.282 66.0144 112.439 66.3996 112.72 66.6856C113.001 66.9716 113.383 67.1356 113.784 67.1422H155.014C155.215 67.1457 155.414 67.1095 155.601 67.0358C155.787 66.9621 155.957 66.8522 156.102 66.7126C156.246 66.5729 156.361 66.4061 156.441 66.2218C156.521 66.0375 156.564 65.8392 156.567 65.6383C156.57 65.4373 156.534 65.2378 156.46 65.0509C156.387 64.864 156.277 64.6936 156.137 64.5492C155.998 64.4049 155.831 64.2895 155.647 64.2097C155.463 64.1299 155.265 64.0872 155.064 64.084C155.047 64.0837 155.031 64.0837 155.014 64.084H113.784Z" fill="white"/>
<path d="M113.784 55.2246C113.383 55.2312 113.001 55.3952 112.72 55.6812C112.439 55.9673 112.282 56.3524 112.282 56.7537C112.282 57.1549 112.439 57.5401 112.72 57.8261C113.001 58.1122 113.383 58.2762 113.784 58.2828H134.373C134.574 58.2862 134.773 58.2501 134.96 58.1764C135.146 58.1026 135.317 57.9928 135.461 57.8531C135.605 57.7135 135.721 57.5467 135.8 57.3623C135.88 57.178 135.923 56.9797 135.926 56.7788C135.93 56.5779 135.893 56.3783 135.82 56.1914C135.746 56.0046 135.636 55.8341 135.496 55.6898C135.357 55.5454 135.19 55.43 135.006 55.3502C134.822 55.2704 134.624 55.2277 134.423 55.2246C134.407 55.2243 134.39 55.2243 134.373 55.2246H113.784Z" fill="white"/>
<path d="M113.784 73.3655C113.383 73.3721 113.001 73.5361 112.72 73.8221C112.439 74.1081 112.282 74.4933 112.282 74.8946C112.282 75.2958 112.439 75.681 112.72 75.9671C113.001 76.2531 113.383 76.4171 113.784 76.4237H155.014C155.215 76.4272 155.414 76.391 155.601 76.3173C155.787 76.2435 155.957 76.1337 156.102 75.994C156.246 75.8544 156.361 75.6876 156.441 75.5033C156.521 75.3189 156.564 75.1206 156.567 74.9197C156.57 74.7188 156.534 74.5192 156.46 74.3323C156.387 74.1455 156.277 73.975 156.137 73.8307C155.998 73.6863 155.831 73.5709 155.647 73.4911C155.463 73.4113 155.265 73.3686 155.064 73.3655C155.047 73.3652 155.031 73.3652 155.014 73.3655H113.784Z" fill="white"/>
<path d="M314.024 176.373C315.588 175.774 315.313 171.245 313.409 166.256C311.505 161.267 308.693 157.707 307.129 158.306C305.566 158.905 305.841 163.434 307.745 168.423C309.649 173.412 312.461 176.972 314.024 176.373Z" fill="#2F2E41"/>
<path d="M327.485 205.079C338.013 203.368 345.163 193.433 343.454 182.889C341.746 172.345 331.826 165.184 321.298 166.895C310.77 168.606 303.62 178.541 305.329 189.085C307.037 199.629 316.957 206.79 327.485 205.079Z" fill="#2F2E41"/>
<path d="M333.192 201.167H327.325L328.473 213.774L333.202 212.488L333.192 201.167Z" fill="#2F2E41"/>
<path d="M320.402 201.199H314.534L315.682 213.807L320.198 212.488L320.402 201.199Z" fill="#2F2E41"/>
<path d="M315.516 214.399C318.209 214.202 320.332 213.222 320.258 212.211C320.184 211.2 317.941 210.539 315.248 210.737C312.555 210.934 310.432 211.914 310.506 212.925C310.58 213.936 312.823 214.597 315.516 214.399Z" fill="#2F2E41"/>
<path d="M323.903 187.701C327.548 187.701 330.503 184.741 330.503 181.09C330.503 177.44 327.548 174.48 323.903 174.48C320.257 174.48 317.302 177.44 317.302 181.09C317.302 184.741 320.257 187.701 323.903 187.701Z" fill="white"/>
<path d="M323.903 183.294C325.118 183.294 326.103 182.307 326.103 181.09C326.103 179.873 325.118 178.887 323.903 178.887C322.687 178.887 321.702 179.873 321.702 181.09C321.702 182.307 322.687 183.294 323.903 183.294Z" fill="#3F3D56"/>
<path d="M347.237 174.325C350.405 170.029 351.882 165.739 350.535 164.743C349.189 163.746 345.528 166.422 342.36 170.718C339.192 175.014 337.715 179.304 339.061 180.3C340.408 181.297 344.068 178.621 347.237 174.325Z" fill="#2F2E41"/>
<path d="M314.969 195.96C314.969 194.4 318.98 191.319 323.431 191.319C327.882 191.319 332.055 195.711 332.055 197.272C332.055 198.832 327.882 196.969 323.431 196.969C318.98 196.969 314.969 197.52 314.969 195.96Z" fill="white"/>
<path d="M378.546 170.003L272.833 155.326C272.009 155.211 271.264 154.773 270.762 154.108C270.26 153.443 270.041 152.606 270.155 151.781L282.039 65.9253C282.154 65.0998 282.591 64.3539 283.255 63.851C283.919 63.3482 284.754 63.1295 285.579 63.243L391.292 77.9201C392.116 78.0355 392.861 78.4736 393.363 79.1383C393.865 79.803 394.083 80.64 393.97 81.4657L382.086 167.321C381.971 168.147 381.533 168.892 380.87 169.395C380.206 169.898 379.37 170.117 378.546 170.003Z" fill="#47B2E4"/>
<path d="M340.675 143.209L286.705 135.716C286.638 135.707 286.571 135.693 286.506 135.672L318.16 94.9357C318.354 94.6816 318.612 94.4835 318.907 94.3618C319.203 94.2402 319.525 94.1992 319.841 94.2431C320.158 94.2871 320.457 94.4143 320.708 94.6119C320.959 94.8094 321.154 95.0702 321.271 95.3676L334.288 127.461L334.912 128.997L340.675 143.209Z" fill="white"/>
<path opacity="0.2" d="M340.675 143.209L322.248 140.651L333.115 128.748L333.898 127.89L334.289 127.462L334.912 128.997L340.675 143.209Z" fill="black"/>
<path d="M370.725 147.381L324.045 140.9L334.912 128.997L335.695 128.14L349.855 112.628C350.1 112.395 350.391 112.216 350.709 112.103C351.027 111.99 351.366 111.945 351.702 111.971C352.039 111.997 352.366 112.094 352.663 112.256C352.96 112.417 353.219 112.639 353.425 112.907C353.477 112.983 353.524 113.061 353.565 113.143L370.725 147.381Z" fill="white"/>
<path d="M341.331 108.765C345.789 108.765 349.403 105.146 349.403 100.681C349.403 96.2164 345.789 92.5971 341.331 92.5971C336.873 92.5971 333.26 96.2164 333.26 100.681C333.26 105.146 336.873 108.765 341.331 108.765Z" fill="white"/>
<path d="M297.154 71.1996L287.382 69.8429L286.027 79.6296L295.799 80.9863L297.154 71.1996Z" fill="#3F3D56"/>
<path d="M343.125 168C344.684 161.006 339.7 153.938 331.991 152.215C324.283 150.491 316.77 154.763 315.211 161.757C313.651 168.752 318.76 171.331 326.468 173.055C334.177 174.779 341.566 174.994 343.125 168Z" fill="#F2F2F2"/>
<path d="M328.382 214.368C331.075 214.171 333.198 213.191 333.124 212.18C333.051 211.168 330.808 210.508 328.115 210.706C325.422 210.903 323.298 211.883 323.372 212.894C323.446 213.905 325.689 214.565 328.382 214.368Z" fill="#2F2E41"/>
</g>
<defs>
<clipPath id="clip0">
<rect width="394" height="248" fill="white"/>
</clipPath>
</defs>
</svg>
