<svg width="65" height="74" viewBox="0 0 65 74" fill="none" xmlns="http://www.w3.org/2000/svg">
<path d="M5.91555 66.3453L0 0H65L59.0765 66.3348L32.4605 73.7141L5.91555 66.3453Z" fill="#E44F26"/>
<path d="M32.4999 68.0751L54.0086 62.1121L59.0686 5.42603H32.4999V68.0751Z" fill="#F1662A"/>
<path d="M32.4999 30.0304H21.7324L20.99 21.6981H32.4999V13.5605H12.0969L12.2917 15.7456L14.2899 38.1679H32.4999V30.0304Z" fill="#EBEBEB"/>
<path d="M32.4998 51.1627L32.4629 51.1732L23.4014 48.7275L22.8222 42.238H14.6531L15.793 55.0116L32.4629 59.6398L32.4998 59.6293V51.1627Z" fill="#EBEBEB"/>
<path d="M32.471 30.0312V38.1688H42.4909L41.5484 48.723L32.471 51.1714V59.638L49.1541 55.0124L49.2752 53.6382L51.1865 32.2163L51.3866 30.0312H32.471Z" fill="white"/>
<path d="M32.471 13.5605V21.6981H52.1263L52.2896 19.871L52.6608 15.7456L52.8556 13.5605H32.471Z" fill="white"/>
</svg>
