<svg width="65" height="65" viewBox="0 0 65 65" fill="none" xmlns="http://www.w3.org/2000/svg">
<path d="M0 0H65V65H0V0Z" fill="#F5DE19"/>
<path d="M43.6639 50.781C44.2177 51.906 45.0781 52.8516 46.146 53.5087C47.2139 54.1659 48.4458 54.5079 49.6996 54.4953C52.23 54.4953 53.848 53.2301 53.848 51.4775C53.848 49.3882 52.1859 48.6407 49.4001 47.4219L47.8726 46.7673C43.4619 44.8893 40.5369 42.5376 40.5369 37.5651C40.5369 32.985 44.0191 29.4959 49.4814 29.4959C51.2496 29.3682 53.0163 29.7639 54.5611 30.6337C56.1059 31.5036 57.3604 32.809 58.1682 34.3871L53.393 37.4398C53.082 36.6573 52.5404 35.9878 51.8402 35.5202C51.1399 35.0525 50.3141 34.8087 49.4721 34.8212C49.1048 34.7844 48.7338 34.8246 48.3828 34.9391C48.0319 35.0536 47.7086 35.24 47.4336 35.4864C47.1587 35.7327 46.938 36.0336 46.7858 36.37C46.6336 36.7063 46.5531 37.0706 46.5494 37.4398C46.5494 39.2714 47.6846 40.0143 50.3055 41.1541L51.833 41.8087C57.0237 44.035 59.958 46.303 59.958 51.4032C59.958 56.9026 55.6378 59.9159 49.8366 59.9159C47.5762 60.0599 45.3224 59.5467 43.3473 58.4382C41.3721 57.3297 39.76 55.6733 38.7053 53.6689L43.6639 50.781ZM22.0862 51.3103C23.045 53.0119 23.9178 54.4512 26.0164 54.4512C28.0221 54.4512 29.2896 53.6666 29.2896 50.6139V29.8441H35.3973V50.6951C35.3973 57.0187 31.683 59.8973 26.2764 59.8973C24.3653 60.0018 22.4673 59.5255 20.8319 58.5311C19.1965 57.5367 17.9003 56.0707 17.1137 54.3259L22.0862 51.3103Z" fill="black"/>
</svg>
