<svg width="65" height="89" viewBox="0 0 65 89" fill="none" xmlns="http://www.w3.org/2000/svg">
<path d="M20.934 68.1584C20.934 68.1584 17.5662 70.1169 23.3309 70.7796C30.3148 71.5763 33.884 71.4622 41.5804 70.0054C41.5804 70.0054 43.6039 71.2742 46.4295 72.3732C29.1767 79.7675 7.38259 71.9448 20.934 68.1584Z" fill="#5382A1"/>
<path d="M18.8257 58.5093C18.8257 58.5093 15.0484 61.3055 20.8174 61.9021C28.2777 62.6717 34.1693 62.7347 44.3641 60.7717C44.3641 60.7717 45.7742 62.2012 47.9914 62.983C27.1315 69.0828 3.89739 63.464 18.8257 58.5093Z" fill="#5382A1"/>
<path d="M36.5989 42.141C40.8501 47.0352 35.482 51.4396 35.482 51.4396C35.482 51.4396 46.2762 45.8673 41.3189 38.8892C36.6889 32.3822 33.1382 29.1486 52.3599 18.001C52.3599 18.001 22.1883 25.5363 36.5989 42.1407" fill="#E76F00"/>
<path d="M59.4172 75.2955C59.4172 75.2955 61.9095 77.3489 56.6723 78.9376C46.7137 81.9546 15.2234 82.8656 6.47542 79.0578C3.33087 77.6901 9.22801 75.7915 11.0829 75.393C13.0174 74.9734 14.1231 75.0518 14.1231 75.0518C10.6259 72.5881 -8.48126 79.8892 4.41767 81.9798C39.5946 87.6846 68.5416 79.4112 59.4172 75.2955Z" fill="#5382A1"/>
<path d="M22.5534 48.5117C22.5534 48.5117 6.53567 52.3163 16.8813 53.6976C21.2494 54.2825 29.9573 54.1503 38.0686 53.4705C44.6976 52.9117 51.3539 51.7226 51.3539 51.7226C51.3539 51.7226 49.0165 52.7236 47.3254 53.8783C31.0594 58.1563 -0.363541 56.1662 8.68273 51.7902C16.3332 48.0922 22.5536 48.5117 22.5536 48.5117" fill="#5382A1"/>
<path d="M51.2879 64.5732C67.8233 55.9809 60.178 47.7239 54.8417 48.8364C53.5337 49.1085 52.9506 49.3442 52.9506 49.3442C52.9506 49.3442 53.4362 48.5838 54.3635 48.2546C64.9202 44.5431 73.0391 59.201 50.9556 65.0062C50.9556 65.0065 51.2116 64.7778 51.2879 64.5732Z" fill="#5382A1"/>
<path d="M41.3188 0.000255174C41.3188 0.000255174 50.4764 9.1611 32.6334 23.2471C18.3254 34.5469 29.3707 40.9896 32.6275 48.3506C24.2756 40.8153 18.1462 34.1817 22.2584 28.0079C28.2936 18.9448 45.0135 14.5509 41.3188 0" fill="#E76F00"/>
<path d="M24.1783 87.856C40.0501 88.8721 64.4228 87.2923 65 79.7822C65 79.7822 63.8905 82.6295 51.8829 84.8904C38.3361 87.4396 21.6281 87.142 11.7183 85.5081C11.7186 85.5081 13.747 87.1872 24.1786 87.856" fill="#5382A1"/>
</svg>
