<svg width="63" height="65" viewBox="0 0 63 65" fill="none" xmlns="http://www.w3.org/2000/svg">
<path d="M62.9646 14.6792C62.9879 14.7656 63 14.8547 63 14.9444V28.8721C63 29.236 62.8056 29.5721 62.4898 29.753L50.8061 36.4837V49.8235C50.8061 50.002 50.7592 50.1774 50.6702 50.332C50.5811 50.4867 50.453 50.6152 50.2986 50.7047L25.9088 64.7518C25.8529 64.7834 25.7921 64.8035 25.7311 64.8255C25.7082 64.8328 25.6868 64.8469 25.6627 64.8533C25.4921 64.8982 25.3129 64.8982 25.1424 64.8533C25.1144 64.8459 25.089 64.8304 25.0624 64.8203C25.0066 64.7999 24.9482 64.7821 24.8951 64.7518L0.510152 50.7045C0.355197 50.6155 0.226441 50.4872 0.136873 50.3325C0.0473042 50.1778 9.23745e-05 50.0023 0 49.8235L0 8.04033C0 7.94874 0.0127969 7.85986 0.0354375 7.77368C0.0430664 7.74438 0.0607852 7.71779 0.0711211 7.68849C0.0900703 7.63531 0.108035 7.58065 0.135844 7.53116C0.154793 7.49817 0.182602 7.47158 0.205488 7.44105C0.234773 7.40042 0.261352 7.35857 0.295559 7.32287C0.324844 7.29381 0.362988 7.27215 0.395965 7.24679C0.432879 7.21626 0.465609 7.18326 0.507445 7.15914H0.508676L12.7016 0.135688C12.856 0.0467888 13.0311 0 13.2092 0C13.3873 0 13.5624 0.0467888 13.7168 0.135688L25.9097 7.15914H25.9122C25.9528 7.18474 25.9873 7.21626 26.0239 7.24556C26.0569 7.27092 26.0938 7.29381 26.1229 7.32188C26.1585 7.35857 26.1839 7.40067 26.2142 7.44105C26.2358 7.47158 26.2651 7.49817 26.2828 7.53116C26.3119 7.58188 26.3283 7.63531 26.3488 7.68874C26.3589 7.71779 26.3766 7.74438 26.3842 7.77491C26.4076 7.86133 26.4196 7.95071 26.4199 8.04033V34.1373L36.5801 28.2841V14.9431C36.5801 14.8545 36.5929 14.7641 36.6158 14.6792C36.6247 14.6487 36.6411 14.6221 36.6512 14.593C36.6717 14.5396 36.6894 14.4847 36.7172 14.4354C36.7361 14.4024 36.7639 14.3759 36.7859 14.3453C36.8161 14.3047 36.8415 14.2628 36.8769 14.2271C36.9064 14.1981 36.9431 14.1764 36.9761 14.1511C37.0142 14.1205 37.0472 14.0875 37.0878 14.0634H37.089L49.2832 7.03997C49.4376 6.95095 49.6126 6.90409 49.7908 6.90409C49.969 6.90409 50.144 6.95095 50.2984 7.03997L62.4913 14.0634C62.5344 14.0888 62.5674 14.1205 62.6055 14.1496C62.637 14.1752 62.6739 14.1981 62.7032 14.2259C62.7387 14.2628 62.764 14.3047 62.7943 14.3453C62.8174 14.3759 62.8452 14.4024 62.8632 14.4354C62.8922 14.4847 62.9087 14.5396 62.9289 14.593C62.9404 14.6221 62.9569 14.6487 62.9646 14.6792ZM60.9675 28.2844V16.7026L56.7005 19.16L50.8058 22.5558V34.1376L60.9687 28.2844H60.9675ZM48.7746 49.2358V37.6459L42.9761 40.9591L26.4187 50.4137V62.1122L48.7746 49.2353V49.2358ZM2.03249 9.79828V49.2358L24.3859 62.1112V50.4149L12.7083 43.8026L12.7046 43.8002L12.6997 43.7977C12.6603 43.7748 12.6271 43.7418 12.5904 43.714C12.5584 43.6884 12.5217 43.6682 12.4939 43.6401L12.4915 43.6364C12.4585 43.6047 12.4356 43.5653 12.4078 43.5298C12.3822 43.4954 12.3519 43.4663 12.3315 43.4309L12.3303 43.4269C12.3074 43.389 12.2934 43.3432 12.2769 43.3001C12.2604 43.262 12.239 43.2263 12.2286 43.1859V43.1846C12.2161 43.1364 12.2136 43.0854 12.2085 43.0359C12.2035 42.998 12.1932 42.9599 12.1932 42.9217V15.6517L6.29951 12.2545L2.03249 9.79976V9.79828ZM13.2106 2.18959L3.05132 8.04033L13.2081 13.8908L23.3659 8.03885L13.2081 2.18959H13.2106ZM18.4937 38.7024L24.3872 35.3081V9.79828L20.1206 12.256L14.2254 15.6515V41.161L18.4937 38.7024ZM49.7907 9.09387L39.6329 14.9444L49.7907 20.7951L59.9472 14.9431L49.7909 9.09387H49.7907ZM48.7743 22.5558L42.8796 19.16L38.6128 16.7026V28.2844L44.5063 31.6789L48.7746 34.1376V22.5558H48.7743ZM25.4011 48.6557L40.3003 40.1456L47.7481 35.8931L37.5977 30.0463L25.911 36.7777L15.2595 42.9128L25.4011 48.6557Z" fill="#FF2D20"/>
</svg>
