<svg width="143" height="115" viewBox="0 0 143 115" fill="none" xmlns="http://www.w3.org/2000/svg">
<g clip-path="url(#clip0)">
<path d="M137.335 0.000235755H94.4097C92.3383 0.000134708 90.3284 0.702029 88.7106 1.99054C87.0928 3.27904 85.9632 5.07748 85.5076 7.0902L63.8186 102.915C63.582 103.96 63.5779 105.044 63.8064 106.091C64.0349 107.138 64.4906 108.122 65.1415 108.975C65.7925 109.828 66.6228 110.529 67.5744 111.029C68.526 111.528 69.5758 111.814 70.6502 111.867L114.778 114.033C117.141 114.149 119.465 113.404 121.318 111.939C123.17 110.473 124.424 108.386 124.845 106.067L137.149 38.3184L138.065 38.5789L140.419 25.7379L139.477 25.5033L142.912 6.59213C143.059 5.7821 143.025 4.94971 142.812 4.15429C142.599 3.35888 142.213 2.62003 141.68 1.99043C141.148 1.36083 140.482 0.855985 139.732 0.511882C138.981 0.16778 138.163 -0.0071022 137.337 -0.000297032L137.335 0.000235755Z" fill="#3F3D56"/>
<path d="M100.06 2.06567H95.05C93.6111 2.06569 92.2154 2.55587 91.0947 3.45485C89.9739 4.35383 89.1956 5.60754 88.8888 7.00786L68.0697 102.05C67.9498 102.598 67.9498 103.164 68.0699 103.711C68.19 104.259 68.4273 104.773 68.7655 105.221C69.1037 105.668 69.5349 106.038 70.0297 106.304C70.5244 106.57 71.071 106.727 71.6321 106.764L115.617 109.635C116.857 109.716 118.085 109.339 119.064 108.576C120.044 107.813 120.708 106.718 120.928 105.499L138.693 7.26321C138.808 6.62739 138.781 5.97419 138.615 5.3497C138.449 4.72521 138.147 4.14465 137.731 3.64899C137.315 3.15333 136.795 2.75464 136.208 2.48106C135.62 2.20749 134.979 2.06569 134.331 2.06567H129.578C129.118 2.06566 128.67 2.21671 128.305 2.49544C127.94 2.77417 127.677 3.16504 127.558 3.60752C127.452 3.99829 127.22 4.34346 126.897 4.58957C126.575 4.83568 126.18 4.96898 125.774 4.96883H103.208C102.413 4.96881 101.647 4.6698 101.063 4.13158C100.48 3.59335 100.121 2.85557 100.06 2.06567Z" fill="white"/>
<path d="M124.375 68.5086C124.46 68.5115 124.544 68.4838 124.611 68.4303C124.677 68.3769 124.723 68.3014 124.738 68.2176L134.465 14.7466C134.474 14.6957 134.472 14.6435 134.459 14.5935C134.447 14.5434 134.423 14.4967 134.39 14.4566C134.358 14.4167 134.317 14.3845 134.271 14.3621C134.225 14.3397 134.174 14.3277 134.123 14.327L89.8695 13.8064H89.8654C89.785 13.8071 89.7073 13.8349 89.6449 13.8853C89.5825 13.9358 89.5392 14.0058 89.5219 14.084L78.0552 65.8194C78.044 65.8699 78.0439 65.9222 78.0548 65.9727C78.0658 66.0233 78.0876 66.0709 78.1187 66.1122C78.1495 66.1533 78.1891 66.1871 78.2345 66.2112C78.2799 66.2353 78.3301 66.2491 78.3815 66.2517L124.375 68.5086Z" fill="#E6E6E6"/>
<path d="M85.9718 71.9658C85.9316 71.9659 85.8925 71.9795 85.861 72.0044C85.8295 72.0293 85.8074 72.0641 85.7982 72.1032L85.3838 73.8723C85.3779 73.8973 85.3776 73.9233 85.3827 73.9484C85.3879 73.9736 85.3985 73.9973 85.4137 74.018C85.429 74.0387 85.4486 74.0558 85.4711 74.0682C85.4937 74.0807 85.5187 74.0881 85.5444 74.09L108.956 75.7473C108.999 75.7501 109.042 75.7371 109.077 75.7107C109.111 75.6843 109.135 75.6464 109.143 75.6039L109.542 73.5571C109.547 73.5322 109.546 73.5067 109.54 73.4821C109.534 73.4574 109.523 73.4344 109.508 73.4144C109.492 73.3944 109.473 73.378 109.45 73.3662C109.428 73.3544 109.403 73.3475 109.378 73.346L85.9827 71.9662L85.9718 71.9658Z" fill="#E6E6E6"/>
<path d="M114.415 82.3185C114.457 82.3219 114.499 82.3102 114.534 82.2855C114.568 82.2608 114.593 82.2248 114.603 82.1838L115.11 80.1327C115.116 80.1076 115.117 80.0814 115.112 80.056C115.107 80.0306 115.096 80.0065 115.081 79.9856C115.066 79.9647 115.046 79.9473 115.023 79.9348C115.001 79.9222 114.975 79.9147 114.949 79.9129L85.0518 77.8301C85.0112 77.8269 84.9708 77.8378 84.9374 77.8609C84.9039 77.884 84.8795 77.9179 84.8683 77.9568L84.3411 79.7293C84.3336 79.7547 84.3318 79.7814 84.336 79.8075C84.3401 79.8336 84.3501 79.8584 84.3651 79.8802C84.3801 79.902 84.3998 79.9202 84.4227 79.9334C84.4457 79.9467 84.4713 79.9546 84.4977 79.9568L114.415 82.3185Z" fill="#E6E6E6"/>
<path d="M112.81 88.8932C112.852 88.8966 112.894 88.8849 112.928 88.8602C112.963 88.8355 112.987 88.7995 112.997 88.7585L113.504 86.7074C113.511 86.6823 113.511 86.6561 113.506 86.6307C113.501 86.6053 113.491 86.5812 113.475 86.5603C113.46 86.5394 113.44 86.522 113.418 86.5095C113.395 86.4969 113.37 86.4894 113.344 86.4876L83.4462 84.4049C83.4056 84.4016 83.3652 84.4125 83.3317 84.4356C83.2983 84.4587 83.2739 84.4926 83.2626 84.5315L82.7355 86.304C82.7279 86.3294 82.7262 86.3561 82.7303 86.3822C82.7345 86.4083 82.7444 86.4331 82.7594 86.4549C82.7744 86.4767 82.7941 86.4949 82.8171 86.5081C82.84 86.5214 82.8657 86.5294 82.8921 86.5315L112.81 88.8932Z" fill="#E6E6E6"/>
<path d="M60.9728 112.039C60.9728 113.526 47.3065 113.685 30.4864 114.732C13.6812 115.778 0 113.526 0 112.039C0 110.552 13.7451 107.56 30.4864 109.347C47.3065 111.142 60.9728 110.552 60.9728 112.039Z" fill="#E6E6E6"/>
<path d="M99.0399 100.133C99.0824 100.137 99.1252 100.126 99.1601 100.101C99.195 100.077 99.2197 100.04 99.2297 99.9989L100.302 95.7252C100.309 95.7002 100.309 95.6742 100.305 95.6488C100.3 95.6235 100.29 95.5996 100.275 95.5786C100.259 95.5577 100.24 95.5402 100.218 95.5275C100.195 95.5147 100.17 95.507 100.144 95.5048L81.7842 93.9667C81.7414 93.9638 81.6989 93.9761 81.6642 94.0014C81.6296 94.0268 81.6051 94.0635 81.5951 94.1052L80.6801 98.2068C80.6746 98.2315 80.6745 98.257 80.6796 98.2817C80.6848 98.3064 80.6951 98.3297 80.71 98.3501C80.7249 98.3704 80.744 98.3874 80.766 98.3999C80.788 98.4124 80.8125 98.42 80.8377 98.4224L99.0399 100.133Z" fill="#6C63FF"/>
<path d="M24.9061 82.7175C25.1373 82.5597 25.3309 82.3534 25.4733 82.1129C25.6158 81.8725 25.7035 81.6039 25.7304 81.3261C25.7573 81.0482 25.7227 80.7679 25.6291 80.5048C25.5354 80.2417 25.385 80.0023 25.1883 79.8034L25.9317 63.2747L22.147 63.6977L22.3669 79.8652C22.0531 80.2161 21.8794 80.6696 21.8789 81.1396C21.8784 81.6096 22.0511 82.0635 22.3642 82.4151C22.6773 82.7667 23.1091 82.9917 23.5776 83.0473C24.0462 83.1029 24.519 82.9853 24.9063 82.7168L24.9061 82.7175Z" fill="#A0616A"/>
<path d="M31.8106 110.697L33.9648 111.074L36.0938 102.978L33.2714 102.421L31.8106 110.697Z" fill="#A0616A"/>
<path d="M37.7681 113.794L30.9981 112.608L31.4579 110.003L35.6122 110.731C36.306 110.852 36.9228 111.243 37.3271 111.818C37.7314 112.392 37.8901 113.103 37.7681 113.794L37.7681 113.794Z" fill="#2F2E41"/>
<path d="M25.8982 111.771H28.0853L29.1257 103.368H25.8978L25.8982 111.771Z" fill="#A0616A"/>
<path d="M32.3026 113.794L25.4287 113.795L25.4286 111.149L29.6466 111.149C30.351 111.149 31.0265 111.428 31.5246 111.924C32.0227 112.42 32.3026 113.093 32.3026 113.794Z" fill="#2F2E41"/>
<path d="M35.0231 108.759C34.9889 108.759 34.9549 108.757 34.921 108.753L32.3467 108.542C32.2295 108.528 32.1163 108.491 32.0141 108.432C31.9118 108.374 31.8225 108.295 31.7517 108.201C31.6809 108.107 31.6301 108 31.6022 107.885C31.5744 107.771 31.5702 107.652 31.5898 107.537L34.1453 94.977L32.5397 86.5412C32.5267 86.4726 32.4891 86.4111 32.4341 86.368C32.379 86.3248 32.3102 86.303 32.2402 86.3064C32.1702 86.3099 32.1039 86.3384 32.0534 86.3868C32.0029 86.4352 31.9717 86.5001 31.9655 86.5696L29.5997 108.004C29.5777 108.23 29.4684 108.438 29.295 108.586C29.1216 108.733 28.8976 108.807 28.6703 108.793L26.2449 108.703C26.0324 108.688 25.8328 108.596 25.6837 108.444C25.5346 108.293 25.4464 108.092 25.4357 107.88L25.6295 81.9778L38.2032 80.4124L39.0816 93.9243L39.0781 93.9387L35.8685 108.096C35.8223 108.285 35.7139 108.453 35.5606 108.573C35.4074 108.693 35.2181 108.759 35.0231 108.759Z" fill="#2F2E41"/>
<path d="M29.776 52.5646C32.1959 52.5646 34.1576 50.6106 34.1576 48.2003C34.1576 45.7899 32.1959 43.8359 29.776 43.8359C27.3561 43.8359 25.3943 45.7899 25.3943 48.2003C25.3943 50.6106 27.3561 52.5646 29.776 52.5646Z" fill="#A0616A"/>
<path d="M33.9045 83.9489C33.2192 83.953 32.5471 83.7615 31.9676 83.397C29.8447 82.0757 27.4343 82.6008 26.1863 83.0315C26.0624 83.0747 25.9303 83.0895 25.7999 83.0747C25.6695 83.0599 25.5442 83.0159 25.4332 82.946C25.3236 82.8774 25.2309 82.785 25.1622 82.6757C25.0935 82.5664 25.0505 82.4431 25.0365 82.3149L22.7671 62.1244C22.3867 58.7415 24.4326 55.561 27.6316 54.5618C27.7519 54.5242 27.8741 54.4887 27.9983 54.4552C28.9938 54.1864 30.0363 54.1381 31.0526 54.3138C32.0688 54.4895 33.0341 54.8849 33.8804 55.4721C34.7425 56.0658 35.4635 56.8405 35.9926 57.7416C36.5218 58.6428 36.8462 59.6485 36.943 60.688L38.8538 81.0138C38.8668 81.1454 38.849 81.2782 38.8017 81.4017C38.7545 81.5253 38.679 81.6362 38.5814 81.7258C37.9113 82.3428 35.9671 83.9487 33.9045 83.9489Z" fill="#6C63FF"/>
<path d="M26.9932 66.4542L21.8731 65.8934C21.7274 65.8774 21.5869 65.8304 21.4611 65.7555C21.3353 65.6805 21.2272 65.5795 21.1441 65.4592C21.0611 65.3389 21.0051 65.2021 20.9799 65.0583C20.9546 64.9145 20.9609 64.7669 20.9981 64.6257L22.3014 59.6777C22.3398 59.3068 22.4517 58.9472 22.6304 58.6196C22.8092 58.2921 23.0513 58.003 23.3429 57.7692C23.6345 57.5354 23.9697 57.3615 24.3291 57.2575C24.6886 57.1535 25.0652 57.1215 25.4371 57.1633C25.8091 57.2052 26.169 57.32 26.4962 57.5012C26.8233 57.6824 27.1111 57.9264 27.343 58.2191C27.5749 58.5118 27.7463 58.8473 27.8472 59.2063C27.9481 59.5654 27.9766 59.9407 27.931 60.3108L28.1246 65.4062C28.1301 65.5521 28.104 65.6975 28.048 65.8324C27.9921 65.9674 27.9076 66.0888 27.8003 66.1883C27.693 66.2878 27.5654 66.3631 27.4262 66.409C27.2871 66.455 27.1396 66.4705 26.9939 66.4546L26.9932 66.4542Z" fill="#6C63FF"/>
<path d="M38.833 82.0099C39.0433 81.8255 39.2104 81.5974 39.3227 81.3417C39.4349 81.086 39.4895 80.8089 39.4826 80.5299C39.4757 80.2509 39.4075 79.9768 39.2827 79.7269C39.158 79.477 38.9797 79.2574 38.7605 79.0836L37.4987 62.5862L33.79 63.4178L35.9664 79.4838C35.6973 79.8698 35.5798 80.3409 35.6361 80.8075C35.6925 81.2742 35.9188 81.704 36.2722 82.0155C36.6256 82.327 37.0814 82.4984 37.5533 82.4974C38.0252 82.4964 38.4803 82.3229 38.8323 82.0099H38.833Z" fill="#A0616A"/>
<path d="M32.3683 65.4171C32.261 65.3177 32.1764 65.1963 32.1205 65.0614C32.0645 64.9265 32.0384 64.7811 32.044 64.6352L32.2375 59.5399C32.1958 59.1717 32.2273 58.7989 32.3302 58.4429C32.4331 58.0868 32.6054 57.7544 32.8372 57.4647C33.0691 57.1749 33.356 56.9335 33.6815 56.7542C34.0071 56.5749 34.3649 56.4612 34.7345 56.4197C35.1041 56.3781 35.4784 56.4095 35.8359 56.5119C36.1933 56.6144 36.527 56.786 36.8179 57.017C37.1088 57.2479 37.3512 57.5337 37.5312 57.8579C37.7112 58.1822 37.8254 58.5386 37.8671 58.9067L39.1705 63.8548C39.2077 63.996 39.2139 64.1435 39.1887 64.2874C39.1635 64.4312 39.1074 64.5679 39.0244 64.6882C38.9414 64.8085 38.8333 64.9096 38.7075 64.9845C38.5817 65.0595 38.4411 65.1065 38.2954 65.1225L33.1754 65.6833C33.0296 65.6992 32.8821 65.6837 32.743 65.6377C32.6038 65.5917 32.4763 65.5163 32.369 65.4167L32.3683 65.4171Z" fill="#6C63FF"/>
<path d="M29.5154 52.729C29.4373 52.729 29.3595 52.7199 29.2834 52.7021L29.2611 52.6968C25.4088 52.1104 24.5573 49.8871 24.3705 48.959C24.1771 47.9981 24.3973 47.0705 24.895 46.7101C24.6237 45.8572 24.6672 45.1001 25.0247 44.4602C25.6491 43.3443 27.0015 42.9676 27.1833 42.9206C28.2641 42.1265 29.5571 42.6566 29.7924 42.7641C31.8831 41.9938 32.6825 42.6349 32.8266 42.7781C33.7611 42.9453 34.3307 43.3048 34.5198 43.8471C34.875 44.8655 33.7518 46.1323 33.7038 46.1858L33.6788 46.2135L32.0055 46.2929C31.8467 46.3005 31.6912 46.3412 31.5493 46.4124C31.4073 46.4836 31.2819 46.5838 31.1813 46.7064C31.0807 46.829 31.0071 46.9713 30.9653 47.124C30.9234 47.2768 30.9143 47.4366 30.9384 47.5931C30.9837 47.795 31.0409 47.9941 31.1097 48.1893C31.3952 49.0788 31.6092 49.8388 31.3334 50.1277C31.2709 50.1836 31.1937 50.2208 31.1109 50.2351C31.0281 50.2494 30.9429 50.2402 30.8651 50.2086C30.6034 50.1389 30.4259 50.1535 30.3374 50.2521C30.2001 50.4047 30.242 50.7914 30.4555 51.3405C30.5225 51.5141 30.5406 51.7027 30.5077 51.8859C30.4748 52.069 30.3922 52.2397 30.2689 52.3794C30.1761 52.4885 30.0606 52.5762 29.9304 52.6366C29.8003 52.6969 29.6586 52.7284 29.515 52.729H29.5154Z" fill="#2F2E41"/>
</g>
<defs>
<clipPath id="clip0">
<rect width="143" height="115" fill="white"/>
</clipPath>
</defs>
</svg>
