<svg width="65" height="74" viewBox="0 0 65 74" fill="none" xmlns="http://www.w3.org/2000/svg">
<path d="M32.5 73.2974C31.5112 73.2978 30.5397 73.0377 29.6833 72.5435L20.7199 67.2372C19.3822 66.4885 20.034 66.2241 20.4765 66.0696C21.8992 65.6301 23.2614 65.0145 24.5314 64.2372C24.6377 64.188 24.7548 64.1668 24.8716 64.1755C24.9885 64.1842 25.1011 64.2225 25.199 64.2869L32.0864 68.3785C32.2146 68.4464 32.3575 68.4819 32.5026 68.4819C32.6477 68.4819 32.7906 68.4464 32.9189 68.3785L59.7775 52.8759C59.9032 52.8006 60.0071 52.694 60.0792 52.5664C60.1512 52.4388 60.1889 52.2947 60.1885 52.1482V21.1377C60.1886 20.9889 60.1503 20.8425 60.0774 20.7128C60.0045 20.583 59.8994 20.4742 59.7722 20.3969L32.9136 4.90736C32.787 4.83603 32.6441 4.79855 32.4987 4.79855C32.3533 4.79855 32.2104 4.83603 32.0838 4.90736L5.24085 20.4021C5.11281 20.4778 5.0065 20.5853 4.9322 20.7142C4.8579 20.8431 4.81814 20.989 4.81677 21.1377V52.1351C4.81714 52.2813 4.85636 52.4247 4.93042 52.5508C5.00448 52.6768 5.11071 52.7809 5.23824 52.8524L12.6047 57.1037C16.5969 59.0984 19.0419 56.7477 19.0419 54.3864V23.7817C19.0419 23.5734 19.1246 23.3737 19.2719 23.2264C19.4192 23.0791 19.619 22.9964 19.8272 22.9964H23.2304C23.4387 22.9964 23.6384 23.0791 23.7857 23.2264C23.933 23.3737 24.0157 23.5734 24.0157 23.7817V54.389C24.0157 59.7162 21.1152 62.766 16.0628 62.766C13.8832 62.8039 11.7377 62.2211 9.87698 61.0853L2.81677 57.0356C1.95967 56.5365 1.24849 55.8213 0.754227 54.9614C0.259962 54.1014 -9.48861e-05 53.1269 1.86173e-05 52.1351V21.1377C-0.00252899 20.1443 0.256428 19.1678 0.750866 18.3062C1.2453 17.4446 1.95781 16.7283 2.81677 16.2293L29.678 0.721495C30.5433 0.248112 31.5137 0 32.5 0C33.4863 0 34.4567 0.248112 35.322 0.721495L62.1806 16.2293C63.0376 16.7275 63.749 17.4417 64.2437 18.3007C64.7384 19.1597 64.9992 20.1334 65 21.1246V52.1351C64.9985 53.1269 64.7375 54.1011 64.2429 54.9608C63.7483 55.8205 63.0373 56.5358 62.1806 57.0356L35.322 72.5435C34.464 73.0385 33.4906 73.2986 32.5 73.2974Z" fill="#83CD29"/>
<path d="M27.4063 41.7607C27.4063 41.5524 27.4891 41.3526 27.6363 41.2054C27.7836 41.0581 27.9834 40.9753 28.1917 40.9753H31.6655C31.8511 40.976 32.0305 41.0423 32.1718 41.1626C32.3132 41.2828 32.4074 41.4493 32.4377 41.6324C32.9613 45.1691 34.532 46.9518 41.6341 46.9518C47.2911 46.9518 49.7021 45.6717 49.7021 42.6691C49.7021 40.9387 49.0189 39.6534 40.2257 38.7921C32.8749 38.0644 28.3304 36.4361 28.3304 30.5617C28.3304 25.1429 32.8985 21.9099 40.5555 21.9099C49.1602 21.9099 53.4194 24.8968 53.9587 31.3052C53.9669 31.4122 53.9531 31.5197 53.9182 31.6212C53.8832 31.7226 53.8279 31.8159 53.7555 31.8951C53.6832 31.9743 53.5953 32.0379 53.4974 32.0819C53.3996 32.1258 53.2937 32.1493 53.1864 32.1507H49.689C49.5136 32.1483 49.344 32.0871 49.2073 31.9771C49.0707 31.867 48.9749 31.7143 48.9351 31.5434C48.1 27.8235 46.0555 26.635 40.5581 26.635C34.3801 26.635 33.6629 28.7869 33.6629 30.3994C33.6629 32.3523 34.511 32.923 42.8513 34.0251C51.1053 35.1167 55.0267 36.6612 55.0267 42.4623C55.0267 48.3157 50.1471 51.6664 41.6367 51.6664C29.8697 51.6821 27.4063 46.2869 27.4063 41.7607Z" fill="#83CD29"/>
</svg>
