<svg width="65" height="35" viewBox="0 0 65 35" fill="none" xmlns="http://www.w3.org/2000/svg">
<path d="M32.5 34.3098C50.4493 34.3098 65 26.6293 65 17.1549C65 7.68051 50.4493 0 32.5 0C14.5507 0 0 7.68051 0 17.1549C0 26.6293 14.5507 34.3098 32.5 34.3098Z" fill="url(#paint0_radial)"/>
<path d="M32.5 33.0354C49.7481 33.0354 63.7305 25.9255 63.7305 17.1551C63.7305 8.38455 49.7481 1.27466 32.5 1.27466C15.2519 1.27466 1.26953 8.38455 1.26953 17.1551C1.26953 25.9255 15.2519 33.0354 32.5 33.0354Z" fill="#6181B6"/>
<path d="M38.8223 22.304L40.3711 14.3001C40.7266 12.4903 40.4219 11.1393 39.5078 10.2981C38.6191 9.48241 37.0957 9.07456 34.8613 9.07456H32.1699L32.9316 5.09809C32.957 4.94515 32.9316 4.79221 32.8301 4.66476C32.7285 4.53731 32.6016 4.48633 32.4492 4.48633H28.7422C28.4883 4.48633 28.2852 4.66476 28.2344 4.89417L26.584 13.3824C26.4316 12.4138 26.0762 11.5981 25.4668 10.9353C24.375 9.68633 22.6738 9.04907 20.3633 9.04907H13.2285C12.9746 9.04907 12.7715 9.2275 12.7207 9.45692L9.39453 26.6883C9.36914 26.8412 9.39453 26.9942 9.4961 27.1216C9.59766 27.2491 9.72461 27.3001 9.87696 27.3001H13.6094C13.8633 27.3001 14.0664 27.1216 14.1172 26.8922L14.9297 22.7373H17.6973C19.1445 22.7373 20.3887 22.5844 21.3281 22.2785C22.3184 21.9471 23.207 21.4118 23.9941 20.6726C24.6289 20.0863 25.1621 19.4236 25.5684 18.7099L24.9082 22.151C24.8828 22.304 24.9082 22.4569 25.0098 22.5844C25.1113 22.7118 25.2383 22.7628 25.3906 22.7628H29.0977C29.3516 22.7628 29.5547 22.5844 29.6055 22.355L31.4336 12.9236H33.9727C35.0645 12.9236 35.3691 13.1275 35.4707 13.2295C35.5469 13.3059 35.6992 13.6118 35.5215 14.555L34.0488 22.1765C34.0234 22.3295 34.0488 22.4824 34.1504 22.6099C34.252 22.7373 34.3789 22.7883 34.5313 22.7883H38.3398C38.5684 22.7118 38.7715 22.5334 38.8223 22.304ZM21.6582 15.6765C21.4297 16.8746 20.998 17.7412 20.3633 18.2255C19.7285 18.7099 18.6875 18.9648 17.3164 18.9648H15.666L16.8594 12.7961H18.9922C20.5664 12.7961 21.2012 13.1275 21.4551 13.4079C21.7852 13.8157 21.8613 14.6059 21.6582 15.6765Z" fill="white"/>
<path d="M54.666 10.9353C53.5742 9.68633 51.873 9.04907 49.5625 9.04907H42.377C42.123 9.04907 41.9199 9.2275 41.8691 9.45692L38.543 26.6628C38.5176 26.8157 38.543 26.9687 38.6445 27.0961C38.7461 27.2236 38.873 27.2746 39.0254 27.2746H42.7578C43.0117 27.2746 43.2148 27.0961 43.2656 26.8667L44.0781 22.7118H46.8457C48.293 22.7118 49.5371 22.5589 50.4766 22.253C51.4668 21.9216 52.3555 21.3863 53.1426 20.6471C53.8027 20.0353 54.3613 19.3471 54.7676 18.6079C55.1738 17.8687 55.4785 17.053 55.6562 16.1608C56.0879 13.9432 55.7578 12.2099 54.666 10.9353ZM50.7812 15.6765C50.5527 16.8746 50.1211 17.7412 49.4863 18.2255C48.8516 18.7099 47.8105 18.9648 46.4395 18.9648H44.7891L45.9824 12.7961H48.1152C49.6895 12.7961 50.3242 13.1275 50.5781 13.4079C50.9336 13.8157 51.0098 14.6059 50.7812 15.6765Z" fill="white"/>
<path d="M18.9922 12.286C20.4141 12.286 21.3535 12.5409 21.8359 13.0762C22.3184 13.6115 22.4199 14.5037 22.166 15.7782C21.9121 17.1037 21.4043 18.0723 20.668 18.6331C19.9316 19.1939 18.8145 19.4743 17.3164 19.4743H15.0566L16.4531 12.286H18.9922ZM9.90234 26.7645H13.6348L14.5234 22.2017H17.7227C19.1445 22.2017 20.2871 22.0488 21.2012 21.7429C22.1152 21.437 22.9277 20.9527 23.6895 20.239C24.3242 19.6527 24.832 19.0155 25.2129 18.3272C25.5938 17.639 25.873 16.8743 26.0254 16.0331C26.4316 13.9939 26.127 12.4135 25.1367 11.2664C24.1465 10.1194 22.5723 9.55859 20.4141 9.55859H13.2285L9.90234 26.7645Z" fill="#000004"/>
<path d="M28.7676 4.99585H32.4746L31.5859 9.55859H34.8867C36.9687 9.55859 38.3906 9.91546 39.1777 10.6547C39.9648 11.3939 40.1934 12.5664 39.8887 14.1978L38.3398 22.2017H34.582L36.0547 14.5802C36.2324 13.7135 36.1562 13.1272 35.877 12.8213C35.5977 12.5155 34.9629 12.337 34.0234 12.337H31.0527L29.1484 22.2017H25.4414L28.7676 4.99585Z" fill="#000004"/>
<path d="M48.1152 12.286C49.5371 12.286 50.4766 12.5409 50.959 13.0762C51.4414 13.6115 51.543 14.5037 51.2891 15.7782C51.0352 17.1037 50.5273 18.0723 49.791 18.6331C49.0547 19.1939 47.9375 19.4743 46.4395 19.4743H44.1797L45.5762 12.286H48.1152ZM39.0254 26.7645H42.7578L43.6465 22.2017H46.8457C48.2676 22.2017 49.4102 22.0488 50.3242 21.7429C51.2383 21.437 52.0508 20.9527 52.8125 20.239C53.4473 19.6527 53.9551 19.0155 54.3359 18.3272C54.7168 17.639 54.9961 16.8743 55.1484 16.0331C55.5547 13.9939 55.25 12.4135 54.2598 11.2664C53.2695 10.1194 51.6953 9.55859 49.5371 9.55859H42.3516L39.0254 26.7645Z" fill="#000004"/>
<defs>
<radialGradient id="paint0_radial" cx="0" cy="0" r="1" gradientUnits="userSpaceOnUse" gradientTransform="translate(19.5131 6.0329) scale(42.6805 42.8478)">
<stop stop-color="white"/>
<stop offset="0.5" stop-color="#4C6B97"/>
<stop offset="1" stop-color="#231F20"/>
</radialGradient>
</defs>
</svg>
