<svg width="65" height="49" viewBox="0 0 65 49" fill="none" xmlns="http://www.w3.org/2000/svg">
<path d="M55.9701 28.0223C53.7025 28.034 51.7316 28.5801 50.0815 29.3875C49.4758 28.1883 48.8703 27.1199 48.7636 26.3363C48.6447 25.4222 48.5024 24.8641 48.6447 23.7718C48.7873 22.6796 49.4284 21.1241 49.4164 21.0055C49.4047 20.8868 49.2739 20.3287 47.968 20.317C46.6621 20.3051 45.5342 20.5663 45.4035 20.9105C45.2729 21.2548 45.0237 22.0384 44.8574 22.8456C44.6318 24.0331 42.2456 28.2713 40.8804 30.4915C40.441 29.625 40.0611 28.865 39.9778 28.2596C39.8592 27.3455 39.7166 26.7874 39.8592 25.6951C40.0018 24.6029 40.6429 23.0477 40.6309 22.9288C40.6189 22.8102 40.4883 22.2521 39.1824 22.2404C37.8763 22.2284 36.7484 22.4896 36.618 22.8338C36.4874 23.1783 36.3448 23.9854 36.0719 24.7691C35.7987 25.5528 32.6288 32.6289 31.7977 34.457C31.4619 35.1969 31.1096 35.9293 30.7411 36.6535C30.7411 36.6535 30.7291 36.6892 30.6935 36.7485C30.5777 36.9756 30.4591 37.2012 30.3376 37.4253V37.437C30.1593 37.7578 29.9694 38.0544 29.8744 38.0544C29.8031 38.0544 29.6725 37.1997 29.8981 36.0361C30.3729 33.5786 31.5009 29.7557 31.4891 29.625C31.4891 29.5537 31.7028 28.889 30.7531 28.5445C29.8268 28.2002 29.4945 28.7701 29.4113 28.7701C29.3283 28.7701 29.2687 28.972 29.2687 28.972C29.2687 28.972 30.3019 24.6742 27.298 24.6742C25.4223 24.6742 22.834 26.7281 21.5517 28.5801C20.0941 29.3733 18.6378 30.1688 17.1827 30.9666C16.4825 31.3584 15.7581 31.7503 15.0814 32.1182C15.0338 32.0708 14.9864 32.0112 14.9388 31.9639C11.3058 28.0816 4.58611 25.3389 4.87102 20.1271C4.97796 18.2275 5.63078 13.2409 17.7764 7.18607C27.7729 2.25887 35.7276 3.62408 37.1048 6.65164C39.0755 10.9734 32.8427 18.9992 22.5134 20.1625C18.5718 20.6019 16.5059 19.0822 15.9837 18.5124C15.4376 17.9186 15.3543 17.883 15.1524 18.0019C14.8201 18.1801 15.0338 18.7143 15.1524 19.0229C15.4612 19.83 16.7315 21.2548 18.8804 21.9554C20.78 22.5726 25.3984 22.9171 30.9904 20.7562C37.2471 18.3341 42.1387 11.6025 40.7022 5.96318C39.2654 0.240581 29.7675 -1.64709 20.78 1.54647C15.4376 3.44637 9.64367 6.43803 5.47648 10.3323C0.525604 14.9623 -0.258084 18.9872 0.0624695 20.6732C1.21432 26.6568 9.4657 30.5511 12.7662 33.436C12.5999 33.531 12.4454 33.6143 12.315 33.6855C10.6647 34.5046 4.37224 37.7932 2.80512 41.2719C1.02438 45.2135 3.09028 48.0394 4.4555 48.419C8.69398 49.5946 13.0511 47.4813 15.3899 43.9906C17.7288 40.5002 17.4439 35.9648 16.3636 33.8872C16.3516 33.8635 16.3399 33.8396 16.316 33.8159C16.7435 33.5666 17.1827 33.3054 17.6101 33.0562C18.3958 32.5917 19.1915 32.1443 19.9966 31.7144C19.5928 32.8186 19.2959 34.1365 19.1536 36.0361C18.9754 38.2683 19.8894 41.1649 21.0886 42.3046C21.623 42.8036 22.2522 42.8153 22.656 42.8153C24.0568 42.8153 24.6862 41.6518 25.3867 40.2746C26.2414 38.5888 27.0131 36.6298 27.0131 36.6298C27.0131 36.6298 26.0515 41.925 28.6635 41.925C29.6132 41.925 30.5748 40.6901 31.0023 40.061V40.0727C31.0023 40.0727 31.026 40.037 31.0736 39.954C31.1686 39.7997 31.2279 39.7045 31.2279 39.7045V39.6811C31.6078 39.016 32.4628 37.5083 33.733 35.0032C35.3714 31.7739 36.9505 27.7374 36.9505 27.7374C36.9505 27.7374 37.0931 28.7227 37.5797 30.3611C37.8648 31.3228 38.4581 32.3794 38.9332 33.4004C38.5533 33.9348 38.3157 34.2314 38.3157 34.2314L38.3277 34.2434C38.0189 34.6469 37.6866 35.0862 37.3184 35.5139C36.0242 37.0571 34.4811 38.8264 34.2672 39.3366C34.0177 39.9421 34.0773 40.3815 34.5524 40.7377C34.8966 40.9989 35.5138 41.0343 36.1432 40.9989C37.3067 40.9157 38.1258 40.6308 38.5294 40.4528C39.1587 40.2272 39.8948 39.8827 40.5833 39.3722C41.8538 38.4343 42.6253 37.0927 42.5542 35.324C42.5186 34.3503 42.198 33.3767 41.8062 32.4624C41.9251 32.2964 42.0318 32.1301 42.1507 31.9639C44.157 29.0313 45.7124 25.8138 45.7124 25.8138C45.7124 25.8138 45.855 26.7991 46.3415 28.4378C46.5791 29.2688 47.0659 30.1712 47.4931 31.0496C45.6054 32.5813 44.4419 34.362 44.0264 35.5256C43.2786 37.6865 43.8601 38.6598 44.9643 38.8854C45.4629 38.9924 46.1753 38.7548 46.6977 38.5292C47.3625 38.3156 48.1462 37.9477 48.8942 37.4013C50.1647 36.4636 51.3874 35.1574 51.3161 33.3887C51.2804 32.5813 51.0668 31.7857 50.7699 31.0139C52.3727 30.3494 54.4386 29.9812 57.0741 30.2898C62.7256 30.9546 63.8416 34.4807 63.6277 35.9651C63.4141 37.4489 62.2269 38.2563 61.8353 38.5056C61.4432 38.7551 61.3128 38.8381 61.3485 39.016C61.3958 39.2773 61.5858 39.2656 61.9183 39.2179C62.3814 39.1349 64.8865 38.0187 64.9932 35.2881C65.1714 31.7976 61.847 27.9866 55.9701 28.0223ZM12.3744 42.7204C10.4984 44.7623 7.88661 45.534 6.75869 44.8812C5.54777 44.1805 6.02262 41.165 8.32581 39.0043C9.72667 37.6865 11.5313 36.4633 12.7306 35.7155C13.0035 35.5493 13.4073 35.312 13.8941 35.0151C13.9771 34.9675 14.0247 34.9438 14.0247 34.9438L14.3096 34.7656C15.1524 37.8525 14.3453 40.5715 12.3744 42.7204ZM26.0278 33.436C25.3747 35.0271 24.0095 39.0993 23.1784 38.8737C22.466 38.6838 22.0266 35.5969 23.0359 32.5457C23.5464 31.0139 24.6267 29.1856 25.2561 28.4734C26.277 27.3336 27.405 26.9534 27.6779 27.4168C28.0224 28.0223 26.4313 32.4387 26.0278 33.436ZM37.2948 38.8261C37.0216 38.9687 36.7606 39.0637 36.6417 38.9924C36.5587 38.9448 36.7606 38.7548 36.7606 38.7548C36.7606 38.7548 38.1734 37.2353 38.7313 36.5466C39.0521 36.143 39.4317 35.6682 39.8355 35.1338V35.2881C39.8355 37.1047 38.0782 38.3276 37.2945 38.8261H37.2948ZM45.9853 36.8435C45.7834 36.7009 45.8191 36.226 46.4958 34.7419C46.757 34.1601 47.3742 33.1868 48.4311 32.2488C48.5498 32.6287 48.633 32.9968 48.621 33.3411C48.6091 35.6325 46.9709 36.4873 45.9853 36.8435Z" fill="#CD6799"/>
</svg>
