<svg width="65" height="74" viewBox="0 0 65 74" fill="none" xmlns="http://www.w3.org/2000/svg">
<path d="M56.9307 14.4069C56.8796 14.0351 56.5541 13.8292 56.2852 13.8066C56.0167 13.7842 50.3353 13.3626 50.3353 13.3626C50.3353 13.3626 46.3894 9.44127 45.9563 9.00723C45.523 8.57345 44.6767 8.7054 44.3482 8.80219C44.2998 8.81645 43.4861 9.06786 42.14 9.48482C40.8219 5.68804 38.4957 2.19895 34.4033 2.19895C34.2903 2.19895 34.1741 2.20354 34.0578 2.21016C32.8939 0.669391 31.4522 0 30.2069 0C20.6737 0 16.1192 11.9296 14.6912 17.9918C10.9869 19.1408 8.35528 19.9577 8.01915 20.0634C5.95145 20.7127 5.88605 20.7779 5.61455 22.7282C5.41022 24.2048 0 66.0873 0 66.0873L42.1576 73.9942L65 69.0476C65 69.0476 56.9814 14.7788 56.931 14.4069H56.9307ZM39.81 10.2062L36.2428 11.3114C36.244 11.0597 36.2453 10.8121 36.2453 10.5414C36.2453 8.1817 35.9181 6.28178 35.3932 4.77565C37.5018 5.04056 38.9062 7.44226 39.81 10.2062ZM32.7774 5.24356C33.3636 6.71403 33.7448 8.82435 33.7448 11.6721C33.7448 11.8178 33.7435 11.951 33.7422 12.0857C31.4224 12.805 28.9015 13.586 26.375 14.3695C27.7936 8.88905 30.4527 6.24205 32.7774 5.24356ZM29.945 2.55963C30.3565 2.55963 30.771 2.69947 31.1677 2.97278C28.1124 4.41192 24.8376 8.03652 23.4546 15.2748L17.6312 17.0802C19.251 11.5592 23.0974 2.55963 29.9448 2.55963H29.945Z" fill="#95BF46"/>
<path d="M56.2851 13.8066C56.0167 13.7842 50.3352 13.3626 50.3352 13.3626C50.3352 13.3626 46.3894 9.44126 45.9563 9.00723C45.7942 8.84574 45.5756 8.76296 45.3471 8.72729L42.1596 73.9937L65 69.0476C65 69.0476 56.9811 14.7788 56.9307 14.4069C56.8795 14.035 56.5541 13.8292 56.2851 13.8066Z" fill="#5E8E3E"/>
<path d="M34.4033 26.4409L31.5867 34.8276C31.5867 34.8276 29.119 33.5092 26.094 33.5092C21.6594 33.5092 21.4362 36.295 21.4362 36.997C21.4362 40.8274 31.4109 42.2951 31.4109 51.2672C31.4109 58.3261 26.9383 62.8715 20.9077 62.8715C13.671 62.8715 9.97025 58.363 9.97025 58.363L11.9079 51.9544C11.9079 51.9544 15.712 55.2237 18.922 55.2237C21.0194 55.2237 21.8726 53.5706 21.8726 52.3627C21.8726 47.3662 13.6894 47.1434 13.6894 38.9331C13.6894 32.023 18.6441 25.3359 28.6457 25.3359C32.4994 25.3359 34.4033 26.4409 34.4033 26.4409Z" fill="white"/>
</svg>
