<svg width="241" height="115" viewBox="0 0 241 115" fill="none" xmlns="http://www.w3.org/2000/svg">
<g clip-path="url(#clip0)">
<path opacity="0.1" d="M239.166 95.3751C238.011 97.6004 236.386 99.5484 234.404 101.084C234.122 101.31 233.835 101.527 233.543 101.74C233.149 102.016 232.746 102.287 232.334 102.553C229.127 104.587 225.371 105.977 221.705 106.99C220.705 107.266 219.703 107.525 218.696 107.768C217.848 107.974 216.998 108.165 216.148 108.343C215.825 108.413 215.502 108.48 215.179 108.55C214.856 108.62 214.485 108.689 214.144 108.757L213.653 108.85C204.167 110.598 194.556 110.931 184.876 110.492L184.416 110.47L183.681 110.432C181.716 110.33 179.748 110.2 177.779 110.041L177.033 109.981L176.704 109.955C175.6 109.862 174.496 109.761 173.392 109.65C171.937 109.513 170.48 109.36 169.021 109.193L168.833 109.173L168.68 109.154C163.473 108.569 158.253 107.865 153.028 107.143L152.289 107.04L150.962 106.856L149.844 106.701L149.512 106.655C147.749 106.408 145.985 106.164 144.221 105.923L143.935 105.884C140.623 105.431 137.291 104.994 133.971 104.597L133.538 104.545C132.178 104.384 130.82 104.23 129.461 104.084L128.426 103.974L127.049 103.836C123.234 103.457 119.42 103.155 115.615 102.967C113.785 102.876 111.951 102.807 110.112 102.76C108.594 102.725 107.076 102.705 105.557 102.7C103.498 102.69 101.435 102.702 99.3672 102.735H98.8993C95.9864 102.783 93.0672 102.865 90.146 102.965L89.6201 102.981H89.4462C83.2353 103.201 77.0243 103.492 70.8299 103.701L69.3165 103.751H69.097C66.9439 103.82 64.7928 103.873 62.6438 103.91H62.0745H62.0559H61.3644L60.4037 103.923C59.4058 103.932 58.41 103.938 57.4163 103.939H56.1968C52.5489 103.929 48.9155 103.848 45.3049 103.66L44.9032 103.637C37.8869 103.259 30.9493 102.477 24.1358 101.055C23.4306 100.908 22.7266 100.753 22.0241 100.592C17.316 99.5373 12.6933 98.133 8.19437 96.3907C6.07436 95.5633 3.94193 94.6076 2.32915 92.9899C-1.76181 88.8527 -0.225632 80.75 5.09717 78.3939C9.26058 76.5507 14.1383 78.0505 18.6164 77.2189C18.8915 77.1665 19.1632 77.0974 19.43 77.012C19.9993 76.8286 20.5531 76.6004 21.0863 76.3294C21.2685 76.2384 21.4506 76.1412 21.6349 76.0398C22.049 75.8143 22.463 75.564 22.8605 75.291C23.5104 74.8591 24.1327 74.3872 24.7238 73.8781C24.9861 73.6547 25.2414 73.423 25.4898 73.183C26.3496 72.376 27.1087 71.4682 27.7506 70.4794C27.9844 70.1053 28.1919 69.7154 28.3717 69.3127C28.469 69.1058 28.556 68.8824 28.6284 68.6673C28.7366 68.356 28.819 68.0364 28.8748 67.7116C29.1357 66.1767 28.7133 64.679 27.2434 63.413C27.1117 63.3007 26.9735 63.1964 26.8293 63.1007C26.5446 62.9033 26.2441 62.7296 25.9308 62.5814C25.8045 62.5215 25.6741 62.4635 25.5416 62.4077C23.6493 61.6113 21.2084 61.3051 19.1505 60.7528C18.5234 60.5939 17.9111 60.3815 17.3203 60.1177C16.9456 59.944 16.573 59.7619 16.2065 59.5716L16.1092 59.5178C12.9801 57.9058 10.2283 55.6498 8.03495 52.8983C7.48971 52.203 6.98775 51.4748 6.5319 50.718C6.39319 50.4904 6.25862 50.2567 6.13026 50.0229C2.4927 43.4655 2.11797 35.0628 5.90252 28.6149C6.36228 27.8327 6.87411 27.0821 7.43456 26.3684C7.61675 26.1326 7.80515 25.9009 7.99976 25.6734C11.6021 21.4265 16.7779 18.5491 22.0034 16.4184C29.0177 13.5596 36.3611 11.7537 43.8453 10.5643C45.3636 10.3229 46.8818 10.1064 48.4 9.91474C54.7559 9.10384 61.1863 8.67357 67.5712 8.34673C73.5434 8.04472 79.5418 7.84958 85.5664 7.76132C87.6078 7.73374 89.6512 7.72201 91.6967 7.72615C96.3052 7.72615 100.914 7.8151 105.522 7.993C107.041 8.05092 108.559 8.11987 110.077 8.19986C113.971 8.4012 117.857 8.67702 121.735 9.0273C123.598 9.19555 125.457 9.38104 127.312 9.58376C141.44 11.1269 155.363 13.7437 168.806 17.8127C170.331 18.2733 171.849 18.756 173.361 19.2607C179.014 21.1204 184.568 23.2655 190.004 25.6879C190.517 25.9182 191.029 26.1498 191.54 26.3829C194.934 27.9385 198.28 29.6148 201.577 31.4117C205.929 33.7515 210.12 36.3776 214.123 39.2724C215.685 40.417 217.204 41.6113 218.678 42.8552C221.284 45.0512 223.714 47.447 225.947 50.0209C226.145 50.2512 226.342 50.4829 226.537 50.7159C227.547 51.9281 228.506 53.1838 229.414 54.4828C233.845 60.8459 236.818 68.1232 239.013 75.5578C240.948 82.0449 242.236 89.3285 239.166 95.3751Z" fill="#6C63FF"/>
<path opacity="0.1" d="M236.381 73.1833H218.694V50.7038H226.562C226.367 50.4707 226.17 50.239 225.972 50.0087H218.703V42.8431C217.231 41.6019 215.713 40.4076 214.148 39.2602V50.017H173.373V26.3687H191.552C191.04 26.1356 190.528 25.9039 190.016 25.6736H173.373V19.2465C171.855 18.7459 170.336 18.2632 168.818 17.7984V25.6591H110.626L110.487 25.5267L127.321 9.56125C125.466 9.35715 123.607 9.17166 121.743 9.00479L110.085 20.0594V8.18563C108.567 8.10564 107.049 8.03669 105.531 7.97877V20.8227L91.7049 7.71191C89.6608 7.71191 87.6174 7.72364 85.5747 7.74708L104.324 25.5267L104.185 25.6591H48.4041V9.92325C46.8859 10.1149 45.3677 10.3315 43.8494 10.5728V25.6736H7.99973C7.80512 25.9012 7.61672 26.1329 7.43453 26.3687H43.8453V50.0087H6.12195C6.25031 50.2425 6.38488 50.4762 6.52359 50.7038H43.8453V73.1833H25.4877C25.2393 73.4232 24.984 73.6549 24.7217 73.8783H43.8453V96.8812C45.3635 97.0978 46.8818 97.3239 48.4 97.5597V73.8783H105.526V102.7C107.045 102.7 108.563 102.72 110.081 102.76V73.8783H168.814V109.163L169.003 109.183C170.46 109.346 171.917 109.498 173.373 109.64V73.8783H214.136V108.747C214.483 108.683 214.831 108.614 215.171 108.54C215.51 108.465 215.817 108.41 216.14 108.333C216.99 108.152 217.839 107.961 218.688 107.758V73.8783H236.518C236.472 73.6467 236.427 73.415 236.381 73.1833ZM105.526 73.1833H48.4041V50.7038H105.526V73.1833ZM105.526 50.0149H48.4041V26.3687H104.717L105.52 27.0017L105.526 50.0149ZM168.814 73.1833H110.085V50.7038H168.814V73.1833ZM168.814 50.0149H110.085V26.3687H168.814V50.0149ZM214.136 73.1833H173.373V50.7038H214.136V73.1833Z" fill="#6C63FF"/>
<path d="M61.5279 104.922C61.5279 104.945 61.5113 104.967 61.5051 104.99C61.5051 104.967 61.5196 104.945 61.53 104.922H61.5279Z" fill="#EAECF0"/>
<path d="M62.6086 103.931H62.0393H62.0207H61.3292L60.3685 103.943L60.263 102.853L60.1657 101.819L59.7143 97.1003L59.6998 96.9555V96.8914L59.5735 95.5634L61.5072 94.8394L61.7432 96.7652L61.7598 96.908V96.9245L62.238 100.834L62.385 102.034L62.4699 102.731L62.5424 103.329V103.35L62.6086 103.931Z" fill="#EAECF0"/>
<path d="M69.5504 104.92L69.5732 104.988H69.42L69.3972 104.92H69.5504Z" fill="#3A3768"/>
<path d="M99.5369 77.6659C99.5369 77.7073 99.5369 77.73 99.5369 77.73V77.7549C99.5369 77.7549 97.7316 82.6844 97.1436 86.8919C97.1036 87.1677 97.0705 87.4435 97.0443 87.7194C97.0153 88.011 96.9925 88.2965 96.9801 88.5737C96.9635 88.8985 96.9594 89.2129 96.9676 89.5128C96.9676 89.5811 96.9676 89.6514 96.9676 89.7197C96.9676 89.8583 96.9821 90.001 96.9904 90.1479C96.9987 90.2948 97.0111 90.4416 97.0236 90.5947C97.036 90.7478 97.0484 90.8822 97.0629 91.0291C97.508 95.5801 99.1995 102.243 99.1995 102.243C99.1995 102.243 99.2554 102.423 99.3278 102.729H98.8599C95.947 102.777 93.0278 102.859 90.1066 102.959L89.5807 102.975H89.4068C83.1959 103.195 76.9849 103.486 70.7905 103.695L69.2771 103.745H69.0576C66.9045 103.814 64.7534 103.867 62.6044 103.904H62.0351C62.1812 103.698 62.3491 103.509 62.5361 103.339C62.6933 103.194 62.863 103.062 63.0433 102.946C64.0272 102.333 65.0988 101.874 66.2213 101.583C66.4579 101.518 66.7027 101.489 66.948 101.494L68.3972 101.523H68.6208L70.8443 101.567L89.9161 101.945H89.9637L90.0983 101.918C90.3197 101.863 90.5353 101.787 90.7422 101.691C91.1004 101.54 91.4136 101.299 91.6515 100.992C91.8894 100.684 92.044 100.321 92.1003 99.9365C92.1003 99.8724 92.1169 99.8041 92.121 99.7297C92.1273 99.6291 92.1273 99.5282 92.121 99.4277C92.121 99.3573 92.121 99.2829 92.1045 99.2063C92.0879 99.1298 92.0838 99.0532 92.0693 98.9746C91.6097 96.4075 90.8271 88.5054 90.8271 88.5054V88.5302C90.8271 88.5302 90.8271 88.1931 90.8457 87.6263C90.8457 87.5828 90.8457 87.5352 90.8457 87.4877V87.3656C90.8457 87.2394 90.8602 87.1029 90.8685 86.9519C90.8685 86.8629 90.8809 86.7719 90.8871 86.6768C90.8975 86.5382 90.9099 86.3954 90.9223 86.2465C90.9213 86.2376 90.9213 86.2285 90.9223 86.2196C90.9306 86.1258 90.9389 86.0307 90.9472 85.9341C90.9472 85.9341 90.9472 85.9135 90.9472 85.9031C91.2556 82.8519 92.2266 78.0217 95.2948 76.2324C96.7337 75.3905 97.6861 75.2208 98.3134 75.3863C99.2284 75.6263 99.4582 76.5778 99.5079 77.1964C99.5079 77.2377 99.5079 77.277 99.5079 77.3163C99.5244 77.4322 99.534 77.5489 99.5369 77.6659Z" fill="#3A3768"/>
<path opacity="0.1" d="M61.5279 104.922C61.5279 104.945 61.5113 104.967 61.5051 104.99C61.5051 104.967 61.5196 104.945 61.53 104.922H61.5279Z" fill="black"/>
<path opacity="0.1" d="M69.5504 104.92L69.5732 104.988H69.42L69.3972 104.92H69.5504Z" fill="black"/>
<path opacity="0.1" d="M99.5369 77.6658C99.5369 77.7072 99.5369 77.73 99.5369 77.73C99.5369 77.73 98.0484 81.7948 97.3383 85.692C97.2886 85.9679 97.243 86.2347 97.2016 86.4926C97.1809 86.625 97.1623 86.7574 97.1437 86.8898C97.1036 87.1656 97.0705 87.4414 97.0443 87.7172C97.0153 88.0089 96.9925 88.2943 96.9801 88.5715C96.9635 88.8963 96.9594 89.2107 96.9677 89.5107C96.9677 89.5789 96.9677 89.6493 96.9677 89.7175C96.9677 89.8561 96.9822 89.9989 96.9905 90.1457C96.9987 90.2926 97.0112 90.4415 97.0236 90.5926C97.036 90.7436 97.0484 90.8801 97.0629 91.027C97.0774 91.1738 97.0919 91.3145 97.1085 91.4593C97.1747 92.0447 97.2575 92.6591 97.3528 93.2838C98.0008 97.4976 99.1995 102.218 99.1995 102.218C99.1995 102.218 99.2595 102.408 99.332 102.727H98.8641C95.9511 102.775 93.032 102.857 90.1108 102.957L89.5849 102.973H89.411C83.2 103.192 76.9891 103.484 70.7947 103.693L69.2813 103.743H69.0618C66.9087 103.812 64.7576 103.865 62.6086 103.902H62.0393H62.0206C62.1711 103.688 62.3447 103.492 62.5382 103.317C62.6951 103.168 62.8656 103.035 63.0475 102.919C64.0323 102.308 65.1036 101.848 66.2255 101.556C66.4624 101.493 66.707 101.464 66.9521 101.469L68.4014 101.498H68.625L70.8547 101.542L89.941 101.918H89.9741C89.9741 101.918 90.03 101.918 90.1232 101.887C90.3467 101.832 90.5638 101.753 90.7712 101.653C91.1215 101.503 91.4281 101.267 91.6623 100.966C91.8965 100.666 92.0508 100.311 92.1107 99.9344C92.1107 99.8703 92.1273 99.802 92.1314 99.7275C92.1376 99.627 92.1376 99.5261 92.1314 99.4255C92.1314 99.3552 92.1314 99.2807 92.1148 99.2042C92.0983 99.1276 92.0941 99.0366 92.0796 98.9497C91.62 96.3826 90.8375 88.4805 90.8375 88.4805C90.8375 88.4805 90.8375 88.1433 90.8561 87.5765C90.8561 87.5331 90.8561 87.4855 90.8561 87.4379V87.3159C90.8561 87.1897 90.8706 87.0532 90.8789 86.9022C90.8789 86.8132 90.8913 86.7222 90.8975 86.627C90.9078 86.4884 90.9203 86.3457 90.9327 86.1968C90.9317 86.1878 90.9317 86.1788 90.9327 86.1699C90.941 86.0761 90.9492 85.981 90.9575 85.8844C90.9575 85.8844 90.9575 85.8637 90.9575 85.8534C90.9948 85.4728 91.0445 85.0632 91.1066 84.635C91.5372 81.6396 92.6138 77.7279 95.2969 76.1537C96.6985 75.3262 97.6364 75.1525 98.2658 75.2952C99.2347 75.5166 99.4645 76.5136 99.508 77.1425C99.508 77.1839 99.508 77.2232 99.508 77.2625C99.5266 77.3961 99.5363 77.5309 99.5369 77.6658Z" fill="black"/>
<path d="M61.5279 104.922C61.5279 104.945 61.5113 104.967 61.5051 104.99C61.5051 104.967 61.5196 104.945 61.53 104.922H61.5279Z" fill="#3A3768"/>
<path d="M69.5504 104.92L69.5732 104.988H69.42L69.3972 104.92H69.5504Z" fill="#3A3768"/>
<path d="M99.007 77.49C99.007 77.49 96.3052 84.8667 96.4356 89.2811C96.5661 93.6955 98.6757 101.991 98.6757 101.991C98.6757 101.991 98.7668 102.282 98.8641 102.748C95.9512 102.795 93.032 102.878 90.1108 102.977L89.5849 102.994H89.411C83.2 103.213 76.9891 103.505 70.7947 103.714L69.2813 103.763H69.0618C66.9087 103.832 64.7576 103.885 62.6086 103.923H62.0393H62.0206H61.3292C61.6141 103.445 62.0025 103.037 62.4658 102.729L62.5217 102.69C63.5074 102.089 64.578 101.639 65.6975 101.356C65.9345 101.293 66.1791 101.263 66.4242 101.269L68.3372 101.306H68.5608L70.8651 101.351L89.4462 101.722C89.712 101.672 89.9702 101.588 90.2143 101.471C90.2955 101.434 90.3743 101.392 90.4503 101.345C90.6835 101.211 90.8932 101.04 91.0714 100.838C91.4627 100.394 91.7236 99.7316 91.5497 98.7697C91.088 96.2026 90.3075 88.3005 90.3075 88.3005C90.3075 88.3005 90.175 78.6857 94.7876 75.9861C96.6509 74.896 97.6985 74.9332 98.2844 75.3655C98.3019 75.3766 98.3186 75.3891 98.3341 75.4028C99.1415 76.0523 99.007 77.49 99.007 77.49Z" fill="#3A3768"/>
<path d="M24.6617 95.5902L24.5872 96.3618L24.1358 101.097C23.4305 100.949 22.7266 100.795 22.0241 100.633L22.552 96.3287L22.7301 94.8662L24.6617 95.5902Z" fill="#EAECF0"/>
<path d="M11.4116 94.0595L22.6865 70.0823L68.1032 73.6217L72.2894 94.0595H11.4116Z" fill="#EFC6CD"/>
<path d="M11.4116 96.1509V94.0596H72.2894V97.117L11.4116 96.1509Z" fill="#D48A9B"/>
<path d="M28.5787 90.5573L55.8158 91.1117C55.8762 91.1131 55.9359 91.1 55.9901 91.0735C56.0443 91.047 56.0914 91.0079 56.1273 90.9594C56.1632 90.9109 56.1869 90.8546 56.1965 90.7951C56.2061 90.7355 56.2012 90.6746 56.1823 90.6173L51.9361 79.1738L33.5909 78.8242L28.1646 89.9243C28.1343 89.9931 28.1216 90.0683 28.1277 90.1432C28.1339 90.2181 28.1586 90.2902 28.1998 90.3531C28.2409 90.416 28.2971 90.4676 28.3633 90.5033C28.4295 90.5389 28.5035 90.5575 28.5787 90.5573Z" fill="#DFE6F5"/>
<path opacity="0.15" d="M28.5787 90.5573L55.8158 91.1117C55.8762 91.1131 55.9359 91.1 55.9901 91.0735C56.0443 91.047 56.0914 91.0079 56.1273 90.9594C56.1632 90.9109 56.1869 90.8546 56.1965 90.7951C56.2061 90.7355 56.2012 90.6746 56.1823 90.6173L51.9361 79.1738L33.5909 78.8242L28.1646 89.9243C28.1343 89.9931 28.1216 90.0683 28.1277 90.1432C28.1339 90.2181 28.1586 90.2902 28.1998 90.3531C28.2409 90.416 28.2971 90.4676 28.3633 90.5033C28.4295 90.5389 28.5035 90.5575 28.5787 90.5573Z" fill="black"/>
<path d="M28.3593 90.0795L55.878 90.6587L52.1369 79.3372C52.0765 79.1538 51.9607 78.9936 51.8053 78.8787C51.6499 78.7638 51.4627 78.7 51.2694 78.696L33.5847 78.3608L28.3593 90.0795Z" fill="#DFE6F5"/>
<path d="M30.6325 87.5164L33.9306 80.2659C34.0007 80.113 34.1132 79.9834 34.2549 79.8924C34.3965 79.8015 34.5613 79.7531 34.7297 79.7529H42.9261C43.1584 79.7529 43.3811 79.8451 43.5453 80.0092C43.7096 80.1733 43.8018 80.3959 43.8018 80.6279V88.4618C43.8017 88.5803 43.7775 88.6977 43.7307 88.8066C43.6839 88.9156 43.6154 89.0139 43.5295 89.0957C43.4436 89.1775 43.342 89.241 43.2308 89.2825C43.1196 89.3239 43.0012 89.3424 42.8826 89.3368L31.3861 88.7514C31.2436 88.7442 31.105 88.7023 30.9824 88.6294C30.8597 88.5565 30.7568 88.4547 30.6825 88.333C30.6082 88.2112 30.5649 88.0732 30.5561 87.9309C30.5474 87.7886 30.5736 87.6463 30.6325 87.5164Z" fill="#4C4C56"/>
<path d="M46.7976 86.5981L46.9384 82.4609C46.9421 82.2954 47.0105 82.1378 47.1288 82.0219C47.2472 81.906 47.4062 81.8408 47.5719 81.8403H49.9942C50.143 81.8411 50.2867 81.8942 50.4003 81.9902C50.5139 82.0863 50.59 82.2192 50.6152 82.3658L51.3274 86.4802C51.343 86.5709 51.3387 86.664 51.3148 86.7529C51.2908 86.8417 51.2478 86.9244 51.1888 86.995C51.1297 87.0657 51.0559 87.1226 50.9726 87.162C50.8893 87.2013 50.7985 87.2221 50.7063 87.2228L47.429 87.2518C47.3442 87.2516 47.2604 87.2343 47.1824 87.2011C47.1044 87.1679 47.0338 87.1194 46.9749 87.0584C46.916 86.9974 46.87 86.9253 46.8395 86.8462C46.8091 86.7672 46.7948 86.6828 46.7976 86.5981Z" fill="#D1D9EC"/>
<path d="M14.7075 59.6897L23.8397 58.9284C23.9732 58.9108 24.1087 58.937 24.2259 59.0031C24.3432 59.0691 24.4358 59.1714 24.4898 59.2946L33.1251 78.8243L28.3054 89.6348C28.4565 89.2956 28.5683 91.9351 27.4773 89.6472L13.7531 61.0405C13.5689 60.6578 14.279 59.7435 14.7075 59.6897Z" fill="#4C4C56"/>
<path opacity="0.15" d="M14.7075 59.6897L23.8397 58.9284C23.9732 58.9108 24.1087 58.937 24.2259 59.0031C24.3432 59.0691 24.4358 59.1714 24.4898 59.2946L33.1251 78.8243L28.3054 89.6348C28.4565 89.2956 28.5683 91.9351 27.4773 89.6472L13.7531 61.0405C13.5689 60.6578 14.279 59.7435 14.7075 59.6897Z" fill="black"/>
<path d="M14.7076 59.6897L24.3036 58.465C24.437 58.4475 24.5725 58.4737 24.6898 58.5397C24.807 58.6057 24.8996 58.708 24.9536 58.8312L33.591 78.3609L28.3655 90.0795L14.2169 60.5771C14.1736 60.4877 14.1523 60.3892 14.155 60.2899C14.1577 60.1906 14.1842 60.0934 14.2322 60.0064C14.2803 59.9194 14.3486 59.8453 14.4313 59.7902C14.514 59.735 14.6088 59.7006 14.7076 59.6897Z" fill="#4C4C56"/>
<path d="M17.1029 61.0632L24.0406 59.9834C24.1793 59.9615 24.3213 59.9872 24.4435 60.0564C24.5657 60.1255 24.6608 60.234 24.7134 60.3641L31.9802 78.1251C32.01 78.1976 32.0243 78.2756 32.0222 78.354C32.02 78.4323 32.0015 78.5094 31.9678 78.5802L28.6408 85.5266C28.5956 85.6232 28.5238 85.7049 28.4338 85.7621C28.3438 85.8194 28.2393 85.8498 28.1326 85.8498C28.0258 85.8498 27.9213 85.8194 27.8313 85.7621C27.7413 85.7049 27.6695 85.6232 27.6243 85.5266L16.6329 61.9445C16.5911 61.8568 16.5704 61.7605 16.5725 61.6634C16.5747 61.5663 16.5996 61.4711 16.6454 61.3854C16.6911 61.2996 16.7563 61.2258 16.8358 61.1699C16.9152 61.1139 17.0067 61.0774 17.1029 61.0632Z" fill="#47B2E4"/>
<path d="M91.1273 101.082C91.1273 101.082 90.9845 101.318 90.7754 101.703L90.7567 101.738C90.5704 102.069 90.3427 102.503 90.1108 102.979L89.5849 102.996H89.411C83.2001 103.215 76.9891 103.507 70.7947 103.716L69.2813 103.765H69.0618C66.9087 103.834 64.7576 103.887 62.6086 103.925H62.0393H62.0207H61.3292L60.3685 103.937C59.3706 103.947 58.3748 103.952 57.3811 103.954H56.1968C52.5489 103.943 48.9155 103.863 45.3049 103.674L44.9032 103.652C45.6134 102.108 46.8825 99.5784 47.9135 98.7696C48.7106 98.149 54.435 97.4602 59.6998 96.9554L60.2547 96.9016H60.2671L61.737 96.7651C63.7514 96.581 65.5795 96.4321 66.8838 96.3307L67.0039 96.3204L66.3249 94.0449L65.3415 90.7351L65.6209 87.9549L65.6437 87.7315H65.6127C65.3323 87.7613 65.0489 87.7259 64.7845 87.6281L54.9526 87.2888H54.7745L50.9983 87.1544C48.9735 87.082 47.5346 87.0282 47.4787 87.0178C47.4193 87.0079 47.361 86.992 47.3048 86.9703C47.2167 86.9368 47.1353 86.8878 47.0646 86.8255C46.9821 86.755 46.9121 86.6711 46.8576 86.5772H46.8162H46.7251L46.191 86.6124L45.9198 86.631C45.9094 86.6021 45.9011 86.5731 45.8908 86.5462C45.8659 86.4655 45.8411 86.389 45.8183 86.3104H45.6755L43.8122 86.2711H43.779C43.779 86.2711 38.9718 86.6372 36.4605 85.7229C35.5392 85.3878 34.9263 84.881 34.974 84.1218C34.9844 83.9491 35.0207 83.779 35.0816 83.6171C34.2742 82.109 38.2182 79.3578 41.2243 80.117C42.0365 80.349 42.8924 80.3845 43.7211 80.2204C44.1708 80.1232 44.5945 79.9306 44.9633 79.6557C45.0005 79.6288 45.0337 79.6019 45.0647 79.575C45.015 79.544 44.9633 79.5171 44.9157 79.4923C44.7096 79.3839 44.4883 79.3071 44.2594 79.2647L45.0751 79.0268H45.0875C45.0875 79.0268 47.9859 78.762 49.872 78.6565H49.8844C50.4455 78.6276 50.9196 78.609 51.2012 78.6172C52.4433 78.6524 54.8636 77.765 54.9671 77.4919C55.0706 77.2189 56.1761 77.4919 56.1761 77.4919L57.143 77.1154C58.1098 76.741 58.6626 76.2301 58.6626 75.8536C58.6626 75.4771 59.5259 75.0696 59.5259 75.0696C59.9151 74.4159 60.6791 73.7146 61.4803 73.0941C62.1739 72.5583 62.8943 72.0804 63.4285 71.7474C63.6355 70.4073 63.9119 69.0789 64.2566 67.7674C64.623 66.5449 65.7597 65.6388 66.1675 65.3451L66.3166 65.2458C66.2022 64.7305 66.05 64.2244 65.8611 63.7315C65.8473 63.6902 65.8307 63.6488 65.8114 63.6074C65.77 63.5102 65.7265 63.4151 65.6831 63.3261L65.6189 63.202C65.5133 63.2227 65.4118 63.2413 65.3 63.2558C64.9573 63.306 64.6113 63.3316 64.2649 63.3323C62.7125 63.3381 61.201 62.8355 59.9615 61.9016C58.7221 60.9676 57.823 59.6537 57.4018 58.1608C57.4018 58.1608 57.4018 58.1608 57.4018 58.1484C57.2357 57.5418 57.1521 56.9155 57.1533 56.2866C57.1524 55.6831 57.2318 55.082 57.3893 54.4994C57.4204 54.3752 57.4577 54.2532 57.497 54.1311C57.5009 54.1171 57.5057 54.1032 57.5115 54.0898C57.5301 54.0339 57.5488 53.976 57.5695 53.9202C57.263 53.9667 56.9539 53.9936 56.644 54.0008H56.437C55.8459 54.0229 55.2564 53.9251 54.7041 53.7133C54.5703 53.6563 54.4421 53.5871 54.3211 53.5064C54.3148 53.5035 54.3092 53.4993 54.3046 53.494C54.1473 53.4022 54.0037 53.2887 53.8781 53.1568C54.1085 52.9805 54.3016 52.7603 54.4462 52.5089C54.5909 52.2575 54.6841 51.9799 54.7207 51.6923C54.7766 51.2454 54.7021 50.7469 54.9691 50.3828C55.1059 50.2184 55.2697 50.0785 55.4536 49.9691C56.555 49.2182 57.4287 48.188 58.4245 47.3006C59.4203 46.4132 60.6253 45.6457 61.9648 45.6044C63.7618 45.5485 65.3435 46.7979 67.124 47.0338C67.6706 47.1062 68.2316 47.0813 68.7658 47.2179C69.3643 47.4049 69.9276 47.6901 70.4324 48.0619C70.8883 48.321 71.2914 48.6634 71.6207 49.0713C71.8494 49.4251 72.0134 49.8166 72.1052 50.2277C72.3358 51.094 72.4746 51.9822 72.5193 52.8776C72.5669 53.8147 72.5193 54.7579 72.6186 55.6888C72.689 56.4973 72.9624 57.275 73.4136 57.9498H73.4406C73.5192 58.0601 73.6049 58.1651 73.6973 58.2642C73.5213 58.3201 73.3453 58.3697 73.1652 58.4132C72.8658 58.4898 72.5624 58.5499 72.2563 58.5931C72.116 58.6162 71.9741 58.628 71.8319 58.6283C71.7332 58.6308 71.6345 58.6218 71.5379 58.6014L71.7201 58.7235L72.2253 59.0627L72.4157 59.1889L72.7988 59.4433C72.8857 59.1889 73.0058 59.1206 73.1445 59.1372C73.4261 58.8724 73.8463 59.4454 73.8463 59.4454C74.0927 59.917 74.7552 60.3866 75.3411 60.7341C75.6855 60.9368 76.04 61.1218 76.4032 61.2885C84.14 65.8953 83.6493 72.7879 84.1048 73.334C84.5603 73.8801 84.5892 75.8577 84.5892 75.8577C84.5892 75.8577 85.73 82.5786 86.2455 83.1599C86.761 83.7412 86.2786 83.9439 86.7279 84.5934C87.1771 85.243 87.0736 86.9806 87.0736 86.9806C87.0736 86.9806 87.3842 91.0744 88.4897 91.9618C89.4814 92.7582 90.8064 99.4584 91.0694 100.828L91.1273 101.082Z" fill="url(#paint0_linear)"/>
<path d="M45.781 79.5193C45.781 79.5193 44.7065 81.2093 41.6631 80.4315C38.6198 79.6537 34.593 82.5953 35.742 84.0475C36.8911 85.4996 44.3007 83.6338 44.3007 83.6338L47.1433 83.0587L46.957 80.6943L45.781 79.5193Z" fill="#D38884"/>
<path opacity="0.1" d="M45.781 79.5193C45.781 79.5193 44.7065 81.2093 41.6631 80.4315C38.6198 79.6537 34.593 82.5953 35.742 84.0475C36.8911 85.4996 44.3007 83.6338 44.3007 83.6338L47.1433 83.0587L46.957 80.6943L45.781 79.5193Z" fill="black"/>
<path d="M46.7706 79.4281L45.4518 79.3599L44.6403 79.5957C44.6403 79.5957 47.2116 79.968 46.5035 83.4495L49.2757 83.2819L46.7706 79.4281Z" fill="#A36468"/>
<path opacity="0.1" d="M46.7706 79.4281L45.4518 79.3599L44.6403 79.5957C44.6403 79.5957 47.2116 79.968 46.5035 83.4495L49.2757 83.2819L46.7706 79.4281Z" fill="black"/>
<path d="M64.2276 71.6421C64.2276 71.6421 60.6087 73.7107 59.5921 75.4297C59.5921 75.4297 58.7474 75.8434 58.7474 76.2075C58.7474 76.5716 58.205 77.0846 57.2589 77.4487L56.3107 77.821C56.3107 77.821 55.2279 77.55 55.1265 77.821C55.025 78.092 52.6586 78.9691 51.4392 78.936C50.2198 78.9029 45.4518 79.3497 45.4518 79.3497C46.325 79.7458 47.038 80.426 47.4742 81.2793C47.9104 82.1326 48.0441 83.1085 47.8534 84.0475L59.1201 83.5759L63.3808 82.6285L65.8859 80.1275L64.2276 71.6421Z" fill="#47B2E4"/>
<path opacity="0.1" d="M63.7757 72C63.7757 72 60.1568 74.0686 59.1403 75.7876C59.1403 75.7876 58.2956 76.2013 58.2956 76.5654C58.2956 76.9295 57.7532 77.4425 56.807 77.8066L55.8588 78.1789C55.8588 78.1789 54.7761 77.9079 54.6746 78.1789C54.5732 78.4499 52.2068 79.327 50.9874 79.2939C49.768 79.2608 45 79.7076 45 79.7076C45.8732 80.1037 46.5862 80.7839 47.0224 81.6372C47.4586 82.4905 47.5923 83.4664 47.4016 84.4054L58.6683 83.9338L62.929 82.9864L65.4341 80.4854L63.7757 72Z" fill="#47B2E4"/>
<path d="M47.6257 86.598L46.0316 86.567L44.1683 86.5277C44.1683 86.5277 35.3694 87.2042 35.5412 84.3929C35.7131 81.5817 42.481 80.5949 43.423 81.4017C44.1372 82.0119 45.7893 82.5043 46.5429 82.7049C46.7831 82.7691 46.9301 82.8042 46.9301 82.8042L47.6257 86.598Z" fill="#D38884"/>
<path opacity="0.1" d="M47.6257 86.5981L46.0316 86.5671C45.396 84.3847 46.133 83.1828 46.5512 82.7112C46.7914 82.7753 46.9384 82.8105 46.9384 82.8105L47.6257 86.5981Z" fill="black"/>
<path d="M48.7002 86.718L47.044 86.8338L46.2572 86.8876C45.1744 83.7102 46.9239 82.4587 46.9239 82.4587H47.4415L48.2882 82.5601L48.7002 86.718Z" fill="#A36468"/>
<path d="M68.7616 65.6265L66.7989 69.35C66.7989 69.35 66.4988 65.579 65.6251 63.802C65.4015 63.3469 65.1406 63.0242 64.8363 62.927C64.0082 62.6664 68.7699 57.4514 68.7699 57.4514C68.9293 57.4845 69.8403 58.072 70.9562 58.8312C72.1839 59.6586 73.6621 60.6681 74.6558 61.3135C76.5419 62.5154 68.7616 65.6265 68.7616 65.6265Z" fill="#D38884"/>
<path d="M66.2441 65.6968C66.2441 65.6968 64.6665 66.7083 64.2276 68.1957C63.7887 69.683 63.3808 72.3536 63.3808 72.3536C63.3808 72.3536 64.093 78.7414 64.4636 79.0455C64.8342 79.3496 66.2441 85.7374 66.2441 85.7374L67.6105 84.8252L65.8176 76.7804C65.8176 76.7804 67.0101 66.4435 66.2441 65.6968Z" fill="#47B2E4"/>
<path opacity="0.1" d="M67.8633 66C67.8633 66 66.2857 67.0116 65.8468 68.4989C65.4079 69.9862 65 72.6568 65 72.6568C65 72.6568 65.7122 79.0446 66.0828 79.3487C66.4534 79.6528 67.8633 86.0407 67.8633 86.0407L69.2297 85.1284L67.4368 77.0836C67.4368 77.0836 68.6293 66.7468 67.8633 66Z" fill="#47B2E4"/>
<path d="M73.1093 79.9473H65.2234L66.5008 67.5171H73.1093V79.9473Z" fill="#A36468"/>
<path d="M54.8387 104.922H54.934L54.7559 104.99L54.8387 104.922Z" fill="#67647E"/>
<path d="M69.6746 99.2601L68.1322 99.8517L67.9252 99.9283L62.3726 102.061L60.2546 102.874L57.3727 103.981H56.1968C52.5489 103.97 48.9155 103.89 45.3048 103.701C46.0046 102.169 47.2281 99.7152 48.226 98.9229C49.0045 98.3023 54.5737 97.6321 59.7143 97.1274C60.3561 97.0653 60.9896 97.0053 61.6065 96.9495L61.7535 96.935C63.7949 96.7488 65.6416 96.5978 66.9293 96.4944L67.1364 96.4778L68.7554 96.3537L68.9251 96.1841L69.1322 97.0695L69.304 97.7769L69.6746 99.2601Z" fill="#67647E"/>
<path opacity="0.1" d="M54.8387 104.922H54.934L54.7559 104.99L54.8387 104.922Z" fill="black"/>
<path opacity="0.1" d="M69.6746 99.2601L68.1322 99.8517L67.9252 99.9283L62.3726 102.061L60.2546 102.874L57.3727 103.981H56.1968C52.5489 103.97 48.9155 103.89 45.3048 103.701C46.0046 102.169 47.2281 99.7152 48.226 98.9229C49.0045 98.3023 54.5737 97.6321 59.7143 97.1274C60.3561 97.0653 60.9896 97.0053 61.6065 96.9495L61.7535 96.935C63.7949 96.7488 65.6416 96.5978 66.9293 96.4944L67.1364 96.4778L68.7554 96.3537L68.9251 96.1841L69.1322 97.0695L69.304 97.7769L69.6746 99.2601Z" fill="black"/>
<path d="M54.8387 104.922H54.934L54.7559 104.99L54.8387 104.922Z" fill="#67647E"/>
<path d="M61.5279 104.922C61.5279 104.945 61.5113 104.967 61.5051 104.99C61.5051 104.967 61.5196 104.945 61.53 104.922H61.5279Z" fill="#67647E"/>
<path d="M69.5732 104.988H69.42L69.3972 104.92H69.5504L69.5732 104.988Z" fill="#67647E"/>
<path d="M70.9934 97.0982L70.8651 101.355V101.585V101.608L70.8009 103.716L69.2875 103.765H69.068C66.9149 103.834 64.7638 103.887 62.6148 103.925H62.0455H62.0269H61.3354L60.3747 103.937C59.3769 103.947 58.381 103.952 57.3873 103.954H56.1968C57.2734 103.287 58.6667 102.553 60.1656 101.819C60.8385 101.488 61.5362 101.159 62.236 100.834C64.0993 99.9694 65.9853 99.1523 67.5236 98.5007L67.7202 98.418C68.3165 98.1656 68.8569 97.9401 69.3185 97.7498C70.3164 97.3361 70.95 97.0878 70.9934 97.0713V97.0982Z" fill="#67647E"/>
<path opacity="0.1" d="M57.1658 79.6022C57.5529 80.4089 57.9525 81.2322 58.5922 81.8611C58.6937 81.9604 58.8696 82.0514 58.9607 81.9418C58.9894 81.8961 59.0031 81.8426 59.0001 81.7887C58.9803 81.4085 58.8509 81.0421 58.6274 80.7337C58.4204 80.4151 58.1761 80.1255 57.9918 79.7946C57.8076 79.4636 57.5964 78.8264 57.1823 78.7396C56.6503 78.6279 57.0478 79.3581 57.1658 79.6022Z" fill="black"/>
<path opacity="0.1" d="M70.9479 58.8251C70.9189 58.9285 70.8878 59.0319 70.8547 59.1312C70.4727 60.3008 69.7876 61.3484 68.869 62.1677C67.9505 62.987 66.8313 63.5488 65.6251 63.7959C65.4015 63.3408 65.1406 63.0181 64.8363 62.9209C64.0082 62.6603 68.7699 57.4453 68.7699 57.4453C68.921 57.4784 69.832 58.0762 70.9479 58.8251Z" fill="black"/>
<path d="M71.1963 56.837C71.1963 58.2141 70.7876 59.5603 70.0218 60.7054C69.2561 61.8504 68.1677 62.7429 66.8944 63.2699C65.621 63.7969 64.2198 63.9348 62.868 63.6661C61.5162 63.3974 60.2745 62.7343 59.2999 61.7605C58.3254 60.7867 57.6616 59.546 57.3928 58.1954C57.1239 56.8447 57.2619 55.4447 57.7893 54.1724C58.3168 52.9001 59.21 51.8126 60.356 51.0475C61.502 50.2824 62.8493 49.874 64.2276 49.874C65.1432 49.8721 66.0503 50.0509 66.8966 50.4002C67.743 50.7494 68.512 51.2622 69.1594 51.9092C69.8069 52.5561 70.3202 53.3245 70.6697 54.1701C71.0192 55.0158 71.1982 55.922 71.1963 56.837Z" fill="#D38884"/>
<path d="M66.9004 67.1802C66.9004 67.1802 65.4512 68.9385 65.683 70.0886H67.4407L68.7264 68.6406L66.9004 67.1802Z" fill="#67647E"/>
<path opacity="0.1" d="M72.0555 59.7559L66.5277 67.3497C66.5277 67.3497 67.948 69.379 68.6249 69.4804C69.3019 69.5817 73.1631 60.4985 73.1631 60.4985L72.0555 59.7559Z" fill="black"/>
<path d="M72.1259 59.6194L66.5961 67.2236C66.5961 67.2236 68.0164 69.2508 68.6934 69.3522C69.3704 69.4536 73.2315 60.3724 73.2315 60.3724L72.1259 59.6194Z" fill="#A36468"/>
<path d="M65.8859 69.3459C65.8859 69.3459 65.6147 73.6031 65.3435 74.4492C65.0723 75.2953 65.3435 83.067 65.3435 83.067L67.8817 82.0203L67.4407 70.0886L65.8859 69.3459Z" fill="#67647E"/>
<path opacity="0.1" d="M69.5504 104.92L69.5732 104.988H69.42L69.3972 104.92H69.5504Z" fill="black"/>
<path opacity="0.1" d="M90.3447 101.254C90.3447 101.254 90.2971 101.333 90.2185 101.461C90.1398 101.589 90.0549 101.748 89.9452 101.951C89.9396 101.959 89.9347 101.967 89.9307 101.976C89.7775 102.259 89.5953 102.607 89.411 102.985C83.2001 103.205 76.9891 103.496 70.7947 103.705L69.2813 103.755H69.0618L68.4117 101.562V101.54L68.3434 101.308L67.9294 99.9302L67.5153 98.5297L67.0867 97.0362L66.9294 96.4942L66.888 96.3577L66.2131 94.0615L65.298 90.9441L65.594 87.9695L65.6147 87.744L65.8818 85.0797L65.9191 84.2894L65.9398 83.8757V83.7578L65.9853 82.798L66.122 79.9433L66.1924 78.4829L66.2048 78.2615L66.3456 75.3303L66.7451 74.1326L66.9522 73.5368L67.4118 72.1529L67.5111 71.8116C67.6561 71.2924 67.948 70.2664 68.2213 69.2796L68.2461 69.1948L68.2648 69.1307L68.4594 68.4294L68.7016 67.5296C68.7927 67.1841 68.8527 66.938 68.8672 66.8532C68.89 66.7063 69.2813 66.0568 69.7947 65.1983C70.8299 63.4875 72.3868 60.9701 72.5648 60.1261C72.5656 60.1192 72.5656 60.1122 72.5648 60.1054C72.5754 60.054 72.59 60.0035 72.6083 59.9544C72.6932 59.702 72.8153 59.6337 72.9437 59.6503C73.0022 59.6597 73.0579 59.6816 73.1072 59.7144C73.232 59.7984 73.3413 59.9034 73.4302 60.0247C73.6724 60.4901 74.3204 60.9556 74.8939 61.301L75.0057 61.3652L75.072 61.4045C75.5482 61.6754 75.9332 61.8492 75.9332 61.8492C83.5106 66.4126 83.0386 73.241 83.4775 73.7809C83.9164 74.3208 83.9516 76.2839 83.9516 76.2839C83.9516 76.2839 85.0675 82.9428 85.5747 83.5241C86.082 84.1053 85.6099 84.3019 86.0488 84.9452C86.4877 85.5885 86.3863 87.2889 86.3863 87.2889C86.3863 87.2889 86.6906 91.3434 87.7734 92.2225C88.8562 93.1017 90.3447 101.254 90.3447 101.254Z" fill="black"/>
<path d="M90.5476 101.188L90.4565 101.345C90.3841 101.473 90.2681 101.676 90.1294 101.931L90.1149 101.959C89.9576 102.251 89.7713 102.605 89.587 102.994H89.4131C83.2021 103.213 76.9912 103.505 70.7967 103.714L69.2833 103.763L68.6353 101.562V101.54L68.567 101.308L68.1384 99.8599L67.7244 98.4532L67.3103 97.0486L67.1468 96.486L66.4387 94.0698L65.5029 90.8862L65.7617 88.2984L65.7969 87.953L66.0826 85.0135L66.1923 82.7214L66.3269 79.9516L66.3621 79.2255L66.4014 78.3857L66.418 78.0319L66.5526 75.2641L66.9522 74.0685L67.124 73.5534L67.5256 72.3433L67.6105 72.0868C67.6105 72.0868 67.9977 70.7277 68.3724 69.381C68.3869 69.3314 68.4014 69.2817 68.4138 69.2321C68.4469 69.1162 68.478 69.0004 68.5111 68.8866C68.5442 68.7708 68.5753 68.657 68.6043 68.5432C68.7099 68.1667 68.8113 67.8151 68.8817 67.5255C68.9831 67.1469 69.0515 66.8718 69.066 66.7828C69.0887 66.636 69.48 65.9678 70.0121 65.099C70.9914 63.4814 72.4199 61.1686 72.7221 60.2088C72.7385 60.1592 72.7523 60.1088 72.7636 60.0578C72.782 59.9053 72.8446 59.7615 72.9437 59.6441C73.2211 59.3772 73.6331 59.9502 73.6331 59.9502C73.8753 60.4157 74.5233 60.8832 75.0968 61.2266C75.4318 61.4276 75.7774 61.6106 76.132 61.7748C83.7094 66.3381 83.2373 73.1666 83.6762 73.7085C84.1151 74.2505 84.1503 76.2095 84.1503 76.2095C84.1503 76.2095 85.2662 82.8683 85.7735 83.4496C86.2807 84.0309 85.8087 84.2274 86.2476 84.8687C86.6865 85.5099 86.585 87.2351 86.585 87.2351C86.585 87.2351 86.8894 91.2917 87.9721 92.1708C89.0549 93.05 90.5476 101.188 90.5476 101.188Z" fill="#47B2E4"/>
<path opacity="0.1" d="M75.0968 61.3591C74.3536 62.4389 73.1424 64.3379 72.8194 65.7032C72.8194 65.7032 71.6352 66.9216 71.1942 66.8533C70.7533 66.7851 71.6083 67.7656 71.6083 67.7656L66.9563 74.2072L67.6167 72.2276C67.6167 72.2276 69.0038 67.3601 69.066 66.9216C69.1281 66.4831 72.4965 61.4584 72.7636 60.1945C72.9706 59.1829 73.6331 60.0931 73.6331 60.0931C73.8732 60.5482 74.5213 61.0178 75.0968 61.3591Z" fill="black"/>
<path d="M75.0968 61.2244C74.3536 62.3021 73.1424 64.2032 72.8194 65.5581C72.8194 65.5581 71.6352 66.7744 71.1942 66.7082C70.7533 66.6421 71.6083 67.6205 71.6083 67.6205L66.9563 74.0621L67.6167 72.0825C67.6167 72.0825 69.0038 67.2151 69.066 66.7744C69.1281 66.3338 72.4965 61.3133 72.7636 60.0494C72.9706 59.0358 73.6331 59.948 73.6331 59.948C73.8732 60.4135 74.5213 60.8789 75.0968 61.2244Z" fill="#47B2E4"/>
<path opacity="0.1" d="M81.345 74.5713C81.3802 76.0483 79.2147 78.0652 79.1132 78.1831C79.0118 78.301 72.3805 83.7683 72.3805 83.7683L67.6188 87.4173C67.0821 87.8595 66.4403 88.1559 65.7555 88.2779L66.0805 85.0136L66.4014 78.3941C67.1447 77.5666 67.8652 76.6978 67.8817 76.4206C67.9148 75.8476 69.1239 75.2374 69.1239 75.2374C69.1239 75.2374 69.9707 74.5279 69.834 74.1224C69.6974 73.717 70.2833 71.7745 70.2833 71.7745C70.5876 66.2638 76.2707 65.7239 76.2707 65.7239C76.2707 65.7239 79.0118 66.8058 80.9393 67.9538C82.8667 69.1019 81.3119 73.0964 81.345 74.5713Z" fill="black"/>
<path opacity="0.1" d="M48.7002 86.718L47.0439 86.8338C46.3442 85.6444 47.3069 82.4587 47.3069 82.4587H47.4414L48.2882 82.5601L48.7002 86.718Z" fill="black"/>
<path d="M76.2707 65.3887C76.2707 65.3887 70.5877 65.9306 70.2833 71.4393C70.2833 71.4393 69.7078 73.3673 69.8424 73.7727C69.9769 74.1782 69.1322 74.8877 69.1322 74.8877C69.1322 74.8877 67.9149 75.4959 67.89 76.071C67.8652 76.646 64.7846 79.782 64.7846 79.782C64.7846 79.782 63.501 81.2425 60.5238 81.3956C57.5467 81.5486 56.1596 82.4588 56.1596 82.4588C56.1596 82.4588 54.7104 81.4452 53.6545 81.7493C52.5986 82.0534 47.4642 82.4588 47.4642 82.4588C47.4642 82.4588 46.0999 86.9766 47.8017 87.26C48.0087 87.2931 64.7576 87.8682 64.7576 87.8682C64.7576 87.8682 65.9025 88.4081 67.6271 87.0904C69.3517 85.7727 72.3888 83.4393 72.3888 83.4393C72.3888 83.4393 79.0139 77.9637 79.1215 77.8541C79.2292 77.7445 81.3989 75.7172 81.3533 74.2423C81.3078 72.7674 82.8771 68.777 80.9393 67.6228C79.0015 66.4685 76.2707 65.3887 76.2707 65.3887Z" fill="#47B2E4"/>
<path opacity="0.1" d="M71.1963 56.8371C71.197 57.5698 71.0817 58.298 70.8547 58.9947C70.7604 58.8833 70.6746 58.7651 70.598 58.6409C70.275 58.1445 69.9514 57.648 69.627 57.1515C69.375 56.7047 69.0398 56.3101 68.6395 55.989C68.2254 55.6952 67.6374 55.5753 67.1902 55.8359C66.7969 56.0676 66.6043 56.5413 66.5691 56.9964C66.5571 57.4532 66.5688 57.9102 66.6043 58.3658C66.6209 58.5402 66.5763 58.715 66.478 58.8602C66.3311 58.9917 66.1412 59.0653 65.9439 59.0671L65.3228 59.1519C65.2667 59.1716 65.2072 59.1799 65.1479 59.1762C65.0885 59.1726 65.0305 59.1571 64.9772 59.1307C64.924 59.1043 64.8765 59.0675 64.8378 59.0224C64.799 58.9774 64.7696 58.925 64.7514 58.8685C64.2359 57.9355 63.8798 56.7771 62.9129 56.3282C62.3167 56.051 61.53 56.0696 61.147 55.5359C60.8861 55.1719 60.9213 54.6775 60.9979 54.2348C61.0822 53.7356 61.2033 53.2433 61.3602 52.7619C61.4699 52.4227 61.7142 51.7463 61.1718 51.678C60.8033 51.6304 60.294 52.0214 60.1077 52.2986C59.9213 52.5758 59.8758 52.9461 59.7433 53.2626C59.4894 53.8072 59.0324 54.2311 58.47 54.4437C58.1885 54.5593 57.8936 54.6392 57.5922 54.6816C58.1014 53.1016 59.1587 51.7553 60.5736 50.8855C61.9885 50.0156 63.6679 49.6794 65.309 49.9375C66.95 50.1955 68.4448 51.0309 69.5239 52.2929C70.603 53.555 71.1954 55.1607 71.1942 56.8206L71.1963 56.8371Z" fill="black"/>
<path d="M60.1098 52.1226C59.9214 52.4102 59.8779 52.768 59.7454 53.0845C59.4918 53.6287 59.0358 54.0524 58.4742 54.2657C57.9163 54.4745 57.3248 54.5796 56.729 54.576C55.7642 54.605 54.6876 54.4581 54.0665 53.7196C54.293 53.5444 54.4827 53.3264 54.6248 53.0779C54.7669 52.8295 54.8586 52.5555 54.8947 52.2716C54.9485 51.8289 54.876 51.3345 55.139 50.9725C55.2729 50.8141 55.4325 50.6791 55.611 50.5733C56.6917 49.8286 57.5447 48.8067 58.5219 47.9296C59.4991 47.0525 60.6771 46.2892 61.9897 46.2478C63.7474 46.194 65.3022 47.431 67.0412 47.6648C67.5754 47.7372 68.1261 47.7124 68.6478 47.8468C69.2349 48.0291 69.7871 48.3088 70.2813 48.6743C70.7284 48.9331 71.1236 49.2726 71.4469 49.6755C71.6701 50.0272 71.8305 50.415 71.921 50.8215C72.1498 51.6798 72.2886 52.5595 72.3351 53.4465C72.3827 54.3733 72.3351 55.3083 72.4344 56.2309C72.5338 57.1535 72.8278 58.0926 73.4592 58.7753C72.9986 58.9207 72.5272 59.0293 72.0494 59.1001C71.7505 59.1709 71.437 59.1463 71.1529 59.0297C70.9229 58.8836 70.7346 58.6805 70.6063 58.4402L69.6354 56.9508C69.3833 56.5039 69.0481 56.1093 68.6478 55.7882C68.2338 55.4945 67.6458 55.3745 67.1986 55.6351C66.8052 55.8668 66.6148 56.3405 66.5775 56.7956C66.5654 57.2524 66.5772 57.7095 66.6127 58.165C66.6293 58.3395 66.5846 58.5143 66.4864 58.6594C66.3388 58.7913 66.1482 58.8648 65.9502 58.8663L65.3291 58.9511C65.273 58.9708 65.2135 58.9791 65.1542 58.9755C65.0948 58.9718 65.0368 58.9563 64.9835 58.9299C64.9302 58.9035 64.8828 58.8667 64.844 58.8217C64.8052 58.7766 64.7759 58.7243 64.7577 58.6677C64.2422 57.7327 63.8861 56.5763 62.9192 56.1275C62.323 55.8503 61.5363 55.8689 61.1532 55.3352C60.8924 54.9711 60.9276 54.4767 61.0042 54.034C61.0885 53.5348 61.2096 53.0425 61.3665 52.5612C61.4762 52.2219 61.7205 51.5455 61.1781 51.4752C60.8054 51.4359 60.2961 51.8268 60.1098 52.1226Z" fill="#444053"/>
<path opacity="0.1" d="M75.8732 68.4792C76.397 68.4068 76.9477 68.3592 77.4383 68.5599C76.1609 68.0365 74.0823 68.2372 72.9188 68.957C73.0244 69.1991 75.4674 68.535 75.8732 68.4792Z" fill="black"/>
<path opacity="0.1" d="M76.4839 70.1755C77.7572 70.2603 79.0718 70.4382 80.2788 70.0244C79.2685 69.6769 78.1568 69.8962 77.0926 69.7907C76.2438 69.7059 75.3805 69.4121 74.5523 69.6273C74.2066 69.7162 72.9333 70.3016 73.0203 70.7298C74.1075 70.2491 75.3009 70.0581 76.4839 70.1755Z" fill="black"/>
<path opacity="0.1" d="M73.1113 72.9555C73.3778 72.9274 73.6473 72.9556 73.9022 73.0382C74.8573 73.2628 75.8361 73.3705 76.8172 73.3589C77.5667 73.3589 78.3741 73.2451 78.9206 72.7383L73.1113 72.9555Z" fill="black"/>
<path opacity="0.1" d="M69.01 79.4284C69.9004 79.8369 70.8794 80.0147 71.8567 79.9456C72.83 79.874 73.7915 79.6893 74.722 79.3953C75.1361 79.2733 75.5874 79.1202 75.8296 78.7603L69.01 79.4284Z" fill="black"/>
<path opacity="0.1" d="M78.1754 80.3385C80.1125 81.4454 82.2698 82.1128 84.494 82.2933C83.3719 81.8437 82.2415 81.4183 81.1028 81.017C79.9381 80.6092 78.7443 80.2897 77.5315 80.0613C77.7621 80.111 77.9808 80.2052 78.1754 80.3385Z" fill="black"/>
<path opacity="0.1" d="M81.3036 79.1532C81.6927 79.218 82.0878 79.2395 82.4816 79.2173C82.6887 79.2173 82.935 79.1884 83.0572 79.0105C82.169 79.0477 81.2933 78.8202 80.4258 78.6237C80.1794 78.5657 79.7364 78.4292 79.5294 78.5761C79.9227 78.8574 80.8067 79.0539 81.3036 79.1532Z" fill="black"/>
<path opacity="0.1" d="M86.643 97.6321C87.1088 98.4306 87.5809 99.2374 88.2247 99.9076C88.5968 100.273 88.9932 100.613 89.411 100.925C88.6429 98.9684 87.8624 96.995 86.6327 95.2843C86.3221 94.854 85.8583 94.2375 85.2932 94.1589C85.1317 94.6368 85.5395 95.4828 85.7362 95.9317C86.0062 96.5151 86.3089 97.0828 86.643 97.6321Z" fill="black"/>
<path opacity="0.1" d="M64.0082 82.9987C63.973 83.3297 63.9461 83.6958 64.1386 83.9668C64.2339 84.1004 64.3731 84.1964 64.532 84.2378C64.4326 84.213 64.3249 83.2407 64.3001 83.1083C64.2546 82.8373 64.3001 82.3305 64.1076 82.1299C64.0579 82.4154 64.0392 82.7091 64.0082 82.9987Z" fill="black"/>
<path opacity="0.1" d="M65.0847 82.6182C65.1531 82.9096 65.2801 83.184 65.4581 83.4248C65.636 83.6655 65.8612 83.8676 66.1198 84.0186C65.7575 83.5718 65.6395 82.9843 65.3248 82.494C65.2234 82.3368 65.1054 82.1114 64.9108 82.0803C64.9598 82.2624 65.0178 82.4419 65.0847 82.6182Z" fill="black"/>
<path opacity="0.1" d="M64.1738 76.6604C63.8683 76.8419 63.5286 76.9586 63.1759 77.0031C62.8233 77.0476 62.4652 77.0189 62.1242 76.919C61.9689 76.8735 61.6066 76.7121 61.6935 76.4846C61.7805 76.257 62.2008 76.4142 62.3726 76.4349L63.2732 76.5487C63.4388 76.5694 64.0392 76.739 64.1738 76.6604Z" fill="black"/>
<path opacity="0.1" d="M61.1263 78.1333C61.5507 78.0795 61.9316 78.3733 62.3291 78.5326C62.769 78.6791 63.2327 78.7408 63.6956 78.7146C63.9274 78.7146 64.1904 78.696 64.3332 78.5077C63.2546 78.2616 62.2463 77.9906 61.1263 78.1333Z" fill="black"/>
<path d="M66.2441 65.6948H66.3125L66.8197 67.5173L66.2441 68.1296V65.6948Z" fill="#A36468"/>
<g opacity="0.1">
<path opacity="0.1" d="M55.0271 51.2456C54.9643 51.5414 54.9331 51.843 54.934 52.1454C54.9598 52.0504 54.9785 51.9536 54.9899 51.8558C55.0147 51.6573 55.0127 51.4483 55.0271 51.2456Z" fill="black"/>
<path opacity="0.1" d="M61.2029 51.4813C61.2531 51.4843 61.3021 51.4976 61.347 51.5204C61.3918 51.5432 61.4314 51.5751 61.4633 51.6139C61.4952 51.6528 61.5187 51.6978 61.5323 51.7462C61.5459 51.7946 61.5493 51.8453 61.5424 51.895C61.6397 51.5517 61.6935 51.1297 61.2712 51.0676C60.9027 51.0221 60.3934 51.4131 60.207 51.6985C60.0207 51.984 59.9752 52.346 59.8427 52.6625C59.5896 53.207 59.1334 53.631 58.5715 53.8437C58.0135 54.0524 57.422 54.1576 56.8262 54.154C55.9484 54.1809 54.9774 54.0588 54.3418 53.4796C54.2657 53.5604 54.1834 53.6352 54.0955 53.703C54.7166 54.4415 55.7931 54.5884 56.76 54.5594C57.3551 54.5628 57.9458 54.4577 58.5032 54.2491C59.0652 54.0359 59.522 53.6122 59.7764 53.0679C59.9089 52.7515 59.9503 52.3936 60.1387 52.106C60.3271 51.8185 60.8343 51.4358 61.2029 51.4813Z" fill="black"/>
<path opacity="0.1" d="M72.1384 58.6926C71.8395 58.7634 71.526 58.7388 71.2419 58.6222C71.0124 58.4755 70.8242 58.2726 70.6953 58.0327C70.3724 57.5362 70.0487 57.0398 69.7244 56.5433C69.4736 56.0962 69.139 55.7015 68.7389 55.3807C68.3248 55.0849 67.7348 54.967 67.2897 55.2277C66.8942 55.4593 66.7038 55.9331 66.6582 56.3881C66.6582 56.4068 66.6582 56.4254 66.6582 56.444C66.7332 56.1102 66.9361 55.8191 67.2234 55.6331C67.6644 55.3725 68.2586 55.4924 68.6726 55.7862C69.0724 56.1079 69.4075 56.5024 69.6602 56.9487C69.9831 57.4452 70.3068 57.9417 70.6312 58.4381C70.7588 58.6789 70.9472 58.8822 71.1777 59.0277C71.4611 59.1442 71.774 59.1688 72.0721 59.098C72.5506 59.0271 73.0227 58.9185 73.4841 58.7733C73.393 58.6748 73.3087 58.5705 73.2315 58.4609C72.8723 58.561 72.5072 58.6383 72.1384 58.6926Z" fill="black"/>
<path opacity="0.1" d="M66.5712 58.2519C66.4234 58.3822 66.234 58.4555 66.037 58.4588L65.4159 58.5436C65.3598 58.5633 65.3004 58.5716 65.241 58.568C65.1817 58.5643 65.1236 58.5488 65.0704 58.5224C65.0171 58.496 64.9697 58.4592 64.9309 58.4142C64.8921 58.3691 64.8627 58.3168 64.8445 58.2602C64.329 57.3252 63.9729 56.1689 63.0061 55.72C62.4098 55.4428 61.6252 55.4614 61.2422 54.9277C61.0478 54.6019 60.9821 54.2154 61.0579 53.8438C61.0476 53.9079 61.0331 53.9699 61.0227 54.032C60.9482 54.4747 60.9109 54.9691 61.1739 55.3331C61.5569 55.8668 62.3436 55.8482 62.9378 56.1254C63.9067 56.5743 64.2628 57.7307 64.7783 58.6657C64.8253 58.7831 64.9087 58.8825 65.0164 58.9491C65.1239 58.9849 65.2394 58.9899 65.3497 58.9635L65.9708 58.8787C66.1681 58.8769 66.358 58.8034 66.5049 58.6719C66.6041 58.5271 66.6489 58.352 66.6312 58.1775C66.6131 58.2038 66.5931 58.2287 66.5712 58.2519Z" fill="black"/>
</g>
<path d="M152.26 107.03L150.933 106.845V87.2703L151.204 87.353L152.032 87.6074V88.2591V88.7493V89.492L152.042 90.3421L152.061 92.0922V92.268V92.5018V92.9982V93.2982V94.0243V94.4794L152.16 103.294V103.53L152.196 106.632V106.68L152.26 107.03Z" fill="#EAECF0"/>
<path d="M153.005 107.133L152.266 107.03V106.676V106.628L152.231 103.525V103.289L152.131 94.4752V94.0201V93.294V92.9941V92.4976V92.2638V92.088L152.113 90.338L152.102 89.4878V88.7451V88.2549V87.6033H152.899V88.3231V88.8155V89.3823V90.1332L152.916 92.0239V92.4376V92.8699V93.172V93.5422V94.0242L152.993 103.275V103.513L153.018 106.589V106.639L153.005 107.133Z" fill="#D3DAE1"/>
<path d="M233.541 84.8438V101.74C233.147 102.016 232.744 102.287 232.332 102.553L232.315 88.4866V86.993L233.541 84.8438Z" fill="#EAECF0"/>
<path d="M234.402 84.5999V101.087C234.12 101.312 233.833 101.529 233.541 101.742V84.8439L234.402 84.5999Z" fill="#D3DAE1"/>
<path d="M215.177 108.544C214.668 108.647 214.156 108.751 213.645 108.84L213.626 93.5506V92.8886L215.102 92.2681V93.6706L215.177 108.544Z" fill="#EAECF0"/>
<path d="M216.15 91.7839V108.333C215.827 108.403 215.504 108.469 215.181 108.54L215.113 93.6726V92.2701L215.21 92.2245L216.15 91.7839Z" fill="#D3DAE1"/>
<path d="M128.399 103.964L127.023 103.825L126.847 86.5856V86.0933V85.7644H128.199V86.2092V86.7015L128.399 103.964Z" fill="#EAECF0"/>
<path d="M129.424 104.074L128.389 103.964L128.182 86.7015V86.2092V85.7644H129.227V86.3002V86.7925L129.424 104.074Z" fill="#D3DAE1"/>
<path opacity="0.1" d="M215.2 92.2267L216.146 91.782V93.8692L215.224 94.1774L215.2 92.2267Z" fill="black"/>
<path opacity="0.1" d="M234.4 84.5957V87.7896L233.541 88.0772L232.313 88.4847L232.311 86.9911L233.541 84.8419L234.4 84.5957Z" fill="black"/>
<path d="M234.4 78.4561V87.2993L215.224 93.6851L215.1 84.2275L234.4 78.4561Z" fill="#D48A9B"/>
<path d="M126.592 77.8417L151.792 73.0508L234.4 78.456L215.1 84.2274L126.592 77.8417Z" fill="#EFC6CD"/>
<path opacity="0.1" d="M129.236 85.7644L129.244 86.7904L128.201 86.6994L126.845 86.5836L126.838 85.7644H129.236Z" fill="black"/>
<path opacity="0.1" d="M152.848 88.8176L152.051 88.7472L150.933 88.6521V87.2703L152.038 87.6054H152.837L152.848 88.8176Z" fill="black"/>
<path d="M126.592 77.8416V86.0705L215.225 93.685L215.1 84.2273L126.592 77.8416Z" fill="#D48A9B"/>
<path d="M196.867 87.6262H185.29V83.429L196.867 84.244V87.6262Z" fill="#D48A9B"/>
<path opacity="0.1" d="M196.867 87.6262H185.29V83.429L196.867 84.244V87.6262Z" fill="black"/>
<path opacity="0.1" d="M169.74 82.5085V89.1405L214.179 92.5185V85.4563L196.846 84.4737L195.124 86.0086L188.056 85.5184L185.536 83.6752L169.74 82.5085Z" fill="black"/>
<path d="M169.493 82.2622V88.8962L213.933 92.2722V85.21L196.6 84.2274L194.879 85.7644L187.809 85.272L185.29 83.4289L169.493 82.2622Z" fill="white"/>
<path d="M142.08 80.4812L152.591 81.2197L152.469 84.5564H145.606L141.016 82.7546L142.08 80.4812Z" fill="#D48A9B"/>
<path opacity="0.1" d="M142.08 80.4812L152.591 81.2197L152.469 84.5564H145.606L141.016 82.7546L142.08 80.4812Z" fill="black"/>
<path opacity="0.1" d="M128.068 79.5608V85.5184L168.388 88.7123V82.3865L152.837 81.4639L151.177 82.6927L144.908 82.3245L142.326 80.7275L128.068 79.5608Z" fill="black"/>
<path d="M127.822 79.3145V85.272L168.141 88.466V82.1402L152.591 81.2196L150.933 82.4463L144.662 82.0781L142.08 80.4811L127.822 79.3145Z" fill="white"/>
<path opacity="0.1" d="M214.183 79.3372L219.835 79.7074L210.471 82.5083L205.701 82.1649L214.183 79.3372Z" fill="black"/>
<path d="M214.183 79.0933L219.835 79.4615L210.471 82.2624L205.701 81.919L214.183 79.0933Z" fill="white"/>
<path d="M213.508 79.7281C213.732 79.6309 213.97 79.8108 214.208 79.8564C214.343 79.8832 214.483 79.8564 214.622 79.8832C214.9 79.9205 215.173 80.1046 215.438 80.0115L213.508 79.7281Z" fill="#D3DAE1"/>
<path d="M213.216 79.8958C213.438 79.8006 213.676 79.9806 213.914 80.0261C214.051 80.0509 214.191 80.0261 214.328 80.0509C214.603 80.0882 214.879 80.2743 215.144 80.1813L213.216 79.8958Z" fill="#D3DAE1"/>
<path d="M212.546 80.2349C212.767 80.1397 213.005 80.3176 213.243 80.3631C213.38 80.39 213.519 80.3631 213.657 80.39C213.935 80.4273 214.21 80.6134 214.473 80.5183L212.546 80.2349Z" fill="#D3DAE1"/>
<path opacity="0.1" d="M176.05 76.2385L188.652 77.0639L185.967 80.9177L172.112 79.4386L176.05 76.2385Z" fill="black"/>
<path d="M175.804 75.9922L188.406 76.8155L185.72 80.6714L171.864 79.1923L175.804 75.9922Z" fill="#3A3768"/>
<path d="M176.358 76.2756L187.35 76.9479L185.008 80.0881L172.924 78.8821L176.358 76.2756Z" fill="#D5E1F4"/>
<path d="M168.988 107.768C168.988 107.826 168.988 107.886 168.978 107.944C168.967 108.002 168.978 108.047 168.961 108.099C168.917 108.464 168.816 108.819 168.661 109.152C163.454 108.567 158.235 107.863 153.009 107.141L152.27 107.038L150.943 106.854L149.825 106.699C148.601 106.668 147.381 106.554 146.173 106.357C145.412 106.245 144.658 106.086 143.916 105.882C140.604 105.428 137.273 104.992 133.952 104.595L133.519 104.543C133.598 104.191 133.664 103.978 133.664 103.978C133.664 103.978 134.376 101.182 134.968 98.056C135.099 97.3775 135.223 96.6866 135.331 96.0018C135.418 95.4537 135.496 94.9117 135.563 94.3904C135.6 94.1029 135.631 93.8215 135.658 93.5464C135.672 93.4099 135.685 93.2734 135.695 93.1327C135.705 92.992 135.718 92.8389 135.728 92.6962C135.739 92.5535 135.743 92.4273 135.749 92.297V92.1025C135.749 91.8233 135.749 91.5316 135.739 91.2316C135.634 89.7376 135.398 88.2557 135.035 86.8028C134.977 86.5545 134.917 86.3063 134.855 86.0643C134.836 85.9857 134.815 85.9091 134.795 85.8326C134.126 83.2448 133.345 81.1306 133.345 81.1306C133.344 81.1189 133.344 81.1072 133.345 81.0955C133.346 81.0872 133.346 81.0789 133.345 81.0707C133.346 81.0534 133.346 81.0362 133.345 81.0189C133.345 80.9527 133.345 80.8514 133.345 80.7293C133.345 80.7045 133.345 80.6776 133.345 80.6507C133.36 80.4337 133.398 80.2188 133.457 80.0095C133.48 79.9351 133.506 79.8619 133.536 79.7902C133.61 79.5821 133.733 79.395 133.895 79.2451C134.058 79.0952 134.254 78.987 134.467 78.9296C135.053 78.7786 135.939 78.9296 137.277 79.7219C137.495 79.8476 137.702 79.9901 137.898 80.148C137.997 80.2267 138.105 80.3094 138.188 80.3984C139.72 81.8236 140.536 84.1756 140.97 86.3228C140.987 86.3994 141.001 86.4759 141.016 86.5525C141.068 86.8172 141.111 87.0758 141.15 87.3303C141.221 87.7771 141.277 88.2073 141.318 88.6066C141.318 88.7141 141.341 88.8134 141.351 88.9231C141.362 89.0327 141.372 89.1299 141.378 89.2292C141.405 89.5519 141.424 89.8498 141.436 90.1022C141.471 90.7724 141.465 91.1841 141.465 91.1841V91.2047C141.465 91.2047 141.465 91.2358 141.455 91.2937C141.454 91.2991 141.454 91.3048 141.455 91.3102C141.455 91.3351 141.455 91.3661 141.455 91.4013C141.455 91.4364 141.455 91.4613 141.455 91.4964C141.446 91.5833 141.436 91.6847 141.424 91.8005C141.405 91.9784 141.384 92.1873 141.36 92.4211C141.343 92.5949 141.322 92.7831 141.302 92.9817C141.256 93.3954 141.206 93.8753 141.153 94.3801C141.14 94.4752 141.13 94.5704 141.119 94.6655C141.072 95.0979 141.022 95.5488 140.97 96.0039C140.914 96.5211 140.852 97.0382 140.792 97.5492C140.778 97.6609 140.763 97.7726 140.751 97.8822C140.598 99.1234 140.444 100.251 140.32 100.952C140.301 101.056 140.287 101.161 140.279 101.266C140.277 101.302 140.277 101.338 140.279 101.374C140.273 101.468 140.273 101.562 140.279 101.655C140.38 103.422 142.291 103.724 142.291 103.724L150.968 103.552L152.256 103.527L153.005 103.513L159.769 103.378L160.39 103.366L163.754 103.3C163.983 103.295 164.211 103.322 164.431 103.381C165.47 103.659 166.461 104.092 167.371 104.665C167.655 104.848 167.911 105.071 168.131 105.327C168.142 105.337 168.151 105.348 168.16 105.36C168.619 105.91 168.902 106.584 168.974 107.296C168.974 107.344 168.974 107.392 168.974 107.439C168.99 107.538 168.99 107.65 168.988 107.768Z" fill="#3A3768"/>
<path opacity="0.1" d="M168.988 107.768C168.988 107.826 168.988 107.886 168.978 107.944C168.967 108.002 168.978 108.047 168.961 108.099C168.912 108.464 168.807 108.819 168.65 109.152C163.444 108.567 158.224 107.863 152.999 107.141L152.26 107.038L150.933 106.854L149.815 106.699C148.591 106.668 147.371 106.554 146.163 106.357C145.401 106.245 144.648 106.086 143.906 105.881C140.593 105.428 137.262 104.992 133.942 104.595L133.509 104.543C133.588 104.179 133.658 103.958 133.658 103.958C133.658 103.958 134.24 101.682 134.792 98.9248C134.832 98.7345 134.869 98.5441 134.906 98.3518L134.962 98.0601C135.091 97.3837 135.215 96.6886 135.325 96.006C135.411 95.4578 135.49 94.9158 135.556 94.3945C135.594 94.107 135.625 93.8257 135.652 93.5505C135.666 93.414 135.679 93.2775 135.689 93.1368C135.699 92.9961 135.712 92.8431 135.722 92.7003C135.732 92.5576 135.737 92.4314 135.743 92.3011V92.1066C135.743 91.8274 135.743 91.5357 135.732 91.2358C135.631 89.7418 135.397 88.2598 135.035 86.8069C134.977 86.5559 134.917 86.3097 134.855 86.0684C134.834 85.9898 134.815 85.9132 134.795 85.8367C134.124 83.2406 133.345 81.1141 133.345 81.1141C133.346 81.1093 133.346 81.1044 133.345 81.0996C133.346 81.0913 133.346 81.083 133.345 81.0748C133.346 81.0575 133.346 81.0403 133.345 81.0231C133.345 80.9569 133.345 80.8555 133.345 80.7334C133.345 80.7086 133.345 80.6817 133.345 80.6548C133.358 80.438 133.394 80.2232 133.451 80.0136C133.474 79.9412 133.498 79.8667 133.527 79.7943C133.602 79.5748 133.731 79.3778 133.903 79.2218C134.074 79.0658 134.283 78.956 134.509 78.9027C135.095 78.7662 135.97 78.9358 137.279 79.7012C137.506 79.8344 137.722 79.9851 137.925 80.1522C138.022 80.2328 138.115 80.3135 138.206 80.4004C139.726 81.8339 140.536 84.1818 140.966 86.3228C140.983 86.3994 140.997 86.478 141.012 86.5545C141.063 86.8172 141.107 87.0779 141.146 87.3302C141.217 87.7771 141.27 88.2052 141.312 88.6024C141.322 88.7121 141.335 88.8196 141.343 88.9231C141.351 89.0265 141.364 89.1299 141.37 89.2292C141.397 89.5519 141.415 89.8498 141.428 90.1022C141.463 90.7724 141.457 91.184 141.457 91.184V91.2544C141.457 91.2668 141.457 91.2792 141.457 91.2937C141.456 91.2991 141.456 91.3048 141.457 91.3102C141.457 91.3351 141.457 91.3661 141.457 91.4012C141.457 91.4364 141.457 91.4612 141.457 91.4964C141.449 91.5833 141.438 91.6846 141.426 91.8005C141.407 91.9784 141.386 92.1873 141.362 92.4211C141.341 92.5928 141.322 92.781 141.302 92.9817C141.256 93.3954 141.206 93.8753 141.152 94.38C141.14 94.4752 141.13 94.5703 141.119 94.6655C141.072 95.0978 141.02 95.5529 140.97 96.008C140.91 96.5252 140.85 97.0423 140.788 97.5512C140.774 97.6629 140.761 97.7746 140.747 97.8842C140.596 99.1254 140.444 100.236 140.32 100.933C140.3 101.045 140.286 101.157 140.279 101.271C140.277 101.306 140.277 101.342 140.279 101.378C140.273 101.472 140.273 101.566 140.279 101.659C140.397 103.405 142.291 103.697 142.291 103.697L150.968 103.527L152.254 103.501L153.005 103.486L159.781 103.354L160.415 103.341L163.767 103.275C163.995 103.268 164.223 103.295 164.444 103.356C165.49 103.627 166.489 104.056 167.406 104.628C167.695 104.813 167.955 105.04 168.176 105.302C168.187 105.312 168.197 105.323 168.205 105.335C168.664 105.887 168.944 106.565 169.009 107.28C169.009 107.327 169.009 107.375 169.009 107.423C168.99 107.538 168.99 107.65 168.988 107.768Z" fill="black"/>
<path d="M169.003 109.183L168.661 109.144C163.454 108.558 158.235 107.855 153.009 107.133L152.27 107.029L150.943 106.845L149.825 106.69C148.601 106.66 147.381 106.545 146.173 106.349C145.412 106.236 144.658 106.078 143.916 105.873C140.604 105.42 137.273 104.984 133.952 104.586C134.006 104.296 134.075 104.009 134.159 103.726C134.159 103.726 136.126 95.9873 136.248 91.8728C136.291 90.402 136 88.5817 135.604 86.8461C135.546 86.5958 135.488 86.3476 135.426 86.1035L135.37 85.8718C134.668 83.1516 133.834 80.8761 133.834 80.8761C133.814 80.5946 133.83 80.3117 133.882 80.0342C133.894 79.9596 133.911 79.8858 133.931 79.8129C134.011 79.4662 134.198 79.1534 134.465 78.9192C134.478 78.9084 134.491 78.8987 134.505 78.8903C135.049 78.4765 136.026 78.4476 137.766 79.4653C138.118 79.6731 138.444 79.9224 138.737 80.208C138.819 80.2866 138.902 80.3693 138.981 80.4541C140.378 81.9663 141.119 84.2831 141.509 86.3559L141.552 86.5855C141.598 86.844 141.637 87.0985 141.674 87.3447C141.674 87.3447 141.674 87.3591 141.674 87.3653C141.722 87.6922 141.761 88.0045 141.794 88.3024C141.891 89.1797 141.941 90.0615 141.943 90.944C141.943 90.944 141.863 91.7611 141.736 92.9382C141.689 93.3995 141.633 93.9166 141.573 94.4627C141.573 94.4896 141.573 94.5165 141.573 94.5455L141.542 94.8351C141.436 95.7887 141.32 96.8065 141.202 97.7497C141.19 97.8656 141.175 97.9793 141.161 98.091C141.028 99.1522 140.896 100.096 140.786 100.71C140.356 103.105 142.753 103.474 142.753 103.474L150.939 103.312L152.223 103.287L152.974 103.271H153.289H153.39L159.883 103.143H160.504L164.23 103.068C164.459 103.062 164.687 103.09 164.907 103.151C165.954 103.422 166.954 103.85 167.872 104.421C168.13 104.587 168.364 104.786 168.57 105.013C168.583 105.025 168.594 105.039 168.605 105.054C169.092 105.616 169.391 106.315 169.463 107.055C169.534 107.795 169.373 108.539 169.003 109.183Z" fill="#3A3768"/>
<path d="M198.269 71.791L200.801 77.2108H200.376L197.407 71.8551L198.269 71.791Z" fill="#4C4C56"/>
<path opacity="0.1" d="M198.269 71.791L200.801 77.2108H200.376L197.407 71.8551L198.269 71.791Z" fill="black"/>
<path d="M198.269 77.2107H200.801V77.7775L198.269 77.8416V77.2107Z" fill="#4C4C56"/>
<path opacity="0.1" d="M198.269 77.2107H200.801V77.7775L198.269 77.8416V77.2107Z" fill="black"/>
<path d="M178.574 51.8477V70.7734C178.574 71.1459 178.722 71.5031 178.985 71.7666C179.249 72.03 179.606 72.178 179.979 72.178H211.552C211.738 72.178 211.921 72.141 212.093 72.0691C212.264 71.9973 212.419 71.892 212.55 71.7595C212.68 71.627 212.782 71.4699 212.851 71.2974C212.919 71.1248 212.953 70.9404 212.949 70.7548L212.591 51.8125C212.584 51.4469 212.434 51.0986 212.172 50.8425C211.911 50.5865 211.56 50.443 211.194 50.4431H179.979C179.795 50.4431 179.612 50.4794 179.441 50.55C179.271 50.6206 179.116 50.7241 178.985 50.8545C178.855 50.9849 178.751 51.1398 178.681 51.3102C178.61 51.4806 178.574 51.6632 178.574 51.8477Z" fill="#4C4C56"/>
<path opacity="0.1" d="M178.574 51.8477V70.7734C178.574 71.1459 178.722 71.5031 178.985 71.7666C179.249 72.03 179.606 72.178 179.979 72.178H211.552C211.738 72.178 211.921 72.141 212.093 72.0691C212.264 71.9973 212.419 71.892 212.55 71.7595C212.68 71.627 212.782 71.4699 212.851 71.2974C212.919 71.1248 212.953 70.9404 212.949 70.7548L212.591 51.8125C212.584 51.4469 212.434 51.0986 212.172 50.8425C211.911 50.5865 211.56 50.443 211.194 50.4431H179.979C179.795 50.4431 179.612 50.4794 179.441 50.55C179.271 50.6206 179.116 50.7241 178.985 50.8545C178.855 50.9849 178.751 51.1398 178.681 51.3102C178.61 51.4806 178.574 51.6632 178.574 51.8477Z" fill="black"/>
<path d="M177.435 51.8475V70.7732C177.435 71.1457 177.583 71.5029 177.847 71.7664C178.11 72.0298 178.468 72.1777 178.841 72.1777H210.413C210.599 72.1778 210.783 72.1408 210.954 72.0689C211.125 71.997 211.28 71.8917 211.41 71.7592C211.54 71.6266 211.642 71.4695 211.711 71.297C211.779 71.1245 211.812 70.9401 211.808 70.7545L211.45 51.8123C211.443 51.447 211.293 51.0991 211.032 50.843C210.771 50.587 210.421 50.4434 210.055 50.4429H178.849C178.664 50.4418 178.48 50.4773 178.308 50.5474C178.137 50.6175 177.981 50.7208 177.85 50.8514C177.718 50.9819 177.614 51.1371 177.543 51.3081C177.471 51.479 177.435 51.6623 177.435 51.8475Z" fill="#4C4C56"/>
<path d="M178.677 53.0308V69.6934C178.677 70.0659 178.825 70.4232 179.089 70.6866C179.352 70.95 179.71 71.098 180.083 71.098H209.318C209.689 71.098 210.044 70.9509 210.306 70.689C210.568 70.4272 210.715 70.072 210.715 69.7017V53.0205C210.715 52.6505 210.567 52.2959 210.305 52.0345C210.043 51.773 209.688 51.6262 209.318 51.6262H180.083C179.71 51.6262 179.352 51.7742 179.089 52.0376C178.825 52.301 178.677 52.6583 178.677 53.0308Z" fill="#47B2E4"/>
<path d="M191.327 71.8677L194.103 77.2109H200.376L197.24 71.0981L191.327 71.8677Z" fill="#4C4C56"/>
<path d="M189.116 77.2107L188.652 77.7775H198.269V77.2107H189.116Z" fill="#4C4C56"/>
<path d="M147.916 54.8849C148.085 55.8009 148.255 56.7181 148.566 57.592C148.568 57.5982 148.57 57.604 148.573 57.6103C148.576 57.6189 148.579 57.6286 148.583 57.6417C148.544 57.6276 148.508 57.6058 148.477 57.5775C148.416 57.5124 148.371 57.4337 148.347 57.3479C148.031 56.4673 147.858 55.5454 147.686 54.6258C147.476 53.5041 147.267 52.3856 146.798 51.349C146.663 51.0811 146.544 50.8047 146.444 50.5215C146.425 50.4617 146.409 50.4009 146.397 50.3395L146.444 50.3105L146.496 50.2898L146.548 50.2754L146.599 50.2629C146.611 50.4459 146.643 50.6271 146.695 50.8028C146.794 51.0856 146.911 51.362 147.045 51.6303C147.504 52.6597 147.709 53.7714 147.916 54.8849Z" fill="url(#paint1_linear)"/>
<path d="M155.49 58.6802C155.164 59.047 154.895 59.4614 154.695 59.909C154.663 59.9772 154.632 60.0434 154.603 60.1158C153.688 62.1844 153.378 65.1115 153.378 65.1115C153.378 65.1115 152.811 64.8571 152.007 64.4599C150.51 63.7193 148.2 62.4865 147.266 61.5039C146.852 61.0591 146.703 60.6661 147.047 60.391C147.121 60.331 147.198 60.2627 147.274 60.1841C147.539 59.9197 147.781 59.6332 147.997 59.3277C148.295 58.914 148.589 58.4527 148.867 57.979C149.03 57.7018 149.185 57.4225 149.33 57.1515L149.388 57.044C150.009 55.8669 150.463 54.8616 150.463 54.8616C150.463 54.8616 150.67 54.9278 151.005 55.0457C152.552 55.598 156.81 57.2756 155.49 58.6802Z" fill="#EFB7B9"/>
<path d="M183.828 106.608C183.828 106.608 184.081 108.482 184.402 110.46L183.667 110.422C181.701 110.32 179.734 110.19 177.764 110.031C176.646 107.444 175.487 104.372 175.487 104.324C175.487 104.276 175.452 103.265 175.412 102.135C175.4 101.738 175.385 101.329 175.373 100.944C175.352 100.361 175.334 99.8352 175.323 99.5083C175.323 99.2849 175.311 99.1525 175.311 99.1525C175.311 99.1525 174.247 99.3387 173.29 99.469L172.866 99.5249C172.646 99.5518 172.452 99.5725 172.276 99.5849C172.124 99.608 171.97 99.608 171.818 99.5849C171.491 99.4587 172.17 96.2751 172.17 96.2751L173.859 92.1896L174.332 91.0519L174.539 91.0002C174.64 90.9753 174.777 90.9464 174.94 90.9154C176.553 90.6196 180.861 90.2431 181.592 94.492C182.497 99.74 182.627 100.919 182.627 100.919L183.828 106.608Z" fill="#EFB7B9"/>
<path opacity="0.05" d="M183.828 106.608C183.828 106.608 184.081 108.482 184.402 110.46L183.667 110.422C181.701 110.32 179.734 110.19 177.764 110.031C176.646 107.444 175.487 104.372 175.487 104.324C175.487 104.276 175.452 103.265 175.412 102.135C175.4 101.738 175.385 101.329 175.373 100.944C175.352 100.361 175.334 99.8352 175.323 99.5083C175.323 99.2849 175.311 99.1525 175.311 99.1525C175.311 99.1525 174.247 99.3387 173.29 99.469L172.866 99.5249C172.646 99.5518 172.452 99.5725 172.276 99.5849C172.124 99.608 171.97 99.608 171.818 99.5849C171.491 99.4587 172.17 96.2751 172.17 96.2751L173.859 92.1896L174.332 91.0519L174.539 91.0002C174.64 90.9753 174.777 90.9464 174.94 90.9154C176.553 90.6196 180.861 90.2431 181.592 94.492C182.497 99.74 182.627 100.919 182.627 100.919L183.828 106.608Z" fill="black"/>
<path d="M183.667 110.422C181.701 110.32 179.734 110.19 177.764 110.031L177.019 109.971L176.69 109.944C175.762 107.708 174.938 105.522 174.938 105.482C174.938 105.443 174.903 104.423 174.864 103.294C174.816 101.883 174.762 100.311 174.762 100.311L174.623 100.334L174.565 100.344H174.541H174.491L174.158 100.4L173.975 100.429C173.646 100.483 173.249 100.543 172.859 100.598L172.773 100.611L172.545 100.64L172.338 100.665C172.178 100.685 172.027 100.702 171.891 100.714L171.723 100.729C171.571 100.753 171.417 100.753 171.265 100.729C170.938 100.603 171.617 97.419 171.617 97.419L173.779 92.1958L173.853 92.1751C173.967 92.1462 174.207 92.0903 174.532 92.0345C174.654 92.0138 174.789 91.9931 174.934 91.9745C176.81 91.7345 180.379 91.8028 181.039 95.6359C181.944 100.884 182.075 102.063 182.075 102.063L183.282 107.768C183.282 107.768 183.439 108.947 183.667 110.422Z" fill="#EFB7B9"/>
<path opacity="0.1" d="M174.864 103.294C174.816 101.883 174.762 100.309 174.762 100.309C174.762 100.309 172.692 100.671 171.727 100.741L171.922 100.083C171.922 100.083 175.466 99.1047 175.541 99.657C175.594 100.044 175.139 102.1 174.864 103.294Z" fill="black"/>
<path opacity="0.1" d="M174.938 90.905V92.4006C174.938 92.4006 174.762 95.0898 173.379 99.2043C173.35 99.2932 173.319 99.3801 173.286 99.467C173.141 99.8628 172.969 100.248 172.773 100.621C172.383 100.675 172.007 100.721 171.727 100.741C171.575 100.764 171.421 100.764 171.269 100.741C170.942 100.615 171.619 97.4315 171.619 97.4315L173.781 92.2103L173.857 92.1896L174.327 91.0498C174.327 91.0498 174.559 90.9754 174.938 90.905Z" fill="black"/>
<path d="M174.536 90.6692V92.4006C174.536 92.4006 174.361 95.0898 172.978 99.2063C172.942 99.3139 172.903 99.4132 172.864 99.5228C172.824 99.6325 172.773 99.7628 172.721 99.8786C172.607 100.154 172.479 100.421 172.344 100.677C171.261 102.727 169.611 104.194 168.564 105C168.41 105.118 168.268 105.222 168.15 105.309H168.139C167.932 105.449 167.783 105.551 167.688 105.611C167.593 105.671 167.584 105.675 167.584 105.675C166.603 105.073 163.814 104.972 163.814 104.972L157.305 106.153C155.882 106.398 154.447 106.561 153.005 106.641L152.266 106.676C151.84 106.693 151.396 106.703 150.943 106.705C150.577 106.705 150.204 106.705 149.825 106.691C148.601 106.66 147.381 106.546 146.173 106.349C145.509 106.24 144.851 106.094 144.202 105.913C143.74 105.785 143.284 105.633 142.838 105.458C138.283 103.67 139.469 99.4318 140.237 97.597C140.279 97.4997 140.318 97.4108 140.355 97.328C140.525 96.9536 140.651 96.7343 140.651 96.7343L140.954 96.0041L141.449 94.8064L141.558 94.5437L141.589 94.4671L141.956 93.5797L147.132 92.9095L150.935 92.4172L152.092 92.2682L152.877 92.1669L154.374 91.9724L154.937 91.9C155.284 91.8462 155.635 91.8185 155.986 91.8173C156.176 91.8084 156.366 91.8365 156.545 91.9C156.959 92.0882 160.115 91.5732 160.115 91.5732C160.115 91.5732 162.576 90.8202 164.738 91.0705C165.807 91.1442 166.879 91.1511 167.949 91.0912L168.214 91.0788L168.557 91.0643H168.632C171.431 90.934 174.536 90.6692 174.536 90.6692Z" fill="#444053"/>
<path opacity="0.1" d="M155.914 95.8654C155.914 95.8654 153.429 101.515 153.326 101.614C153.222 101.713 153.227 103.476 153.326 103.372C153.425 103.269 156.87 95.6399 156.87 95.6399L155.914 95.8654Z" fill="black"/>
<path opacity="0.1" d="M167.951 91.0868C167.951 91.0868 166.694 91.8977 166.317 92.5514C165.94 93.2051 162.498 99.7067 161.645 100.66C160.936 101.513 160.297 102.422 159.734 103.376C159.634 103.548 159.634 104.628 160.237 103.598C160.839 102.568 160.69 102.394 161.87 101.115C163.05 99.837 164.355 96.9472 164.86 96.3701C165.365 95.7929 166.067 94.0594 166.947 93.0293L168.632 91.062L167.951 91.0868Z" fill="black"/>
<path opacity="0.1" d="M168.253 102.243C168.253 102.243 167.373 101.641 166.545 102.669C165.717 103.697 168.253 102.243 168.253 102.243Z" fill="black"/>
<path opacity="0.1" d="M169.334 102.553C169.334 102.553 168.605 103.823 168.253 103.925C167.901 104.026 169.334 102.553 169.334 102.553Z" fill="black"/>
<path opacity="0.1" d="M168.253 102.87C168.253 102.87 167.675 103.875 167.172 103.774L168.253 102.87Z" fill="black"/>
<path d="M164.185 75.7274C164.185 75.7274 169.512 75.502 170.04 75.3261C170.568 75.1503 175.24 74.5483 175.24 74.5483C175.24 74.5483 189.087 75.5268 185.143 76.708C181.199 77.8891 175.845 77.3844 175.845 77.3844C175.845 77.3844 170.617 78.7414 169.814 79.453C169.011 80.1646 163.079 80.1812 163.079 80.1812L164.185 75.7274Z" fill="#EFB7B9"/>
<path opacity="0.05" d="M164.185 75.7274C164.185 75.7274 169.512 75.502 170.04 75.3261C170.568 75.1503 175.24 74.5483 175.24 74.5483C175.24 74.5483 189.087 75.5268 185.143 76.708C181.199 77.8891 175.845 77.3844 175.845 77.3844C175.845 77.3844 170.617 78.7414 169.814 79.453C169.011 80.1646 163.079 80.1812 163.079 80.1812L164.185 75.7274Z" fill="black"/>
<path d="M145.235 63.6014C145.235 63.6014 140.36 65.2563 142.722 69.4762C145.084 73.6962 148.125 75.6821 148.125 75.6821L155.966 81.1059C155.966 81.1059 159.257 82.9884 160.765 82.2106L163.226 82.0037L163.64 75.5497C163.64 75.5497 161.57 77.157 159.318 74.9291C157.065 72.7012 154.291 71.187 154.065 69.9831C153.839 68.7791 148.074 62.5712 145.235 63.6014Z" fill="#A36468"/>
<path d="M160.638 77.2603C160.638 77.2603 163.177 78.1643 163.077 78.2139C162.978 78.2636 160.638 79.1427 160.638 79.1427L160.814 82.5828L164.257 82.3946C164.257 82.3946 165.514 76.1309 164.433 75.502L160.638 75.3262V77.2603Z" fill="#67647E"/>
<path opacity="0.1" d="M160.638 77.2603C160.638 77.2603 163.177 78.1643 163.077 78.2139C162.978 78.2636 160.638 79.1427 160.638 79.1427L160.814 82.5828L164.257 82.3946C164.257 82.3946 165.514 76.1309 164.433 75.502L160.638 75.3262V77.2603Z" fill="black"/>
<path opacity="0.1" d="M155.489 58.6801C155.163 59.0469 154.895 59.4613 154.694 59.9089C154.663 59.9771 154.632 60.0433 154.603 60.1157C152.755 60.1157 151.425 58.6801 150.291 57.3955C150.084 57.1576 149.56 57.5176 149.388 57.2507C149.37 57.2197 149.351 57.1887 149.33 57.1576L149.388 57.0501C150.009 55.873 150.463 54.8677 150.463 54.8677C150.463 54.8677 150.67 54.9339 151.005 55.0518C152.552 55.5979 156.81 57.2755 155.489 58.6801Z" fill="black"/>
<path d="M160.872 53.6843C160.872 55.3253 160.223 56.8998 159.067 58.0654C157.911 59.231 156.341 59.8935 154.699 59.9088H154.639C153.754 59.9093 152.88 59.7214 152.073 59.3576C151.267 58.9937 150.548 58.4623 149.964 57.7988C149.755 57.5617 149.564 57.3093 149.392 57.0437C148.869 56.2291 148.543 55.3039 148.44 54.3414C148.337 53.3789 148.46 52.4057 148.799 51.499C149.139 50.5923 149.684 49.7771 150.394 49.118C151.103 48.4589 151.957 47.9741 152.887 47.702C153.816 47.43 154.797 47.3781 155.75 47.5507C156.703 47.7232 157.603 48.1154 158.378 48.696C159.153 49.2766 159.782 50.0298 160.215 50.8957C160.648 51.7616 160.873 52.7164 160.872 53.6843Z" fill="#EFB7B9"/>
<path opacity="0.1" d="M154.533 92.2991C154.533 92.2991 154.059 92.8783 153.535 93.4182C153.14 93.8319 152.717 94.2105 152.446 94.3077C151.825 94.5353 148.978 96.6928 148.978 96.6928C148.978 96.6928 146.718 98.2257 146.14 98.6766C145.562 99.1276 143.475 98.8525 143.475 98.8525C143.475 98.8525 141.467 98.4139 140.223 97.6113C140.344 97.3165 140.482 97.0292 140.637 96.7507L141.943 93.5858L147.119 92.9176L154.533 92.2991Z" fill="black"/>
<path d="M154.432 91.8977C154.432 91.8977 153.96 92.4769 153.436 93.0168C153.04 93.4305 152.608 93.8091 152.347 93.9063C151.726 94.1318 148.879 96.2914 148.879 96.2914C148.879 96.2914 146.616 97.8243 146.038 98.2752C145.461 98.7262 143.376 98.451 143.376 98.451C143.376 98.451 140.511 97.8305 139.504 96.6927C138.801 95.9005 139.529 94.4317 140.026 93.6229C140.233 93.2775 140.409 93.052 140.409 93.052L154.432 91.8977Z" fill="#67647E"/>
<path d="M158.152 72.4384C156.442 72.2874 150.813 65.4051 150.813 65.4051L150.941 65.2293L152.121 63.5972H154.881L155.185 65.1031C157.284 68.0447 158.52 70.0905 158.856 71.2614C159.098 72.1136 158.868 72.5025 158.152 72.4384Z" fill="#67647E"/>
<path opacity="0.1" d="M158.152 72.4386C156.442 72.2876 150.813 65.4053 150.813 65.4053L150.941 65.2295C151.95 66.1548 152.898 67.1443 153.779 68.1917C157.899 73.0364 158.715 71.6835 158.856 71.2616C159.098 72.1138 158.868 72.5027 158.152 72.4386Z" fill="black"/>
<path opacity="0.1" d="M154.432 91.8977C154.432 91.8977 153.96 92.4769 153.436 93.0168C153.16 93.1237 152.868 93.1866 152.572 93.203C151.918 93.1782 150.411 94.2083 150.411 94.2083C150.411 94.2083 147.749 94.0573 147.245 94.3324C146.742 94.6076 144.807 94.6593 144.807 94.6593C141.264 95.6688 140.285 94.1359 140.026 93.625C140.233 93.2795 140.409 93.054 140.409 93.054L154.432 91.8977Z" fill="black"/>
<path d="M160.585 76.9458C160.585 77.0431 160.566 77.1403 160.553 77.2334C160.541 77.3265 160.529 77.4216 160.514 77.5106C160.447 78.0216 160.294 78.5175 160.061 78.9772C159.609 79.7302 158.226 82.6676 158.226 82.6676L158.133 83.2096L158.086 83.493L158.036 83.7722L157.698 85.7519L157.547 88.0377C157.547 88.0377 156.719 89.192 156.367 89.6926C156.015 90.1932 156.065 90.9234 156.191 91.4509C156.318 91.9784 155.036 92.0529 155.036 92.0529C155.036 92.0529 153.227 92.932 152.572 92.9072C151.918 92.8824 150.411 93.9084 150.411 93.9084C150.411 93.9084 147.749 93.7574 147.245 94.0346C146.742 94.3118 144.807 94.3614 144.807 94.3614C141.014 95.4392 140.159 93.6064 139.983 93.2299C139.807 92.8534 140.736 91.3227 140.736 91.3227C140.736 91.3227 140.943 89.3885 141.339 89.2375C141.734 89.0865 142.219 86.5276 142.219 86.5276C142.219 86.5276 142.068 85.7478 142.395 85.3216C142.722 84.8955 142.697 83.6895 143.123 83.1124C143.55 82.5352 142.672 80.6011 142.823 80.0984C142.974 79.5957 142.345 77.5623 142.395 77.0348C142.444 76.5073 142.27 76.0812 141.867 75.0262C141.523 74.1263 141.62 70.1277 141.66 68.9817C141.66 68.7872 141.67 68.6755 141.67 68.6755C141.67 68.6755 142.022 67.544 142.952 65.2851C143.655 63.5744 145.239 62.9269 145.966 62.7159C146.091 62.6784 146.217 62.6473 146.345 62.6228C146.527 62.649 146.706 62.6941 146.879 62.7573C147.612 63.0034 149.078 63.7005 151.169 65.6533C152.094 66.5195 152.967 67.4395 153.784 68.4087C158.498 73.9443 158.883 71.3606 158.883 71.3606C158.883 71.3606 159.09 71.8322 160.061 73.7147C160.58 74.7159 160.676 75.9115 160.585 76.9458Z" fill="#47B2E4"/>
<path opacity="0.1" d="M152.823 63.2932L148.094 59.5242C148.094 59.5242 146.39 59.731 145.687 62.5898L150.554 66.8491L152.823 63.2932Z" fill="black"/>
<path d="M152.823 63.2932L151.995 64.4495L151.154 65.6348L150.521 66.5636L146.635 63.2932L145.966 62.714L145.591 62.3954C145.97 60.8502 146.643 60.0786 147.179 59.7062C147.423 59.5202 147.706 59.3934 148.007 59.3359L152.823 63.2932Z" fill="#67647E"/>
<path d="M185.341 78.2138C181.395 79.3929 176.044 78.8923 176.044 78.8923C176.044 78.8923 170.816 80.2473 170.013 80.9609C169.495 81.414 166.851 81.5815 165.044 81.6498C164.04 81.687 163.288 81.6891 163.288 81.6891L164.392 77.2354L165.029 77.2064C166.46 77.1402 169.833 76.9706 170.247 76.832C170.775 76.6562 175.447 76.0542 175.447 76.0542C175.447 76.0542 189.285 77.0327 185.341 78.2138Z" fill="#EFB7B9"/>
<path opacity="0.1" d="M160.514 77.5004C160.447 78.0114 160.294 78.5074 160.061 78.9671C159.609 79.72 158.226 82.6575 158.226 82.6575L158.036 83.7724C157.394 83.5342 156.771 83.2479 156.173 82.916L148.326 77.4859C148.326 77.4859 145.285 75.5022 142.923 71.2801C140.56 67.0581 145.436 65.4053 145.436 65.4053C148.274 64.371 154.03 70.5768 154.256 71.7828C154.481 72.9888 157.247 74.4947 159.508 76.7288C159.806 77.0313 160.145 77.2909 160.514 77.5004Z" fill="black"/>
<path opacity="0.1" d="M160.585 76.9461C160.566 77.1426 160.543 77.3308 160.514 77.5108C160.447 78.0218 160.294 78.5177 160.061 78.9774C159.609 79.7304 158.226 82.6678 158.226 82.6678L158.133 83.2098C157.455 82.9652 156.797 82.6663 156.167 82.3162L148.326 76.884C148.326 76.884 145.285 74.9002 142.923 70.6782C140.56 66.4562 145.436 64.8013 145.436 64.8013C148.274 63.767 154.03 69.9728 154.256 71.1788C154.481 72.3848 157.247 73.8907 159.508 76.1269C159.824 76.4522 160.187 76.7284 160.585 76.9461Z" fill="black"/>
<path d="M163.831 77.0596L163.429 83.5116L160.966 83.7184C160.912 83.7468 160.855 83.771 160.798 83.7908C159.229 84.3659 156.167 82.6138 156.167 82.6138L148.326 77.1837C148.326 77.1837 145.285 75.1999 142.923 70.9779C140.56 66.7559 145.436 65.103 145.436 65.103C148.274 64.0687 154.03 70.2746 154.256 71.4806C154.481 72.6866 157.247 74.1925 159.508 76.4266C159.839 76.7596 160.221 77.0387 160.638 77.254C161.138 77.516 161.699 77.6364 162.262 77.6022C162.825 77.5679 163.367 77.3802 163.831 77.0596Z" fill="#47B2E4"/>
<path opacity="0.1" d="M163.831 77.0596L163.429 83.5115L160.966 83.7184C160.912 83.7467 160.855 83.771 160.798 83.7908L160.638 80.6548C160.638 80.6548 162.976 79.7756 163.077 79.726C163.179 79.6764 160.638 78.7724 160.638 78.7724V77.2726C161.139 77.532 161.702 77.6492 162.264 77.6116C162.827 77.5741 163.369 77.3831 163.831 77.0596Z" fill="black"/>
<path opacity="0.1" d="M165.034 81.6396C164.03 81.6768 163.278 81.6789 163.278 81.6789L164.392 77.2355L165.03 77.2065C165.44 77.9119 165.264 79.9847 165.034 81.6396Z" fill="black"/>
<path d="M160.839 78.7662C160.839 78.7662 163.377 79.6702 163.278 79.7198C163.179 79.7694 160.839 80.6486 160.839 80.6486L161.015 84.0887L164.458 83.9005C164.458 83.9005 165.715 77.6367 164.634 77.0079L160.839 76.832V78.7662Z" fill="#67647E"/>
<path opacity="0.1" d="M145.788 82.8848C145.788 82.8848 144.933 83.6874 144.229 83.9005L145.788 82.8848Z" fill="black"/>
<path opacity="0.1" d="M143.753 85.2701C143.753 85.2701 145.838 85.1935 146.088 84.7674C146.339 84.3412 143.753 85.2701 143.753 85.2701Z" fill="black"/>
<path opacity="0.1" d="M142.722 88.2571C142.848 88.2571 145.359 87.9055 145.461 87.5786L142.722 88.2571Z" fill="black"/>
<path opacity="0.1" d="M141.943 90.1665C142.848 90.1396 144.38 89.1611 144.38 89.1611L141.943 90.1665Z" fill="black"/>
<path opacity="0.1" d="M147.798 90.667C147.798 90.667 153.251 90.667 153.502 89.6637C153.752 88.6604 147.798 90.667 147.798 90.667Z" fill="black"/>
<path opacity="0.1" d="M151.893 76.6316C151.995 76.6316 156.191 76.6316 156.593 76.0544C156.995 75.4773 151.893 76.6316 151.893 76.6316Z" fill="black"/>
<path opacity="0.1" d="M147.272 60.1901C147.306 60.3953 147.324 60.6027 147.326 60.8107C147.326 61.0417 147.305 61.2722 147.264 61.4995C147.181 61.9311 147.051 62.3522 146.875 62.7552L146.831 62.8565C146.769 63.0013 146.703 63.142 146.635 63.2827C146.327 63.9095 145.964 64.5077 145.55 65.0699C144.605 66.3238 143.512 67.4594 142.295 68.4521C142.084 68.63 141.871 68.8058 141.656 68.9796C141.656 68.7852 141.666 68.6735 141.666 68.6735C141.666 68.6735 142.018 67.5419 142.947 65.283C143.651 63.5723 145.235 62.9248 145.962 62.7138L145.587 62.3952C145.966 60.85 146.639 60.0784 147.175 59.7061C147.208 59.8591 147.248 60.0205 147.272 60.1901Z" fill="black"/>
<path opacity="0.1" d="M159.961 50.4513C159.898 50.4671 159.836 50.4915 159.779 50.5237C159.386 50.7409 159.272 51.256 158.951 51.5808C158.58 51.9635 158.001 52.0214 157.473 52.0876C156.945 52.1538 156.355 52.2841 156.075 52.7371C155.868 53.0743 155.887 53.4984 155.812 53.8873C155.804 53.9571 155.776 54.0232 155.732 54.0776C155.661 54.1352 155.571 54.1647 155.479 54.1603C154.444 54.2327 153.69 53.8769 152.721 53.6266C152.266 53.5108 151.736 53.5253 151.388 53.8335C151.074 54.1169 150.987 54.5802 150.995 55.0043V55.0415C151.039 55.4537 151.052 55.8686 151.032 56.2827C150.984 56.603 150.861 56.9074 150.673 57.171C150.485 57.4346 150.237 57.6498 149.949 57.799C149.707 57.9286 149.441 58.0048 149.167 58.0224C149.061 58.0335 148.954 58.0179 148.856 57.9769C149.04 57.6625 149.216 57.3563 149.378 57.044C148.929 56.35 148.622 55.5737 148.476 54.7603C148.33 53.9468 148.348 53.1125 148.528 52.3059C148.708 51.4993 149.047 50.7365 149.525 50.062C150.002 49.3875 150.61 48.8148 151.312 48.3773C152.013 47.9397 152.795 47.6461 153.611 47.5134C154.428 47.3807 155.262 47.4117 156.067 47.6046C156.871 47.7974 157.629 48.1482 158.296 48.6366C158.963 49.125 159.527 49.7412 159.953 50.4492L159.961 50.4513Z" fill="black"/>
<path d="M161.667 49.657C161.592 49.8263 161.472 49.9727 161.322 50.081C160.85 50.3872 160.173 50.05 159.68 50.3231C159.284 50.5403 159.173 51.0554 158.852 51.3801C158.483 51.7628 157.903 51.8207 157.373 51.8869C156.843 51.9531 156.258 52.0834 155.976 52.5365C155.769 52.8737 155.79 53.2957 155.713 53.6866C155.706 53.7567 155.678 53.8231 155.632 53.8769C155.561 53.9341 155.471 53.9635 155.38 53.9597C154.345 54.0321 153.591 53.6742 152.622 53.426C152.169 53.3101 151.639 53.3246 151.291 53.6328C150.943 53.9411 150.889 54.3817 150.895 54.8057C150.938 55.229 150.952 55.6548 150.935 56.08C150.863 56.5362 150.641 56.9552 150.303 57.2705C149.965 57.5858 149.532 57.7791 149.072 57.8197C149.004 57.8298 148.936 57.8264 148.87 57.8097C148.804 57.793 148.743 57.7634 148.689 57.7225C148.629 57.6578 148.585 57.5798 148.562 57.4949C147.873 55.5587 147.879 53.4094 147.043 51.5311C146.908 51.2634 146.791 50.987 146.693 50.7037C146.676 50.6458 146.66 50.5858 146.647 50.5258C146.622 50.4064 146.606 50.2854 146.597 50.1638C146.512 50.176 146.431 50.2094 146.361 50.261C146.337 50.2819 146.315 50.3055 146.295 50.3313C146.177 50.5292 146.116 50.7565 146.121 50.9871C145.967 53.5732 146.218 56.1677 146.867 58.6761C147.064 59.3024 147.185 59.9506 147.225 60.6061C147.202 61.3149 147.033 62.0114 146.728 62.652C145.43 65.6432 142.821 67.8338 140.227 69.8135C140.494 69.528 140.699 69.1914 140.832 68.824C140.964 68.4567 141.02 68.0663 140.997 67.6766C140.953 67.8254 140.868 67.959 140.752 68.0626C140.636 68.1663 140.494 68.236 140.341 68.2641C140.034 68.3162 139.72 68.3112 139.416 68.2496C139.813 68.1193 139.968 67.6518 140.068 67.2463C140.271 66.4189 140.459 65.5839 140.633 64.7412C140.818 63.937 140.94 63.1195 140.997 62.2962C141.028 61.597 140.974 60.8957 140.945 60.1945C140.884 58.2716 140.953 56.3469 141.153 54.4334C141.306 52.7785 141.583 50.9892 142.798 49.8597C143.323 49.4168 143.909 49.0517 144.538 48.7757C144.538 48.5689 146.055 48.1552 146.256 48.1262C146.339 48.11 146.424 48.1003 146.508 48.0972C146.617 48.0815 146.728 48.1004 146.825 48.1513C146.922 48.2022 147 48.2825 147.049 48.3806C147.123 48.2462 147.206 48.1138 147.293 47.9876C147.413 47.814 147.544 47.6488 147.686 47.4932C148.475 46.6244 149.498 46.0121 150.411 45.2757C150.746 44.9753 151.109 44.7079 151.496 44.4772C152.001 44.2233 152.556 44.0821 153.121 44.0635C154.056 44.0107 154.991 44.1574 155.864 44.4937C157.123 44.9778 158.222 45.8466 159.525 46.1983C159.846 46.2678 160.163 46.3556 160.475 46.461C160.774 46.5791 161.044 46.7584 161.269 46.9873C161.495 47.2162 161.669 47.4896 161.783 47.7901C161.896 48.0905 161.945 48.4113 161.926 48.7317C161.908 49.0522 161.822 49.3652 161.676 49.6508L161.667 49.657Z" fill="#444053"/>
<g opacity="0.1">
<path opacity="0.1" d="M140.701 68.1856C140.852 67.7973 140.917 67.3808 140.89 66.9651C140.844 67.1139 140.759 67.2474 140.643 67.3511C140.527 67.4547 140.384 67.5244 140.231 67.5526C140.152 67.5715 140.072 67.5833 139.991 67.5877C139.888 67.9187 139.724 68.2373 139.407 68.3407C139.712 68.403 140.026 68.4086 140.333 68.3573C140.466 68.3249 140.591 68.2666 140.701 68.1856Z" fill="black"/>
<path opacity="0.1" d="M161.816 48.0083C161.801 48.3354 161.716 48.6555 161.568 48.9474C161.49 49.1129 161.37 49.2554 161.22 49.3612C160.75 49.6673 160.071 49.3322 159.578 49.6032C159.185 49.8204 159.071 50.3376 158.75 50.6603C158.38 51.0429 157.8 51.1029 157.272 51.1671C156.744 51.2312 156.154 51.3739 155.875 51.8166C155.668 52.1538 155.686 52.5778 155.612 52.9667C155.61 53.0075 155.6 53.0475 155.582 53.084C155.564 53.1206 155.538 53.1529 155.507 53.1789C155.475 53.2048 155.439 53.2239 155.399 53.2347C155.36 53.2456 155.319 53.248 155.278 53.2419C154.243 53.3143 153.49 52.9564 152.521 52.7061C152.065 52.5903 151.535 52.6047 151.187 52.913C150.873 53.1984 150.786 53.6597 150.794 54.0859C150.837 54.5085 150.85 54.9337 150.831 55.3581C150.762 55.8155 150.541 56.2362 150.202 56.5523C149.864 56.8684 149.429 57.0613 148.968 57.0998C148.901 57.1096 148.833 57.106 148.767 57.0893C148.701 57.0727 148.639 57.0432 148.585 57.0026C148.525 56.9372 148.482 56.8585 148.459 56.773C147.769 54.8368 147.773 52.6875 146.937 50.8113C146.804 50.5429 146.688 50.2666 146.589 49.9838C146.536 49.8081 146.504 49.627 146.492 49.4439C146.373 49.4579 146.264 49.5181 146.19 49.6115C146.073 49.8103 146.013 50.0369 146.016 50.2672C145.919 51.9249 145.989 53.588 146.223 55.2319C146.073 53.8484 146.039 52.4548 146.121 51.0657C146.116 50.8351 146.177 50.6079 146.295 50.41C146.331 50.3629 146.377 50.3237 146.429 50.2949C146.481 50.2661 146.538 50.2482 146.597 50.2424C146.609 50.4254 146.641 50.6065 146.693 50.7823C146.792 51.0652 146.909 51.3416 147.043 51.6097C147.871 53.488 147.871 55.6352 148.562 57.5715C148.587 57.6569 148.63 57.7356 148.691 57.8011C148.743 57.845 148.804 57.8778 148.869 57.8973C148.935 57.9169 149.004 57.9229 149.072 57.9149C149.532 57.8743 149.965 57.681 150.303 57.3657C150.641 57.0504 150.863 56.6313 150.935 56.1752C150.952 55.75 150.938 55.3242 150.895 54.9009C150.895 54.4748 150.976 54.0135 151.291 53.728C151.639 53.4136 152.169 53.4012 152.622 53.5211C153.591 53.7694 154.34 54.1272 155.38 54.0548C155.471 54.0586 155.561 54.0292 155.632 53.9721C155.678 53.9174 155.706 53.8504 155.713 53.7797C155.79 53.3908 155.767 52.9667 155.976 52.6316C156.258 52.1786 156.846 52.0462 157.374 51.98C157.901 51.9138 158.483 51.858 158.854 51.4753C159.166 51.1505 159.278 50.6354 159.682 50.4162C160.173 50.1452 160.852 50.4824 161.324 50.1762C161.474 50.0678 161.594 49.9215 161.669 49.7521C161.942 49.2116 161.994 48.5868 161.816 48.0083Z" fill="black"/>
<path opacity="0.1" d="M147.125 59.9008C147.103 60.6095 146.934 61.3058 146.631 61.9467C145.469 64.6214 143.258 66.6569 140.95 68.4711C140.852 69.0123 140.602 69.5146 140.229 69.9191C142.821 67.9415 145.434 65.7509 146.73 62.7597C147.035 62.1191 147.204 61.4226 147.227 60.7138C147.222 60.4111 147.186 60.1096 147.121 59.814C147.123 59.8347 147.125 59.8678 147.125 59.9008Z" fill="black"/>
</g>
<path opacity="0.1" d="M147.384 47.9854C147.198 48.8418 146.941 49.9547 146.749 50.5277C146.725 50.4081 146.708 50.2872 146.699 50.1657C146.614 50.1779 146.534 50.2114 146.465 50.2629C146.465 49.6609 146.537 48.7652 146.6 48.095C146.708 48.0791 146.819 48.098 146.917 48.1489C147.014 48.1997 147.093 48.2801 147.142 48.3784C147.208 48.246 147.297 48.1136 147.384 47.9854Z" fill="black"/>
<path d="M147.285 47.9854C147.098 48.8418 146.842 49.9547 146.649 50.5277C146.625 50.4082 146.608 50.2873 146.6 50.1657C146.514 50.1779 146.433 50.2113 146.364 50.2629C146.364 49.6609 146.436 48.7652 146.5 48.095C146.609 48.0792 146.719 48.0982 146.816 48.1491C146.913 48.2 146.992 48.2802 147.041 48.3784C147.115 48.246 147.208 48.1136 147.285 47.9854Z" fill="#67647E"/>
<g opacity="0.7">
<path opacity="0.7" d="M189.443 1.55957H223.742V34.8931H189.443V1.55957Z" fill="#2E001E"/>
<path opacity="0.7" d="M187.892 -0.00634766V36.4508H225.309V-0.00634766H187.892ZM189.451 1.55338H223.75V34.8931H189.443L189.451 1.55338Z" fill="#FF2BC2"/>
<path opacity="0.7" d="M215.065 15.3137C214.779 15.1962 214.47 15.1425 214.16 15.1565C212.198 15.1565 210.887 16.6686 210.887 19.1758C210.887 22.0429 212.229 23.1951 213.974 23.1951C214.341 23.2061 214.706 23.1478 215.051 23.0234V15.3137H215.065ZM208.076 19.302C208.076 15.6716 210.413 12.8355 214.249 12.8355C214.52 12.8297 214.79 12.8407 215.059 12.8686V8.81827C215.059 8.77657 215.075 8.73658 215.105 8.7071C215.134 8.67762 215.174 8.66105 215.216 8.66105H217.725C217.85 8.66105 217.881 8.70863 217.881 8.78723V23.0234C217.871 23.5335 217.898 24.0436 217.959 24.55C217.959 24.6596 217.959 24.6762 217.866 24.7217C216.619 25.3154 215.256 25.6242 213.875 25.6257C210.492 25.6257 208.078 23.5385 208.078 19.302H208.076ZM202.759 16.7783L207.13 25.2306C207.208 25.3547 207.161 25.4788 207.036 25.4788H204.324C204.254 25.4876 204.183 25.4718 204.124 25.4341C204.064 25.3963 204.019 25.339 203.997 25.272C202.999 23.2158 201.981 21.0816 200.941 18.8696H200.91C199.975 20.9568 198.946 23.2323 197.948 25.2823C197.923 25.3353 197.883 25.3797 197.833 25.4102C197.783 25.4408 197.725 25.456 197.666 25.454H195.078C194.923 25.454 194.908 25.3278 194.985 25.2347L199.256 17.0265L195.126 8.8886C195.107 8.86838 195.094 8.84283 195.089 8.8153C195.085 8.78777 195.089 8.75954 195.101 8.73428C195.113 8.70903 195.132 8.68795 195.156 8.67377C195.18 8.6596 195.208 8.653 195.236 8.65484H197.917C198.072 8.65484 198.151 8.68587 198.196 8.82654C199.18 10.8951 200.177 12.9389 201.113 15.0324H201.144C202.047 12.9762 203.045 10.8951 203.997 8.86377C204.074 8.73759 204.121 8.65691 204.277 8.65691H206.788C206.912 8.65691 206.958 8.75 206.881 8.89066L202.765 16.7886L202.759 16.7783Z" fill="#FF2BC2"/>
</g>
<g opacity="0.7">
<path opacity="0.7" d="M47.2758 14.9827L58.9979 37.9049L39.2968 14.9827H47.2758Z" fill="#EA6C00"/>
<path opacity="0.7" d="M70.7222 14.9827L59.0001 37.9049L78.7012 14.9827H70.7222Z" fill="#EA6C00"/>
<path opacity="0.7" d="M47.2758 14.9827H70.718L58.9979 37.9049L47.2758 14.9827Z" fill="#FDAD00"/>
<path opacity="0.7" d="M58.9979 2.27954L47.8927 3.45244L47.2716 14.9829L58.9979 2.27954Z" fill="#FDD231"/>
<path opacity="0.7" d="M58.998 2.27954L70.1011 3.45244L70.7222 14.9829L58.998 2.27954Z" fill="#FDD231"/>
<path opacity="0.7" d="M78.7012 14.9828L70.1052 3.45239L70.7263 14.9828H78.7012Z" fill="#FDAD00"/>
<path opacity="0.7" d="M39.2968 14.9828L47.8927 3.45239L47.2716 14.9828H39.2968Z" fill="#FDAD00"/>
<path opacity="0.7" d="M58.9979 2.27954L47.2758 14.9829H70.718L58.9979 2.27954Z" fill="#FEEEB7"/>
</g>
</g>
<defs>
<linearGradient id="paint0_linear" x1="10526" y1="31182.9" x2="25761.1" y2="31182.9" gradientUnits="userSpaceOnUse">
<stop stop-color="#808080" stop-opacity="0.25"/>
<stop offset="0.54" stop-color="#808080" stop-opacity="0.12"/>
<stop offset="1" stop-color="#808080" stop-opacity="0.1"/>
</linearGradient>
<linearGradient id="paint1_linear" x1="-47086.8" y1="19838.2" x2="-47086.8" y2="10797.2" gradientUnits="userSpaceOnUse">
<stop stop-color="#808080" stop-opacity="0.25"/>
<stop offset="0.54" stop-color="#808080" stop-opacity="0.12"/>
<stop offset="1" stop-color="#808080" stop-opacity="0.1"/>
</linearGradient>
<clipPath id="clip0">
<rect width="241" height="115" fill="white"/>
</clipPath>
</defs>
</svg>
