<svg width="200" height="115" viewBox="0 0 200 115" fill="none" xmlns="http://www.w3.org/2000/svg">
<path d="M100 115C155.228 115 200 112.427 200 109.254C200 106.08 155.228 103.508 100 103.508C44.7715 103.508 0 106.08 0 109.254C0 112.427 44.7715 115 100 115Z" fill="#F2F2F2"/>
<path d="M182.077 0H31.8485V4.77497H182.077V0Z" fill="#F2F2F2"/>
<path d="M35.8685 3.55288C36.5517 3.55288 37.1055 2.9996 37.1055 2.31709C37.1055 1.63458 36.5517 1.0813 35.8685 1.0813C35.1854 1.0813 34.6316 1.63458 34.6316 2.31709C34.6316 2.9996 35.1854 3.55288 35.8685 3.55288Z" fill="#6C63FF"/>
<path d="M39.8886 3.55288C40.5717 3.55288 41.1255 2.9996 41.1255 2.31709C41.1255 1.63458 40.5717 1.0813 39.8886 1.0813C39.2054 1.0813 38.6516 1.63458 38.6516 2.31709C38.6516 2.9996 39.2054 3.55288 39.8886 3.55288Z" fill="#6C63FF"/>
<path d="M43.9087 3.55288C44.5918 3.55288 45.1456 2.9996 45.1456 2.31709C45.1456 1.63458 44.5918 1.0813 43.9087 1.0813C43.2255 1.0813 42.6717 1.63458 42.6717 2.31709C42.6717 2.9996 43.2255 3.55288 43.9087 3.55288Z" fill="#6C63FF"/>
<path d="M31.9549 75.5205L31.8484 75.6118V107.823H182.077V51.2432L180.286 51.3788L31.9549 75.5205Z" fill="#3F3D56"/>
<path d="M84.6415 31.9412H42.6901V33.6312H84.6415V31.9412Z" fill="#3F3D56"/>
<path d="M84.6415 35.6592H42.6901V37.3492H84.6415V35.6592Z" fill="#3F3D56"/>
<path d="M56.8995 39.3772H42.6901V41.0672H56.8995V39.3772Z" fill="#3F3D56"/>
<path d="M170.193 78.8599H128.242V80.5499H170.193V78.8599Z" fill="white"/>
<path d="M170.193 82.5779H128.242V84.2679H170.193V82.5779Z" fill="white"/>
<path d="M142.451 86.2959H128.242V87.9859H142.451V86.2959Z" fill="white"/>
<path d="M102.177 106.265C103.088 106.265 103.827 105.526 103.827 104.616C103.827 103.705 103.088 102.967 102.177 102.967C101.266 102.967 100.527 103.705 100.527 104.616C100.527 105.526 101.266 106.265 102.177 106.265Z" fill="#F2F2F2"/>
<path d="M106.963 106.429C107.874 106.429 108.613 105.691 108.613 104.781C108.613 103.87 107.874 103.132 106.963 103.132C106.051 103.132 105.312 103.87 105.312 104.781C105.312 105.691 106.051 106.429 106.963 106.429Z" fill="#F2F2F2"/>
<path d="M111.748 106.594C112.66 106.594 113.398 105.856 113.398 104.946C113.398 104.035 112.66 103.297 111.748 103.297C110.837 103.297 110.098 104.035 110.098 104.946C110.098 105.856 110.837 106.594 111.748 106.594Z" fill="#F2F2F2"/>
<path d="M106.978 106.1C107.707 106.1 108.298 105.509 108.298 104.781C108.298 104.052 107.707 103.462 106.978 103.462C106.249 103.462 105.658 104.052 105.658 104.781C105.658 105.509 106.249 106.1 106.978 106.1Z" fill="#3F3D56"/>
<path d="M70.7334 51.2856H56.524V54.5245H70.7334V51.2856Z" fill="#3F3D56"/>
<path d="M155.193 95.1128H140.984V98.3516H155.193V95.1128Z" fill="white"/>
<path opacity="0.3" d="M63.7088 62.7427C69.1374 62.7427 73.5381 58.346 73.5381 52.9225C73.5381 47.4989 69.1374 43.1023 63.7088 43.1023C58.2802 43.1023 53.8794 47.4989 53.8794 52.9225C53.8794 58.346 58.2802 62.7427 63.7088 62.7427Z" fill="#6C63FF"/>
<path opacity="0.3" d="M63.7088 59.4693C67.3278 59.4693 70.2617 56.5382 70.2617 52.9225C70.2617 49.3068 67.3278 46.3757 63.7088 46.3757C60.0897 46.3757 57.1559 49.3068 57.1559 52.9225C57.1559 56.5382 60.0897 59.4693 63.7088 59.4693Z" fill="#6C63FF"/>
<path d="M63.7088 57.4687C66.222 57.4687 68.2594 55.4333 68.2594 52.9224C68.2594 50.4115 66.222 48.376 63.7088 48.376C61.1955 48.376 59.1581 50.4115 59.1581 52.9224C59.1581 55.4333 61.1955 57.4687 63.7088 57.4687Z" fill="#6C63FF"/>
<path opacity="0.3" d="M146.416 38.405C151.845 38.405 156.246 34.0084 156.246 28.5848C156.246 23.1613 151.845 18.7646 146.416 18.7646C140.988 18.7646 136.587 23.1613 136.587 28.5848C136.587 34.0084 140.988 38.405 146.416 38.405Z" fill="#6C63FF"/>
<path opacity="0.3" d="M146.416 35.1317C150.035 35.1317 152.969 32.2006 152.969 28.5849C152.969 24.9692 150.035 22.0381 146.416 22.0381C142.797 22.0381 139.863 24.9692 139.863 28.5849C139.863 32.2006 142.797 35.1317 146.416 35.1317Z" fill="#6C63FF"/>
<path d="M146.416 33.1314C148.93 33.1314 150.967 31.0959 150.967 28.585C150.967 26.0741 148.93 24.0386 146.416 24.0386C143.903 24.0386 141.866 26.0741 141.866 28.585C141.866 31.0959 143.903 33.1314 146.416 33.1314Z" fill="#6C63FF"/>
<path opacity="0.3" d="M148.168 106.57C153.597 106.57 157.998 102.173 157.998 96.7496C157.998 91.3261 153.597 86.9294 148.168 86.9294C142.74 86.9294 138.339 91.3261 138.339 96.7496C138.339 102.173 142.74 106.57 148.168 106.57Z" fill="#6C63FF"/>
<path opacity="0.3" d="M148.168 103.296C151.787 103.296 154.721 100.365 154.721 96.7497C154.721 93.134 151.787 90.2029 148.168 90.2029C144.549 90.2029 141.615 93.134 141.615 96.7497C141.615 100.365 144.549 103.296 148.168 103.296Z" fill="#6C63FF"/>
<path d="M148.168 101.296C150.682 101.296 152.719 99.2604 152.719 96.7495C152.719 94.2386 150.682 92.2031 148.168 92.2031C145.655 92.2031 143.618 94.2386 143.618 96.7495C143.618 99.2604 145.655 101.296 148.168 101.296Z" fill="#6C63FF"/>
<path d="M16.3681 19.8879L20.4137 20.0447L20.6154 14.848L16.5698 14.6913L16.3681 19.8879Z" fill="#6C63FF"/>
<path d="M34.8195 32.8912C34.8195 32.8912 40.4221 30.2168 40.3325 32.5265C40.2428 34.8361 34.6851 36.3556 34.6851 36.3556L34.8195 32.8912Z" fill="#FFB9B9"/>
<path d="M31.7458 52.4332C31.7458 52.4332 34.389 58.8966 35.3656 63.5607C36.3422 68.2247 37.8295 74.6434 35.9163 79.1955C34.0032 83.7475 28.564 97.1263 28.508 98.5698C28.4519 100.013 28.9739 101.479 27.818 101.434C26.6621 101.39 20.3719 99.4111 20.1166 98.5338C19.8612 97.6565 22.2626 95.4365 22.2626 95.4365L28.1925 76.8723L22.0056 64.7779L17.543 82.8207L16.6689 105.34C16.6689 105.34 12.3792 104.017 11.7564 105.149C11.7564 105.149 9.83443 102.473 9.59028 101.307C9.34613 100.141 10.4979 77.9216 10.4979 77.9216C10.4979 77.9216 6.56032 52.614 9.73902 52.7372C12.9177 52.8603 25.3683 45.2468 31.7458 52.4332Z" fill="#2F2E41"/>
<path d="M27.8628 100.28C27.8628 100.28 30.795 106.754 31.0727 107.054C31.3505 107.354 33.2613 110.32 31.8164 110.264C30.3715 110.208 26.9599 108.63 24.4488 106.219C21.9377 103.809 18.6269 99.6328 18.9271 99.3553C19.2272 99.0778 21.2837 98.29 21.2837 98.29L27.8628 100.28Z" fill="#2F2E41"/>
<path d="M16.147 103.874C16.147 103.874 16.3239 106.772 16.857 107.949C17.3902 109.127 17.3229 110.859 15.8781 110.803C14.4332 110.747 10.699 110.024 10.699 110.024C10.699 110.024 10.4772 108.28 10.7774 108.003C11.0776 107.725 12.3567 104.594 11.8124 103.706C11.2681 102.817 16.147 103.874 16.147 103.874Z" fill="#2F2E41"/>
<path d="M14.0094 9.82129C14.0094 9.82129 10.9292 14.6173 9.72851 15.7273C8.52779 16.8374 11.9058 19.2813 11.9058 19.2813L17.9518 20.0938C17.9518 20.0938 17.8758 14.5973 18.1872 14.0311C18.4985 13.4649 14.0094 9.82129 14.0094 9.82129Z" fill="#FFB9B9"/>
<path d="M19.2646 16.0969C19.2646 16.0969 18.0191 18.3617 16.8632 18.3169C15.7073 18.2722 9.7285 15.7274 9.47314 14.8501C9.21778 13.9728 7.49277 21.1344 7.49277 21.1344L22.1224 46.8562L25.6909 44.3922L23.9619 29.2901L22.5418 21.1392L19.2646 16.0969Z" fill="#6C63FF"/>
<path d="M8.93353 39.1168C9.51711 40.3364 9.88158 41.6083 9.83104 42.9103C9.8288 42.9681 9.82656 43.0258 9.82143 43.0834C9.68299 45.7555 8.69771 48.8458 8.34423 51.0932C8.08775 52.7053 8.16074 53.882 9.10504 54.1586C11.3944 54.8255 8.77125 55.3022 17.6285 58.2476C26.4858 61.193 28.0316 58.6506 28.054 58.0732C28.0764 57.4958 26.7996 53.1093 27.0998 52.8318C27.4 52.5543 31.2999 56.4642 32.4782 55.9315C33.6565 55.3989 32.6127 52.4671 32.6127 52.4671C32.6127 52.4671 29.9583 46.2924 30.0143 44.8488C30.0703 43.4053 25.9935 36.5972 25.9935 36.5972L23.2206 18.5632C23.2206 18.5632 22.1543 16.2088 20.7207 15.8641C19.287 15.5195 18.0975 16.3408 18.0975 16.3408L20.4966 21.6382L23.0277 30.9887L22.6043 34.4419C22.6043 34.4419 19.6609 28.256 17.7277 25.868C15.7946 23.48 11.6729 17.8267 11.6729 17.8267C11.6729 17.8267 10.7106 14.5829 11.437 13.6135C12.1636 12.6412 8.40691 12.4957 6.80516 16.4816C5.95623 18.5941 4.57794 21.7443 3.71452 24.6774C2.94513 27.2759 2.5817 29.705 3.34394 31.0935C4.50894 33.2146 7.43951 36.0027 8.93353 39.1168Z" fill="#575A89"/>
<path opacity="0.1" d="M3.34393 31.0933C4.50895 33.2145 7.43951 36.0025 8.93354 39.1166C9.32376 37.712 9.79981 36.2588 9.79981 36.2588C9.79981 36.2588 11.6257 26.4988 6.22484 23.9765C5.32995 23.89 4.43494 24.1399 3.71452 24.6773C2.94513 27.2757 2.5817 29.7048 3.34393 31.0933Z" fill="black"/>
<path d="M24.7839 30.4783L29.3627 31.8122L35.7201 32.0585L36.3741 37.5775L25.9263 38.3293C25.9263 38.3293 23.3167 30.9997 24.7839 30.4783Z" fill="#575A89"/>
<path d="M17.3177 49.0347C17.3177 49.0347 23.4431 50.05 22.0451 51.8916C20.647 53.7332 15.2206 51.7971 15.2206 51.7971L17.3177 49.0347Z" fill="#FFB9B9"/>
<path opacity="0.1" d="M9.82143 43.0833C9.68299 45.7553 8.69772 48.8456 8.34424 51.093C10.2956 52.9381 12.1512 54.5655 12.8505 54.5926C14.2954 54.6486 16.6183 54.4495 17.4741 54.7718C18.3298 55.0941 18.8316 49.6199 18.8316 49.6199C18.8316 49.6199 18.3209 47.8653 16.0428 46.9096C14.5051 46.2631 11.5575 44.5095 9.82143 43.0833Z" fill="black"/>
<path d="M6.29207 22.2443C6.29207 22.2443 1.40195 21.4766 1.66613 29.5827C1.93031 37.6888 1.15066 42.863 3.11744 44.3849C5.08422 45.9068 11.4729 52.8045 12.9177 52.8605C14.3626 52.9164 16.6856 52.7173 17.5413 53.0396C18.397 53.3619 18.8989 47.8877 18.8989 47.8877C18.8989 47.8877 18.3882 46.1331 16.11 45.1774C13.8318 44.2218 8.46463 40.8333 8.50945 39.6785C8.55427 38.5237 9.86704 34.5266 9.86704 34.5266C9.86704 34.5266 11.6929 24.7667 6.29207 22.2443Z" fill="#575A89"/>
<path d="M18.3216 16.923C21.8354 16.923 24.6838 14.0772 24.6838 10.5667C24.6838 7.05624 21.8354 4.21045 18.3216 4.21045C14.8079 4.21045 11.9594 7.05624 11.9594 10.5667C11.9594 14.0772 14.8079 16.923 18.3216 16.923Z" fill="#FFB9B9"/>
<path d="M22.6054 1.4563C22.7589 1.5884 22.9427 1.68053 23.1404 1.7245C23.2396 1.74218 23.3419 1.71991 23.4247 1.66255C23.5076 1.60519 23.5644 1.51741 23.5828 1.41836C23.7283 1.71995 23.8925 2.04138 24.1897 2.19613C24.4869 2.35088 24.9465 2.22112 24.9893 1.88904C25.0327 2.14118 25.1444 2.37664 25.3122 2.56989C25.4965 2.74554 25.8309 2.78987 25.9919 2.5926C25.8618 3.30319 25.9421 4.03396 25.9012 4.75519C25.8603 5.47643 25.6678 6.24104 25.1224 6.7153C24.327 7.40696 23.1309 7.23626 22.0846 7.10522C21.9263 7.07204 21.7622 7.08102 21.6085 7.13124C21.2167 7.298 21.2345 7.84286 21.2292 8.26828C21.1973 9.01472 20.9016 9.72569 20.3946 10.2749C19.8877 10.8242 19.2023 11.1762 18.4602 11.2684C18.0449 11.3325 17.6211 11.2292 17.2821 10.9812C16.985 10.7296 16.8332 10.3196 16.4928 10.1306C15.9391 9.82318 15.2675 10.2715 14.8627 10.7583C14.4578 11.245 14.0588 11.8438 13.4316 11.9329C12.6022 12.0508 11.9704 11.2062 11.6605 10.4286C11.2328 9.33866 11.0279 8.17422 11.0579 7.00393C11.0879 5.83363 11.3521 4.68118 11.8349 3.61451C13.5669 -0.157362 19.4833 -0.753959 22.6054 1.4563Z" fill="#2F2E41"/>
<path d="M175.331 102.525C177.571 106.342 182.09 107.854 182.09 107.854C182.09 107.854 182.977 103.176 180.736 99.3581C178.495 95.5405 173.976 94.0291 173.976 94.0291C173.976 94.0291 173.09 98.7072 175.331 102.525Z" fill="#F2F2F2"/>
<path d="M176.729 101.192C180.604 103.336 182.227 107.813 182.227 107.813C182.227 107.813 177.568 108.813 173.693 106.669C169.818 104.524 168.194 100.048 168.194 100.048C168.194 100.048 172.854 99.0481 176.729 101.192Z" fill="#6C63FF"/>
</svg>
