<svg width="65" height="26" viewBox="0 0 65 26" fill="none" xmlns="http://www.w3.org/2000/svg">
<path d="M37.1883 0.484555C35.8892 1.17311 35.4215 2.30987 35.4215 5.45383C35.4215 5.45383 36.0776 4.82374 37.0422 4.46972C37.6368 4.25413 38.197 3.95326 38.7051 3.57655C39.8029 2.77432 39.9555 1.75124 39.9555 0.0168621C39.9555 0.0168621 38.1594 -0.035107 37.1883 0.484555ZM29.559 1.22832C28.5197 2.15722 28.2014 3.62851 28.2014 3.62851L24.7002 17.078L21.8128 6.05144C21.5303 4.89844 21.0138 3.42714 20.2051 2.45603C19.1983 1.22832 17.1391 1.15362 16.9085 1.15362C16.6877 1.15362 14.6058 1.22832 13.5762 2.47551C12.7772 3.45962 12.2575 4.91468 11.975 6.07418L9.08759 17.1008L5.62534 3.63176C5.62534 3.63176 5.32654 2.14098 4.26773 1.23157C2.54959 -0.278697 0 0.0395972 0 0.0395972L6.65168 25.2562C6.65168 25.2562 8.8505 25.4251 9.94828 24.847C11.3806 24.1194 12.0886 23.5446 12.9656 20.0953C13.7483 17.0423 15.9276 8.06513 16.129 7.41231C16.2232 7.09401 16.3564 6.33401 16.9118 6.33401C17.4931 6.33401 17.6068 7.07777 17.6945 7.41231C17.9024 8.04564 20.0622 17.0423 20.8644 20.0953C21.7349 23.5218 22.4267 24.0805 23.8817 24.847C24.9795 25.4251 27.1783 25.2562 27.1783 25.2562L33.83 0.055834C33.8235 0.055834 31.2674 -0.265707 29.559 1.22832ZM39.9555 4.15142C39.9555 4.15142 39.5365 4.78476 38.5914 5.3434C37.9808 5.68118 37.3994 5.92152 36.7661 6.22358C35.717 6.72375 35.4215 7.30188 35.4215 8.15607V25.2595C35.4215 25.2595 37.1169 25.4641 38.1952 24.9217C39.6113 24.2006 39.9263 23.5088 39.9523 20.3616V4.15142H39.9555ZM56.5587 12.6999L65 0.114298C65 0.114298 61.4403 -0.499553 59.6702 1.1179C58.5335 2.14098 57.2733 3.99228 57.2733 3.99228L54.1813 8.49385C54.0091 8.71796 53.8435 8.98104 53.5317 8.98104C53.2102 8.98104 53.0088 8.73744 52.8756 8.49385L49.7512 4.00527C49.7512 4.00527 48.5007 2.16047 47.3477 1.13414C45.5939 -0.486561 42.0179 0.127289 42.0179 0.127289L50.4722 12.6804L42.0179 25.2107C42.0179 25.2107 45.74 25.6947 47.5004 24.074C48.6371 23.0509 49.7349 21.3555 49.7349 21.3555L52.8204 16.8637C52.9926 16.6428 53.1582 16.3862 53.47 16.3862C53.7948 16.3862 53.9929 16.6298 54.1261 16.8637L57.2181 21.3555C57.2181 21.3555 58.3711 23.0119 59.4916 24.074C61.2389 25.6947 64.9058 25.2107 64.9058 25.2107L56.5587 12.6999Z" fill="black"/>
</svg>
